<svg xmlns="http://www.w3.org/2000/svg" version="1.1" xmlns:xlink="http://www.w3.org/1999/xlink" xmlns:svgjs="http://svgjs.dev/svgjs" viewBox="0 0 800 800"><defs><linearGradient x1="50%" y1="0%" x2="50%" y2="100%" id="ssscribble-grad"><stop stop-color="hsl(265, 55%, 30%)" stop-opacity="1" offset="0%"></stop><stop stop-color="hsl(265, 55%, 60%)" stop-opacity="1" offset="100%"></stop></linearGradient></defs><g fill="none" stroke-width="1.5" stroke="url(#ssscribble-grad)" stroke-linecap="round"><path d="M914.01 414.75C1021.93 447.61 1085.51 493.13 1090.95 549.39 1041.44 604.96 948.17 669.2 835.16 737.17 722.86 798.14 632.48 853.29 574.85 892.79 553.38 911.3 563.1 902.46 592.76 862.27 639.59 803.71 685.87 728.28 722.58 653.53 755.02 607.15 770.94 599.68 771.12 644.37 764.31 738.2 745.89 863.51 719.87 988.6 691.5 1077.2 659.85 1101.23 626.99 1047.97 594.13 937.16 561.61 805.56 528.01 695.27 492.06 636.02 450.7 638.96 400.56 693.61 343.44 784.95 273.4 878.65 190.31 949.61 102.95 989.43 9.5 984.78 -80.39 942.11 -153.12 869.43 -201.8 779.86 -214.55 687.56 -191.13 593.28 -130.22 510.12 -42.01 440.93 46.91 378.39 121.47 327.65 158.29 285.65 140.17 246.35 69.94 211.01 -37.98 178.15 -156.33 145.29 -247.51 116.46 -289.16 93.79 -276.31 73.81 -210.4 64.77 -110.33 70.36 4.61 82.6 111.46 111.64 194.13 155.28 255.03 218.13 207.83 251.4 153.21 160.22 116.18 55.05 91.97 -68.11 82.36 -183.54 77.72 -262.29 86.14 -283.94 104.95 -237.39 125.85 -139.79 153.5 -14.85 186.36 95.95 219.22 149.24 255.73 131.88 296.81 55.98 339.97 -56.42 391.33 -163.04 452.91 -232.79 519.47 -253.4 597.8 -216.47 685.48 -135.89 771.69 -26.92 856.97 87.46 930.33 189.09 980.55 272.36 1000.93 328.38 983.54 360.53 935.09 371.67 857.7 370.65 766.85 366.62 690.86 355.6 643.66 351.14 643.49 357.54 697.82 363.26 795.66 381.9 914.01 414.75Q914.01 414.75 914.01 414.75" opacity="0.93"></path><path d="M880.01 541.35C981.25 571.86 1045.25 611.24 1059.88 656.97 1026.52 700.85 951.23 747.15 852 790.3 744.75 824.77 648.05 847.48 573.96 851.56 527.24 839.3 508.97 804.26 512.98 748.13 537.57 687.52 569.93 624.18 601.26 574.19 635.59 557.61 659.79 579.78 671.57 645.96 680.11 747.43 676.57 867.2 662.47 977.72 646.81 1050.88 623.23 1065.85 592.72 1013.97 562.21 912.27 526.2 789.97 484.31 681.46 440.87 612.07 388.9 594.69 327.48 625.41 262.82 695.92 188.37 780.52 107.01 857.33 28.65 918.36 -47.5 945.91 -112.08 939.52 -156.09 904.49 -173.99 845.83 -159.05 774.92 -116.73 693.79 -47.4 614.36 37.47 542.68 114.34 472.17 172.26 412.12 193.84 362.85 167.44 314.97 97.25 275.77 -3.98 245.25 -114.24 214.74 -202.43 194.35 -249.72 184.68 -251.17 176.41 -204.59 180.95 -123 198.58 -20.67 217.37 83.96 246.55 175.5 280.66 246.86 304.55 291.47 319.4 311.55 314.44 308.51 280.85 291.61 217.13 269.59 124.33 239.96 15.75 215.84 -96.2 201.4 -189.08 187.83 -242.18 185.94 -242.18 195.65 -184.59 206.4 -87.85 227.19 28.24 257.7 129.95 288.22 181.86 327 173.09 373.8 111.72 421.64 12.97 479.04 -89.42 545.49 -168.54 612.81 -212.36 687.17 -207.17 763.84 -158.83 832.88 -77.07 893.59 22.43 936.62 123.04 956.54 219.16 948.1 298.01 908.52 357.31 848.75 400.26 771.47 427.81 691.52 446.22 632.29 455.95 603.08 465.16 616.31 478.83 675.37 490.64 769.75 510.84 880.01 541.35Q880.01 541.35 880.01 541.35" opacity="0.54"></path><path d="M846.01 617.41C940.37 645.58 1003.84 676.12 1026.05 706.88 1007.34 735.53 949.95 760.33 866.79 776.89 769.73 786.05 673.88 781.32 591.03 759.61 526.06 728.94 483.98 683.16 462.84 627.56 467.16 557.94 523.83 552.48 547.14 656.5 560.47 759.48 563.7 869.82 556.22 964.67 548.16 1023.11 530.1 1030.08 501.93 979.97 473.77 887.25 436.82 774.71 391.76 669.9 346.13 593.74 291.66 559.35 229.52 567.33 167.7 614.31 100.69 682.57 33.04 754.7 -26.87 824.39 -78.51 873.05 -114.14 895.73 -129.93 896.1 -121.24 871.94 -85.59 830.56 -32.08 775.38 38.5 714.01 114.92 653.38 177.44 589.54 218.79 531.95 226.63 483.4 193.55 434.83 124.37 395.84 30.01 367.67 -72.04 339.5 -156.45 323.49 -207.63 318.93 -221.24 314.36 -192.71 320.72 -130.4 335.74 -44.47 347.55 51.39 362.54 143.63 374.32 225.92 372.29 289.44 356.02 332.64 318.74 356.39 259.16 364.21 177.1 362.25 78.08 349.68 -23.36 336.3 -116.89 327.08 -184.52 315.47 -213.15 312.13 -194.81 318.82 -129.53 325.5 -35.59 342.61 71.22 370.78 163.95 398.94 214.09 436.83 212.83 483.27 165.28 529.7 81.3 584.29 -13 644.7 -95.34 702.74 -155.36 762.51 -176.83 818.48 -159.81 863.86 -109.93 896.48 -35.39 909.64 50.56 903.35 143.07 873.24 229.29 820.27 303.38 757.36 368.5 686.75 419.62 621.46 459.26 579.8 491.52 567.3 517.96 591.78 542.43 653.83 564.79 743.95 589.25 846.01 617.41Q846.01 617.41 846.01 617.41" opacity="0.54"></path><path d="M812.01 615.76C899.29 641.58 961.32 663.26 989.45 679.62 983.62 694.36 943.36 700.89 877.47 696.98 794.47 688.75 705.76 667.99 621.85 635.02 546.94 600.56 488.03 559.35 446.21 518.02 420.53 489.96 408.56 476 405.49 484.71 411.95 521.58 420.09 585.94 425.63 673.7 433.95 772.62 435.77 870.48 429.11 949.16 422.75 993.84 407.07 993.92 381.25 945.97 355.43 862.09 320.7 759.67 278.36 660.29 236.33 580.65 187.54 533.05 134.47 520.84 84.19 543.86 33.53 591.2 -12.72 650.18 -49.43 716.65 -74.53 773.74 -82.7 814.34 -74.71 841.35 -46.42 847.52 1.59 835.96 58.63 811.4 124.17 775.88 188.25 735.23 235.21 689.18 260.78 644.01 256.64 603.53 218.55 562.03 151.29 527.45 64.01 501.63 -29.75 475.81 -109.61 459.97 -163.01 452.77 -186.48 444.56 -174.12 442.76 -130.81 444.07 -63.51 439.97 18.48 432.97 104.11 417.75 188.29 389.51 261.81 346.29 320.91 285.44 366.28 211 396.95 123.3 416.21 29.95 424.92 -55.91 428.47 -126.41 431.27 -168.37 429.95 -175.09 432.55 -142.19 441.66 -72.53 450.02 16.87 466.56 114.06 492.38 197.94 518.2 245.92 552.07 251.08 592.41 216.38 631.99 147.66 676.36 64.49 722.43 -15.5 764.38 -84.33 803.34 -125.54 834.43 -135.53 854.96 -117.37 861.36 -72.79 849.83 -10.89 824.57 64.27 781.66 142.54 724.37 216.8 665.62 289.57 606.78 352.85 558.4 405.82 534.02 454.48 536.35 494.92 569.78 528.87 633.15 561.21 718.24 589.95 812.01 615.76Q812.01 615.76 812.01 615.76" opacity="0.86"></path><path d="M778.05 537C858.06 560.47 917.75 575.57 950.13 582.2 955.15 588.09 930.59 584.35 882.1 570.91 815.61 556.57 738.99 533.42 660.88 503.99 584.54 478.65 517.26 453.63 461.96 435.07 417.59 431.9 385.43 444.78 363.09 478.34 349.55 532.96 341.05 607.06 334.11 694.84 330.97 785.02 325.4 868.29 315.07 930.93 305.55 963.06 289.57 957.39 266.1 911.98 242.62 836.79 212.78 744.72 178.02 652.28 144.09 572.31 106.96 515.58 69.42 486.79 35.69 487.55 5.53 512.23 -17.09 552.51 -30.93 606.18 -32.47 659.7 -18.86 705.73 5.67 746.87 45.11 773.38 97.01 785.08 150.69 787.53 206.25 777.72 255.54 759.28 286.83 735.5 298.03 707.83 283.95 679.66 242.51 650.1 178.06 622.75 98.05 599.28 12.64 575.8 -61.98 557.32 -115.97 542.61 -146.9 526.52 -148.36 511.49 -122.76 494.59 -74.82 472.36 -10.01 443.51 63.24 404.88 141.13 357.01 215.51 296.8 281.63 224.9 340.27 148.11 387.6 66.75 424.39 -11.35 452.88 -76.07 474.19 -121.8 491.3 -139.76 504.11 -128.18 516.74 -84.81 531.59 -13.89 545.36 69.48 563.48 156.79 586.95 231.98 610.42 277.39 638.14 287.81 668.62 264.74 698.04 211.16 728.11 141.25 755.98 68.27 779.55 -2.29 796.9 -55.34 804.59 -85.52 803.98 -94.64 790.35 -79.69 762.48 -45.76 727.13 3.56 680.58 62.28 627.12 123.79 578.3 189.4 534.54 251.2 503.8 306.22 495.39 360.34 510.21 406.78 550.19 445.15 613.23 482.79 692.61 513.51 778.01 536.99Q778.05 537 778.05 537" opacity="0.09"></path><path d="M743.65 409.14C816.29 430.26 872.89 442.21 908.01 445.62 921.82 449.11 911.13 444.44 879.28 432.97 830.36 423.15 769.16 409.14 702.26 394.22 632.04 386.1 564.93 382.95 504.56 389.27 449.75 409.4 404.01 444.18 366.99 495.09 336.38 559.31 312.12 635.28 292.1 716.89 275.62 794.79 260.24 862.34 244.11 909.62 228.91 930.61 211.14 920.35 190.02 877.87 168.89 811.2 145.42 729.6 120.77 645.36 97.06 567.93 74.01 506.21 53.89 465.21 37.3 447.16 26.76 450.17 24.82 469.49 29.28 504.27 44.69 544.93 71.82 585.16 104.5 627.29 146.56 661.54 194.79 685.69 239.68 705.43 281.94 714.46 315.38 714.02 331.74 709.86 330.41 698.89 308.45 683.14 265.18 666.22 204.29 646.69 131.65 625.57 54.68 604.44 -14.03 582.72 -66.99 559.81 -102.84 535.72 -115.28 508.26 -105.13 475.81 -75.67 439.64 -29.36 395.83 27.84 343.53 93.16 286.83 160.33 222.24 224.63 152.43 286.89 84.51 342.1 18.8 389.25 -37.97 431.36 -79.29 466.35 -101.25 495.53 -98.69 521.36 -73.19 544.04 -23.5 565.1 45.77 585.18 121.85 605.5 199.17 626.62 265.84 647.75 308.34 668.68 322.89 688.44 310.06 707.21 270.94 722.97 215.42 733.74 153 741.18 86.88 740.98 29.84 731.42 -12.37 716.83 -41.29 691.95 -51.02 657.38 -43.47 620.77 -22.11 578.65 11.37 535.32 52.05 500.11 99.52 472.74 148.32 458.76 194.75 464.1 242.83 488.57 285.93 532.57 322.28 593.69 358.71 666.68 388.01 743.65 409.14Q743.65 409.14 743.65 409.14" opacity="0.52"></path><path d="M710.04 278.16C775.05 296.94 827.61 308.83 863.65 314.7 883.72 321.15 884.28 322.8 867.12 321.46 835.12 322.89 790.66 324.31 738.39 328.53 680 339.54 620.39 357.48 563.13 384.9 507.01 422.29 456.32 470.91 412.05 530.16 371.26 595.74 336.42 666.59 306.83 737.22 279.69 800.59 255.95 852.25 234.64 885.39 214.08 896.82 194.55 883.14 175.77 843.95 156.99 785.61 139.86 714.48 125 639.43 110.9 567.07 100.48 504.34 95.08 455.88 94.08 416.07 135.08 432.74 178.46 470.49 211.11 502.86 248.45 533.06 287.29 558.09 333.82 591.62 363.64 617.37 330.71 610.76 287.42 603.4 231.05 590.22 166.04 571.44 97.56 552.66 35.22 529.17 -15.44 501.13 -54.04 472.43 -74.78 438.05 -77.52 397.8 -64.72 356 -36.64 307.73 2.84 253.93 51.64 199.96 105.63 142.8 160.82 85.82 217.84 34.69 271.88 -10.03 321.01 -43.36 368.32 -62.24 409.98 -63.73 445.89 -45.36 479.92 -10.66 509.36 41.37 534.69 106.49 559.37 174.28 581.1 241.61 599.88 299.95 626.13 347.88 656.78 306.05 657.65 235.96 654.29 179.1 643.55 125.09 625.18 79.06 605 39.37 577.91 13.01 545.5 0.23 514.93 -2.57 483.2 6.44 453.95 24.37 434 49.09 422.76 78.59 423.72 109.7 440.22 143.59 471.64 176.1 517.48 205.06 575.39 234.6 641.52 259.37 710 278.15Q710.04 278.16 710.04 278.16" opacity="0.54"></path><path d="M676 190.65C783.93 223.51 843.16 245.88 845.33 266.08 800.65 296.72 719.15 343.65 626.4 418.06 526.7 514.41 439.12 634.25 371.33 752.61 308.1 837.23 260.02 863.23 227.16 809.94 194.3 699.13 179.77 567.22 186.05 457.27 196.89 388.32 233.19 366.91 289.81 377.77 339.5 416.45 386.14 453.99 406.73 473.34 380.48 493.58 307.93 488.77 200 455.91 81.65 423.05 -4.36 365.24 -39.53 288.06 -29.06 211.76 26.46 122.94 104.36 41.18 197.47 -12.73 286.34 -26.18 358.47 18.68 428.68 104.54 481.66 223.13 514.52 333.94 547.38 387.23 557.01 374.55 543.75 314.01 528.57 219.75 490.99 134.76 440.95 81.48 406.12 50.14 385.44 54.49 399.06 80.8 458.31 117.55 557.65 157.79 676 190.65Q676 190.65 676 190.65" opacity="0.10"></path><path d="M642.05 177.98C736.39 206.14 795.81 238.94 813.28 279.77 796.3 327.37 746.59 393.23 681 478.48 603.38 570.8 528.26 671.89 466.11 760.58 404.33 817 357.37 826.09 329.2 775.98 301.03 683.26 294.33 570.55 307.3 467.71 320.63 387.35 351.8 339.54 392.5 319.64 421.18 323.92 441 336.45 437.35 342.99 399.22 354.15 328.39 348.53 234.05 320.37 131.98 292.2 52.25 244.15 8.47 184.18 -4.17 128.82 19.74 72.34 66.79 31.14 130.46 14.12 198.51 32.05 258.23 91.75 319.67 173.94 367.35 275.23 395.51 367.95 423.69 418.09 429.68 420.42 417.06 384.65 406.15 316.61 382.06 245.39 355.3 189.98 345.16 141.65 351.11 119.74 384.39 120.95 448.81 128.93 539.95 149.8 642.01 177.97Q642.05 177.98 642.05 177.98" opacity="0.98"></path><path d="M608.05 244.63C688.06 268.1 744.12 305.07 771 354.32 775.03 406.2 753.21 473.3 715.32 550.84 665.47 626.09 611.94 700.62 564.23 758.97 514.63 790.93 475.49 787.38 452.02 741.98 428.55 666.79 422.97 574.59 431.89 484.8 438.92 404.39 455.82 343.08 474.9 302.29 482.03 277.83 478.95 264.63 457.72 254.25 413.64 248.86 348.06 236.79 268.05 213.32 182.64 189.85 112.1 157.2 65.7 121.91 38.25 91.62 37.67 68.18 57.29 61.87 90.54 71.9 132.56 108.3 173.6 171.51 217.72 244.08 254.38 326.76 277.85 401.95 305.36 453.91 302.89 379.73 297.71 310.43 308.85 263.65 334.32 233.18 378.97 221.97 442.56 213.4 522.61 221.15 608.01 244.62Q608.05 244.63 608.05 244.63" opacity="0.28"></path><path d="M573.87 366.77C638.9 385.55 688.41 418.77 718.91 462.91 736.15 506.91 735.18 560.56 720.68 617.59 697.37 668.77 667.65 714.83 637.95 746.06 605.97 758.78 578.49 747.1 559.71 707.93 540.93 649.59 532.63 578.32 532.07 505.83 529.23 434.96 529.65 373.23 528.35 324.43 518.23 283.88 499.28 253.36 468.28 230.08 424.02 210.16 366.9 191.72 301.87 172.95 233.39 154.17 174.46 136.83 130.85 124.21 97.1 114.95 81.21 116.16 80.8 132.1 89.14 156.29 107.12 198.1 129.07 255.2 153.7 313.93 177.32 377.59 196.1 435.93 220.96 484.75 251.21 464.9 273.13 425.25 298.15 392.84 333.96 368.49 381.48 357.04 438.85 345.43 505.39 348 573.87 366.77Q573.87 366.77 573.87 366.77" opacity="0.61"></path><path d="M540.05 500.87C634.39 529.04 685.65 593.62 692.66 662.39 680.27 710.68 648.5 724.09 620.34 673.98 592.17 581.25 572.93 468.2 548.41 377.84 504.48 297.62 430.39 241.98 336.05 213.81 233.97 185.64 163.66 190.28 137.48 233.58 128.05 287.04 145.83 377.25 174 469.98 202.16 520.09 235.39 529.51 281.73 518.14 344.82 486.29 437.97 472.7 540.05 500.87Q540.05 500.87 540.05 500.87" opacity="0.67"></path><path d="M506.01 598.85C626.68 636.41 654.02 694.8 616.47 639.97 578.91 510.62 490.68 358.72 370.01 321.16 235.85 283.61 180.67 374.62 218.23 503.97 255.78 558.8 371.85 561.3 506.01 598.85Q506.01 598.85 506.01 598.85" opacity="0.95"></path></g></svg>