<svg xmlns="http://www.w3.org/2000/svg" version="1.1" xmlns:xlink="http://www.w3.org/1999/xlink" xmlns:svgjs="http://svgjs.dev/svgjs" viewBox="0 0 1422 800"><circle r="15.5" cx="1233" cy="472" fill="hsl(235, 50%, 50%)" opacity="0.72"></circle><circle r="35" cx="319" cy="277" stroke-width="2" stroke="hsl(254, 50%, 50%)" fill="none" opacity="0.67"></circle><circle r="14" cx="1328" cy="466" fill="hsl(219, 50%, 50%)" opacity="0.50"></circle><circle r="10.5" cx="669" cy="50" fill="hsl(229, 50%, 50%)" opacity="0.88"></circle><circle r="17.5" cx="1178" cy="432" fill="hsl(242, 50%, 50%)" opacity="0.17"></circle><circle r="18.5" cx="92" cy="266" fill="hsl(229, 50%, 50%)" opacity="0.34"></circle><circle r="25" cx="806" cy="571" stroke-width="2" stroke="hsl(238, 50%, 50%)" fill="none" opacity="0.83"></circle><circle r="22.5" cx="1209" cy="744" stroke-width="2" stroke="hsl(238, 50%, 50%)" fill="none" opacity="0.45"></circle><circle r="20" cx="677" cy="418" stroke-width="2" stroke="hsl(233, 50%, 50%)" fill="none" opacity="0.44"></circle><circle r="18.5" cx="469" cy="211" fill="hsl(245, 50%, 50%)" opacity="0.78"></circle><circle r="27" cx="196" cy="747" stroke-width="2" stroke="hsl(243, 50%, 50%)" fill="none" opacity="0.30"></circle><circle r="24.5" cx="491" cy="739" fill="hsl(243, 50%, 50%)" opacity="0.72"></circle><circle r="28.5" cx="315" cy="413" fill="hsl(254, 50%, 50%)" opacity="0.44"></circle><circle r="24.5" cx="856" cy="371" stroke-width="2" stroke="hsl(242, 50%, 50%)" fill="none" opacity="0.97"></circle><circle r="28.5" cx="72" cy="719" fill="hsl(225, 50%, 50%)" opacity="0.18"></circle><circle r="28" cx="316" cy="737" fill="hsl(254, 50%, 50%)" opacity="0.76"></circle><circle r="18.5" cx="878" cy="34" stroke-width="2" stroke="hsl(252, 50%, 50%)" fill="none" opacity="0.51"></circle><circle r="21" cx="905" cy="148" stroke-width="2" stroke="hsl(249, 50%, 50%)" fill="none" opacity="0.37"></circle><circle r="17.5" cx="775" cy="379" fill="hsl(235, 50%, 50%)" opacity="0.20"></circle><circle r="23.5" cx="949" cy="59" stroke-width="2" stroke="hsl(257, 50%, 50%)" fill="none" opacity="0.47"></circle><circle r="24.5" cx="1012" cy="490" fill="hsl(254, 50%, 50%)" opacity="0.50"></circle><circle r="7.5" cx="29" cy="297" stroke-width="2" stroke="hsl(217, 50%, 50%)" fill="none" opacity="0.48"></circle><circle r="27.5" cx="607" cy="551" fill="hsl(235, 50%, 50%)" opacity="0.35"></circle><circle r="31.5" cx="523" cy="383" stroke-width="2" stroke="hsl(241, 50%, 50%)" fill="none" opacity="0.56"></circle><circle r="24.5" cx="394" cy="700" stroke-width="2" stroke="hsl(253, 50%, 50%)" fill="none" opacity="0.90"></circle><circle r="23" cx="966" cy="661" stroke-width="2" stroke="hsl(252, 50%, 50%)" fill="none" opacity="0.80"></circle><circle r="27.5" cx="496" cy="535" stroke-width="2" stroke="hsl(243, 50%, 50%)" fill="none" opacity="0.68"></circle><circle r="25.5" cx="220" cy="636" fill="hsl(246, 50%, 50%)" opacity="0.77"></circle><circle r="19.5" cx="86" cy="470" fill="hsl(225, 50%, 50%)" opacity="0.26"></circle><circle r="23" cx="827" cy="668" stroke-width="2" stroke="hsl(240, 50%, 50%)" fill="none" opacity="0.52"></circle><circle r="7" cx="772" cy="15" stroke-width="2" stroke="hsl(238, 50%, 50%)" fill="none" opacity="0.70"></circle><circle r="33" cx="954" cy="282" stroke-width="2" stroke="hsl(250, 50%, 50%)" fill="none" opacity="0.41"></circle><circle r="12.5" cx="789" cy="52" fill="hsl(241, 50%, 50%)" opacity="0.54"></circle><circle r="19" cx="1357" cy="134" stroke-width="2" stroke="hsl(210, 50%, 50%)" fill="none" opacity="0.28"></circle><circle r="21" cx="219" cy="377" fill="hsl(246, 50%, 50%)" opacity="0.56"></circle><circle r="17.5" cx="1318" cy="377" stroke-width="2" stroke="hsl(219, 50%, 50%)" fill="none" opacity="0.27"></circle><circle r="31" cx="1065" cy="378" stroke-width="2" stroke="hsl(254, 50%, 50%)" fill="none" opacity="0.24"></circle><circle r="10.5" cx="1350" cy="545" fill="hsl(215, 50%, 50%)" opacity="0.36"></circle><circle r="22" cx="1348" cy="274" stroke-width="2" stroke="hsl(215, 50%, 50%)" fill="none" opacity="0.27"></circle><circle r="15" cx="716" cy="283" stroke-width="2" stroke="hsl(233, 50%, 50%)" fill="none" opacity="0.83"></circle><circle r="12" cx="537" cy="226" fill="hsl(239, 50%, 50%)" opacity="0.39"></circle><circle r="32" cx="1135" cy="627" stroke-width="2" stroke="hsl(247, 50%, 50%)" fill="none" opacity="0.34"></circle><circle r="27.5" cx="1177" cy="337" fill="hsl(245, 50%, 50%)" opacity="0.17"></circle><circle r="7.5" cx="26" cy="349" stroke-width="2" stroke="hsl(217, 50%, 50%)" fill="none" opacity="0.61"></circle><circle r="37.5" cx="176" cy="62" fill="hsl(260, 50%, 50%)" opacity="0.32"></circle><circle r="20.5" cx="1136" cy="39" fill="hsl(248, 50%, 50%)" opacity="0.81"></circle><circle r="25.5" cx="686" cy="707" fill="hsl(233, 50%, 50%)" opacity="0.35"></circle><circle r="24.5" cx="48" cy="105" stroke-width="2" stroke="hsl(233, 50%, 50%)" fill="none" opacity="0.80"></circle><circle r="36" cx="338" cy="65" stroke-width="2" stroke="hsl(259, 50%, 50%)" fill="none" opacity="0.53"></circle><circle r="21.5" cx="890" cy="759" fill="hsl(246, 50%, 50%)" opacity="0.40"></circle><circle r="15.5" cx="1336" cy="646" stroke-width="2" stroke="hsl(215, 50%, 50%)" fill="none" opacity="0.30"></circle><circle r="24.5" cx="1016" cy="730" fill="hsl(254, 50%, 50%)" opacity="0.59"></circle><circle r="14" cx="1283" cy="530" fill="hsl(227, 50%, 50%)" opacity="0.28"></circle><circle r="12.5" cx="715" cy="36" fill="hsl(233, 50%, 50%)" opacity="0.93"></circle><circle r="18" cx="783" cy="250" fill="hsl(236, 50%, 50%)" opacity="0.37"></circle><circle r="23" cx="864" cy="475" fill="hsl(242, 50%, 50%)" opacity="0.72"></circle><circle r="14.5" cx="1368" cy="757" fill="hsl(212, 50%, 50%)" opacity="0.98"></circle><circle r="20.5" cx="821" cy="110" stroke-width="2" stroke="hsl(242, 50%, 50%)" fill="none" opacity="0.32"></circle><circle r="17.5" cx="648" cy="340" fill="hsl(233, 50%, 50%)" opacity="0.41"></circle><circle r="25" cx="68" cy="582" fill="hsl(225, 50%, 50%)" opacity="0.13"></circle><circle r="11" cx="28" cy="231" fill="hsl(217, 50%, 50%)" opacity="0.70"></circle><circle r="23.5" cx="720" cy="534" fill="hsl(233, 50%, 50%)" opacity="0.55"></circle><circle r="16" cx="594" cy="243" fill="hsl(236, 50%, 50%)" opacity="0.65"></circle><circle r="21" cx="481" cy="644" fill="hsl(245, 50%, 50%)" opacity="0.57"></circle><circle r="25.5" cx="985" cy="163" stroke-width="2" stroke="hsl(253, 50%, 50%)" fill="none" opacity="0.89"></circle><circle r="26" cx="1127" cy="513" stroke-width="2" stroke="hsl(250, 50%, 50%)" fill="none" opacity="0.66"></circle><circle r="18.5" cx="601" cy="133" stroke-width="2" stroke="hsl(231, 50%, 50%)" fill="none" opacity="0.70"></circle><circle r="24" cx="725" cy="134" fill="hsl(234, 50%, 50%)" opacity="0.33"></circle><circle r="26.5" cx="1031" cy="63" fill="hsl(257, 50%, 50%)" opacity="0.51"></circle><circle r="27" cx="1218" cy="227" stroke-width="2" stroke="hsl(238, 50%, 50%)" fill="none" opacity="0.76"></circle><circle r="20" cx="1226" cy="580" stroke-width="2" stroke="hsl(235, 50%, 50%)" fill="none" opacity="0.49"></circle><circle r="8" cx="1398" cy="444" stroke-width="2" stroke="hsl(209, 50%, 50%)" fill="none" opacity="0.32"></circle><circle r="18" cx="166" cy="322" fill="hsl(240, 50%, 50%)" opacity="0.88"></circle><circle r="15.5" cx="608" cy="50" fill="hsl(226, 50%, 50%)" opacity="0.52"></circle><circle r="16.5" cx="665" cy="224" stroke-width="2" stroke="hsl(233, 50%, 50%)" fill="none" opacity="0.63"></circle><circle r="23.5" cx="456" cy="299" stroke-width="2" stroke="hsl(247, 50%, 50%)" fill="none" opacity="0.59"></circle><circle r="23.5" cx="851" cy="211" fill="hsl(242, 50%, 50%)" opacity="0.62"></circle><circle r="21" cx="492" cy="129" stroke-width="2" stroke="hsl(239, 50%, 50%)" fill="none" opacity="0.96"></circle><circle r="17.5" cx="1295" cy="46" fill="hsl(218, 50%, 50%)" opacity="0.19"></circle><circle r="21" cx="1092" cy="129" fill="hsl(250, 50%, 50%)" opacity="0.18"></circle><circle r="8" cx="1397" cy="589" fill="hsl(209, 50%, 50%)" opacity="0.51"></circle><circle r="30" cx="955" cy="402" stroke-width="2" stroke="hsl(250, 50%, 50%)" fill="none" opacity="0.12"></circle><circle r="32" cx="217" cy="526" stroke-width="2" stroke="hsl(246, 50%, 50%)" fill="none" opacity="0.22"></circle><circle r="29.5" cx="372" cy="173" stroke-width="2" stroke="hsl(254, 50%, 50%)" fill="none" opacity="0.30"></circle><circle r="34.5" cx="385" cy="488" fill="hsl(253, 50%, 50%)" opacity="0.69"></circle><circle r="35" cx="1075" cy="231" stroke-width="2" stroke="hsl(253, 50%, 50%)" fill="none" opacity="0.69"></circle><circle r="23.5" cx="1015" cy="575" fill="hsl(254, 50%, 50%)" opacity="0.58"></circle><circle r="30" cx="180" cy="192" stroke-width="2" stroke="hsl(243, 50%, 50%)" fill="none" opacity="0.81"></circle><circle r="22.5" cx="777" cy="750" stroke-width="2" stroke="hsl(235, 50%, 50%)" fill="none" opacity="0.45"></circle><circle r="21.5" cx="1184" cy="132" stroke-width="2" stroke="hsl(238, 50%, 50%)" fill="none" opacity="0.60"></circle><circle r="21.5" cx="591" cy="741" fill="hsl(236, 50%, 50%)" opacity="0.45"></circle><circle r="26" cx="353" cy="600" fill="hsl(254, 50%, 50%)" opacity="0.15"></circle><circle r="15" cx="71" cy="386" fill="hsl(225, 50%, 50%)" opacity="0.52"></circle><circle r="25" cx="905" cy="576" stroke-width="2" stroke="hsl(246, 50%, 50%)" fill="none" opacity="0.83"></circle><circle r="18.5" cx="494" cy="41" fill="hsl(232, 50%, 50%)" opacity="0.60"></circle><circle r="27.5" cx="1104" cy="748" stroke-width="2" stroke="hsl(252, 50%, 50%)" fill="none" opacity="0.90"></circle><circle r="16.5" cx="1288" cy="709" stroke-width="2" stroke="hsl(227, 50%, 50%)" fill="none" opacity="0.78"></circle></svg>