<svg xmlns="http://www.w3.org/2000/svg" version="1.1" xmlns:xlink="http://www.w3.org/1999/xlink" xmlns:svgjs="http://svgjs.dev/svgjs" viewBox="0 0 800 800"><circle r="8" cx="256" cy="422" fill="hsl(234, 50%, 50%)" opacity="0.82"></circle><circle r="4" cx="90" cy="623" stroke-width="2" stroke="hsl(223, 50%, 50%)" fill="none" opacity="0.42"></circle><circle r="6.5" cx="106" cy="549" stroke-width="2" stroke="hsl(223, 50%, 50%)" fill="none" opacity="0.69"></circle><circle r="13" cx="655" cy="649" stroke-width="2" stroke="hsl(232, 50%, 50%)" fill="none" opacity="0.52"></circle><circle r="3.5" cx="640" cy="463" fill="hsl(232, 50%, 50%)" opacity="0.25"></circle><circle r="7" cx="787" cy="330" stroke-width="2" stroke="hsl(232, 50%, 50%)" fill="none" opacity="0.89"></circle><circle r="7.5" cx="735" cy="785" stroke-width="2" stroke="hsl(232, 50%, 50%)" fill="none" opacity="0.27"></circle><circle r="9" cx="317" cy="49" stroke-width="2" stroke="hsl(233, 50%, 50%)" fill="none" opacity="0.72"></circle><circle r="4" cx="37" cy="659" stroke-width="2" stroke="hsl(222, 50%, 50%)" fill="none" opacity="0.57"></circle><circle r="15" cx="365" cy="218" stroke-width="2" stroke="hsl(243, 50%, 50%)" fill="none" opacity="0.65"></circle><circle r="11" cx="261" cy="286" fill="hsl(234, 50%, 50%)" opacity="0.50"></circle><circle r="5.5" cx="264" cy="47" fill="hsl(231, 50%, 50%)" opacity="0.21"></circle><circle r="6" cx="741" cy="335" fill="hsl(232, 50%, 50%)" opacity="0.40"></circle><circle r="11" cx="386" cy="68" fill="hsl(239, 50%, 50%)" opacity="0.96"></circle><circle r="5.5" cx="146" cy="550" stroke-width="2" stroke="hsl(225, 50%, 50%)" fill="none" opacity="0.38"></circle><circle r="6.5" cx="104" cy="383" stroke-width="2" stroke="hsl(223, 50%, 50%)" fill="none" opacity="0.34"></circle><circle r="7" cx="475" cy="57" stroke-width="2" stroke="hsl(242, 50%, 50%)" fill="none" opacity="0.26"></circle><circle r="9.5" cx="213" cy="403" fill="hsl(231, 50%, 50%)" opacity="0.20"></circle><circle r="7.5" cx="199" cy="271" fill="hsl(228, 50%, 50%)" opacity="0.77"></circle><circle r="10.5" cx="160" cy="303" stroke-width="2" stroke="hsl(226, 50%, 50%)" fill="none" opacity="0.89"></circle><circle r="5.5" cx="211" cy="646" fill="hsl(230, 50%, 50%)" opacity="0.68"></circle><circle r="11.5" cx="410" cy="212" fill="hsl(244, 50%, 50%)" opacity="0.46"></circle><circle r="10" cx="223" cy="733" stroke-width="2" stroke="hsl(231, 50%, 50%)" fill="none" opacity="0.87"></circle><circle r="5" cx="543" cy="384" stroke-width="2" stroke="hsl(236, 50%, 50%)" fill="none" opacity="0.79"></circle><circle r="12.5" cx="500" cy="91" stroke-width="2" stroke="hsl(241, 50%, 50%)" fill="none" opacity="0.80"></circle><circle r="6" cx="100" cy="345" stroke-width="2" stroke="hsl(223, 50%, 50%)" fill="none" opacity="0.15"></circle><circle r="12" cx="396" cy="784" fill="hsl(244, 50%, 50%)" opacity="0.39"></circle><circle r="9.5" cx="592" cy="721" stroke-width="2" stroke="hsl(233, 50%, 50%)" fill="none" opacity="0.67"></circle><circle r="6.5" cx="91" cy="14" stroke-width="2" stroke="hsl(229, 50%, 50%)" fill="none" opacity="0.55"></circle><circle r="7" cx="75" cy="148" fill="hsl(221, 50%, 50%)" opacity="0.33"></circle><circle r="4.5" cx="99" cy="644" fill="hsl(223, 50%, 50%)" opacity="0.79"></circle><circle r="11.5" cx="453" cy="619" fill="hsl(243, 50%, 50%)" opacity="0.40"></circle><circle r="4.5" cx="23" cy="534" fill="hsl(221, 50%, 50%)" opacity="0.73"></circle><circle r="15.5" cx="501" cy="465" stroke-width="2" stroke="hsl(240, 50%, 50%)" fill="none" opacity="0.16"></circle><circle r="7" cx="104" cy="119" stroke-width="2" stroke="hsl(223, 50%, 50%)" fill="none" opacity="0.41"></circle><circle r="9" cx="453" cy="59" fill="hsl(242, 50%, 50%)" opacity="0.80"></circle><circle r="6.5" cx="764" cy="354" fill="hsl(232, 50%, 50%)" opacity="0.71"></circle><circle r="4.5" cx="106" cy="695" stroke-width="2" stroke="hsl(223, 50%, 50%)" fill="none" opacity="0.56"></circle><circle r="8.5" cx="725" cy="559" stroke-width="2" stroke="hsl(232, 50%, 50%)" fill="none" opacity="0.32"></circle><circle r="4.5" cx="11" cy="236" fill="hsl(221, 50%, 50%)" opacity="0.28"></circle><circle r="12.5" cx="746" cy="63" stroke-width="2" stroke="hsl(241, 50%, 50%)" fill="none" opacity="0.18"></circle><circle r="13" cx="447" cy="243" fill="hsl(244, 50%, 50%)" opacity="0.70"></circle><circle r="7" cx="145" cy="704" stroke-width="2" stroke="hsl(225, 50%, 50%)" fill="none" opacity="0.34"></circle><circle r="8.5" cx="670" cy="61" stroke-width="2" stroke="hsl(241, 50%, 50%)" fill="none" opacity="0.94"></circle><circle r="10" cx="471" cy="173" stroke-width="2" stroke="hsl(242, 50%, 50%)" fill="none" opacity="0.73"></circle><circle r="5" cx="26" cy="372" stroke-width="2" stroke="hsl(222, 50%, 50%)" fill="none" opacity="0.81"></circle><circle r="6.5" cx="787" cy="490" stroke-width="2" stroke="hsl(232, 50%, 50%)" fill="none" opacity="0.43"></circle><circle r="6.5" cx="495" cy="50" fill="hsl(243, 50%, 50%)" opacity="0.42"></circle><circle r="7.5" cx="73" cy="38" stroke-width="2" stroke="hsl(227, 50%, 50%)" fill="none" opacity="0.17"></circle><circle r="3" cx="8" cy="441" fill="hsl(221, 50%, 50%)" opacity="0.22"></circle><circle r="9.5" cx="425" cy="151" stroke-width="2" stroke="hsl(243, 50%, 50%)" fill="none" opacity="0.72"></circle><circle r="12" cx="429" cy="694" fill="hsl(244, 50%, 50%)" opacity="0.25"></circle><circle r="9.5" cx="516" cy="52" stroke-width="2" stroke="hsl(243, 50%, 50%)" fill="none" opacity="0.50"></circle><circle r="7" cx="676" cy="411" stroke-width="2" stroke="hsl(232, 50%, 50%)" fill="none" opacity="0.83"></circle><circle r="3" cx="27" cy="339" fill="hsl(222, 50%, 50%)" opacity="0.98"></circle><circle r="9.5" cx="591" cy="79" fill="hsl(240, 50%, 50%)" opacity="0.38"></circle><circle r="11.5" cx="418" cy="473" fill="hsl(244, 50%, 50%)" opacity="0.29"></circle><circle r="7.5" cx="187" cy="239" stroke-width="2" stroke="hsl(228, 50%, 50%)" fill="none" opacity="0.36"></circle><circle r="9" cx="311" cy="236" stroke-width="2" stroke="hsl(239, 50%, 50%)" fill="none" opacity="0.78"></circle><circle r="6" cx="459" cy="695" stroke-width="2" stroke="hsl(243, 50%, 50%)" fill="none" opacity="0.63"></circle><circle r="10.5" cx="326" cy="712" fill="hsl(241, 50%, 50%)" opacity="0.92"></circle><circle r="8.5" cx="495" cy="717" fill="hsl(241, 50%, 50%)" opacity="0.78"></circle><circle r="11.5" cx="420" cy="57" stroke-width="2" stroke="hsl(240, 50%, 50%)" fill="none" opacity="0.19"></circle><circle r="5" cx="731" cy="246" fill="hsl(232, 50%, 50%)" opacity="0.48"></circle><circle r="11" cx="226" cy="363" fill="hsl(232, 50%, 50%)" opacity="0.17"></circle><circle r="14" cx="405" cy="608" stroke-width="2" stroke="hsl(244, 50%, 50%)" fill="none" opacity="0.73"></circle><circle r="9" cx="297" cy="711" fill="hsl(238, 50%, 50%)" opacity="0.77"></circle><circle r="9.5" cx="556" cy="548" fill="hsl(235, 50%, 50%)" opacity="0.28"></circle><circle r="12" cx="721" cy="164" fill="hsl(235, 50%, 50%)" opacity="0.71"></circle><circle r="8.5" cx="537" cy="341" fill="hsl(237, 50%, 50%)" opacity="0.68"></circle><circle r="10" cx="168" cy="414" fill="hsl(227, 50%, 50%)" opacity="0.77"></circle><circle r="6" cx="86" cy="751" fill="hsl(223, 50%, 50%)" opacity="0.23"></circle><circle r="8.5" cx="219" cy="189" fill="hsl(231, 50%, 50%)" opacity="0.66"></circle><circle r="5" cx="15" cy="304" fill="hsl(221, 50%, 50%)" opacity="0.11"></circle><circle r="6" cx="294" cy="122" stroke-width="2" stroke="hsl(236, 50%, 50%)" fill="none" opacity="0.95"></circle><circle r="5" cx="30" cy="440" fill="hsl(222, 50%, 50%)" opacity="0.30"></circle><circle r="13" cx="439" cy="96" fill="hsl(242, 50%, 50%)" opacity="0.39"></circle><circle r="8.5" cx="532" cy="125" fill="hsl(239, 50%, 50%)" opacity="0.73"></circle><circle r="10.5" cx="688" cy="185" stroke-width="2" stroke="hsl(233, 50%, 50%)" fill="none" opacity="0.33"></circle><circle r="7" cx="653" cy="33" fill="hsl(241, 50%, 50%)" opacity="0.57"></circle><circle r="8" cx="625" cy="610" fill="hsl(232, 50%, 50%)" opacity="0.98"></circle><circle r="6" cx="186" cy="45" fill="hsl(229, 50%, 50%)" opacity="0.23"></circle><circle r="6.5" cx="584" cy="753" fill="hsl(234, 50%, 50%)" opacity="0.20"></circle><circle r="4.5" cx="11" cy="673" stroke-width="2" stroke="hsl(221, 50%, 50%)" fill="none" opacity="0.54"></circle><circle r="9.5" cx="703" cy="70" fill="hsl(240, 50%, 50%)" opacity="0.40"></circle><circle r="6" cx="478" cy="702" stroke-width="2" stroke="hsl(242, 50%, 50%)" fill="none" opacity="0.71"></circle><circle r="7" cx="787" cy="368" fill="hsl(232, 50%, 50%)" opacity="0.66"></circle><circle r="6.5" cx="670" cy="787" fill="hsl(232, 50%, 50%)" opacity="0.83"></circle><circle r="9.5" cx="609" cy="653" stroke-width="2" stroke="hsl(233, 50%, 50%)" fill="none" opacity="0.58"></circle><circle r="9" cx="269" cy="395" fill="hsl(235, 50%, 50%)" opacity="0.41"></circle><circle r="8.5" cx="249" cy="208" fill="hsl(233, 50%, 50%)" opacity="0.46"></circle><circle r="8" cx="496" cy="687" fill="hsl(241, 50%, 50%)" opacity="0.39"></circle><circle r="14" cx="373" cy="463" fill="hsl(243, 50%, 50%)" opacity="0.34"></circle><circle r="8" cx="746" cy="509" fill="hsl(232, 50%, 50%)" opacity="0.26"></circle><circle r="8.5" cx="217" cy="298" fill="hsl(231, 50%, 50%)" opacity="0.40"></circle><circle r="7.5" cx="714" cy="41" fill="hsl(241, 50%, 50%)" opacity="0.28"></circle><circle r="12.5" cx="400" cy="180" stroke-width="2" stroke="hsl(244, 50%, 50%)" fill="none" opacity="0.64"></circle><circle r="8" cx="350" cy="419" stroke-width="2" stroke="hsl(242, 50%, 50%)" fill="none" opacity="0.34"></circle><circle r="12" cx="440" cy="744" stroke-width="2" stroke="hsl(244, 50%, 50%)" fill="none" opacity="0.27"></circle><circle r="8.5" cx="504" cy="212" fill="hsl(240, 50%, 50%)" opacity="0.58"></circle><circle r="5" cx="264" cy="786" fill="hsl(235, 50%, 50%)" opacity="0.20"></circle><circle r="7" cx="168" cy="637" stroke-width="2" stroke="hsl(227, 50%, 50%)" fill="none" opacity="0.79"></circle><circle r="8.5" cx="208" cy="518" stroke-width="2" stroke="hsl(230, 50%, 50%)" fill="none" opacity="0.75"></circle><circle r="10.5" cx="541" cy="36" fill="hsl(244, 50%, 50%)" opacity="0.47"></circle><circle r="13.5" cx="378" cy="148" fill="hsl(243, 50%, 50%)" opacity="0.26"></circle><circle r="7" cx="606" cy="591" fill="hsl(233, 50%, 50%)" opacity="0.41"></circle><circle r="4.5" cx="791" cy="406" stroke-width="2" stroke="hsl(232, 50%, 50%)" fill="none" opacity="0.45"></circle><circle r="7" cx="670" cy="231" stroke-width="2" stroke="hsl(232, 50%, 50%)" fill="none" opacity="0.83"></circle><circle r="10.5" cx="401" cy="498" stroke-width="2" stroke="hsl(244, 50%, 50%)" fill="none" opacity="0.10"></circle><circle r="4" cx="11" cy="141" stroke-width="2" stroke="hsl(220, 50%, 50%)" fill="none" opacity="0.12"></circle><circle r="13" cx="460" cy="329" fill="hsl(243, 50%, 50%)" opacity="0.78"></circle><circle r="10" cx="479" cy="742" fill="hsl(242, 50%, 50%)" opacity="0.58"></circle><circle r="11.5" cx="322" cy="482" fill="hsl(240, 50%, 50%)" opacity="0.39"></circle><circle r="5.5" cx="114" cy="670" fill="hsl(224, 50%, 50%)" opacity="0.51"></circle><circle r="4.5" cx="272" cy="67" stroke-width="2" stroke="hsl(232, 50%, 50%)" fill="none" opacity="0.89"></circle><circle r="9.5" cx="592" cy="686" stroke-width="2" stroke="hsl(233, 50%, 50%)" fill="none" opacity="0.47"></circle><circle r="9" cx="376" cy="658" stroke-width="2" stroke="hsl(244, 50%, 50%)" fill="none" opacity="0.41"></circle><circle r="12.5" cx="381" cy="107" fill="hsl(241, 50%, 50%)" opacity="0.39"></circle><circle r="7.5" cx="771" cy="395" fill="hsl(232, 50%, 50%)" opacity="0.69"></circle><circle r="8.5" cx="662" cy="341" stroke-width="2" stroke="hsl(232, 50%, 50%)" fill="none" opacity="0.70"></circle><circle r="10.5" cx="680" cy="95" stroke-width="2" stroke="hsl(239, 50%, 50%)" fill="none" opacity="0.54"></circle><circle r="11" cx="244" cy="326" fill="hsl(233, 50%, 50%)" opacity="0.64"></circle><circle r="6" cx="21" cy="404" fill="hsl(221, 50%, 50%)" opacity="0.69"></circle><circle r="5.5" cx="14" cy="109" fill="hsl(221, 50%, 50%)" opacity="0.47"></circle><circle r="5" cx="112" cy="270" stroke-width="2" stroke="hsl(223, 50%, 50%)" fill="none" opacity="0.22"></circle><circle r="6.5" cx="16" cy="758" fill="hsl(221, 50%, 50%)" opacity="0.70"></circle><circle r="7" cx="575" cy="229" stroke-width="2" stroke="hsl(234, 50%, 50%)" fill="none" opacity="0.96"></circle><circle r="8.5" cx="717" cy="495" fill="hsl(232, 50%, 50%)" opacity="0.58"></circle><circle r="6.5" cx="201" cy="436" stroke-width="2" stroke="hsl(230, 50%, 50%)" fill="none" opacity="0.92"></circle><circle r="14" cx="339" cy="678" fill="hsl(242, 50%, 50%)" opacity="0.73"></circle><circle r="13.5" cx="393" cy="538" stroke-width="2" stroke="hsl(244, 50%, 50%)" fill="none" opacity="0.63"></circle><circle r="7.5" cx="67" cy="419" fill="hsl(222, 50%, 50%)" opacity="0.98"></circle><circle r="6" cx="273" cy="117" fill="hsl(234, 50%, 50%)" opacity="0.20"></circle><circle r="6.5" cx="130" cy="620" stroke-width="2" stroke="hsl(225, 50%, 50%)" fill="none" opacity="0.44"></circle><circle r="8.5" cx="130" cy="18" fill="hsl(229, 50%, 50%)" opacity="0.98"></circle><circle r="8.5" cx="436" cy="443" stroke-width="2" stroke="hsl(244, 50%, 50%)" fill="none" opacity="0.20"></circle><circle r="7" cx="127" cy="443" fill="hsl(225, 50%, 50%)" opacity="0.12"></circle><circle r="5" cx="175" cy="681" stroke-width="2" stroke="hsl(227, 50%, 50%)" fill="none" opacity="0.15"></circle><circle r="8" cx="164" cy="23" stroke-width="2" stroke="hsl(229, 50%, 50%)" fill="none" opacity="0.14"></circle><circle r="6" cx="80" cy="667" stroke-width="2" stroke="hsl(223, 50%, 50%)" fill="none" opacity="0.14"></circle><circle r="14.5" cx="776" cy="21" stroke-width="2" stroke="hsl(242, 50%, 50%)" fill="none" opacity="0.18"></circle><circle r="12" cx="371" cy="502" stroke-width="2" stroke="hsl(243, 50%, 50%)" fill="none" opacity="0.13"></circle><circle r="10" cx="574" cy="105" stroke-width="2" stroke="hsl(239, 50%, 50%)" fill="none" opacity="0.53"></circle><circle r="6.5" cx="714" cy="603" fill="hsl(232, 50%, 50%)" opacity="0.81"></circle><circle r="10.5" cx="332" cy="96" stroke-width="2" stroke="hsl(237, 50%, 50%)" fill="none" opacity="0.67"></circle><circle r="6.5" cx="88" cy="240" fill="hsl(223, 50%, 50%)" opacity="0.63"></circle><circle r="5.5" cx="283" cy="791" stroke-width="2" stroke="hsl(237, 50%, 50%)" fill="none" opacity="0.59"></circle><circle r="3.5" cx="66" cy="520" fill="hsl(222, 50%, 50%)" opacity="0.81"></circle><circle r="17" cx="429" cy="571" fill="hsl(244, 50%, 50%)" opacity="0.58"></circle><circle r="5" cx="738" cy="412" stroke-width="2" stroke="hsl(232, 50%, 50%)" fill="none" opacity="0.57"></circle><circle r="8.5" cx="190" cy="114" fill="hsl(229, 50%, 50%)" opacity="0.22"></circle><circle r="6" cx="504" cy="749" stroke-width="2" stroke="hsl(240, 50%, 50%)" fill="none" opacity="0.29"></circle><circle r="8.5" cx="731" cy="280" stroke-width="2" stroke="hsl(232, 50%, 50%)" fill="none" opacity="0.81"></circle><circle r="7" cx="526" cy="641" stroke-width="2" stroke="hsl(237, 50%, 50%)" fill="none" opacity="0.83"></circle><circle r="9.5" cx="586" cy="621" fill="hsl(234, 50%, 50%)" opacity="0.20"></circle><circle r="8.5" cx="200" cy="567" fill="hsl(228, 50%, 50%)" opacity="0.96"></circle><circle r="7.5" cx="594" cy="359" fill="hsl(233, 50%, 50%)" opacity="0.94"></circle><circle r="6.5" cx="194" cy="72" stroke-width="2" stroke="hsl(229, 50%, 50%)" fill="none" opacity="0.88"></circle><circle r="6.5" cx="124" cy="321" fill="hsl(224, 50%, 50%)" opacity="0.27"></circle><circle r="4.5" cx="82" cy="574" fill="hsl(223, 50%, 50%)" opacity="0.14"></circle><circle r="5.5" cx="569" cy="766" fill="hsl(235, 50%, 50%)" opacity="0.27"></circle><circle r="7" cx="788" cy="163" stroke-width="2" stroke="hsl(235, 50%, 50%)" fill="none" opacity="0.51"></circle><circle r="7" cx="218" cy="786" stroke-width="2" stroke="hsl(231, 50%, 50%)" fill="none" opacity="0.35"></circle><circle r="14" cx="418" cy="363" fill="hsl(244, 50%, 50%)" opacity="0.48"></circle><circle r="12.5" cx="378" cy="419" stroke-width="2" stroke="hsl(244, 50%, 50%)" fill="none" opacity="0.69"></circle><circle r="10" cx="533" cy="668" stroke-width="2" stroke="hsl(237, 50%, 50%)" fill="none" opacity="0.12"></circle><circle r="11" cx="502" cy="134" stroke-width="2" stroke="hsl(240, 50%, 50%)" fill="none" opacity="0.35"></circle><circle r="14" cx="720" cy="665" stroke-width="2" stroke="hsl(232, 50%, 50%)" fill="none" opacity="0.82"></circle><circle r="5" cx="12" cy="561" stroke-width="2" stroke="hsl(221, 50%, 50%)" fill="none" opacity="0.36"></circle><circle r="5.5" cx="17" cy="476" stroke-width="2" stroke="hsl(221, 50%, 50%)" fill="none" opacity="0.67"></circle><circle r="9" cx="783" cy="444" fill="hsl(232, 50%, 50%)" opacity="0.54"></circle><circle r="7" cx="741" cy="363" stroke-width="2" stroke="hsl(232, 50%, 50%)" fill="none" opacity="0.74"></circle><circle r="15" cx="278" cy="551" stroke-width="2" stroke="hsl(237, 50%, 50%)" fill="none" opacity="0.86"></circle><circle r="5.5" cx="709" cy="246" stroke-width="2" stroke="hsl(232, 50%, 50%)" fill="none" opacity="0.83"></circle><circle r="7.5" cx="530" cy="617" stroke-width="2" stroke="hsl(237, 50%, 50%)" fill="none" opacity="0.19"></circle><circle r="3.5" cx="57" cy="569" stroke-width="2" stroke="hsl(222, 50%, 50%)" fill="none" opacity="0.54"></circle><circle r="6.5" cx="532" cy="545" stroke-width="2" stroke="hsl(237, 50%, 50%)" fill="none" opacity="0.87"></circle><circle r="8.5" cx="343" cy="629" fill="hsl(242, 50%, 50%)" opacity="0.55"></circle><circle r="13" cx="480" cy="254" fill="hsl(242, 50%, 50%)" opacity="0.56"></circle><circle r="10.5" cx="279" cy="253" stroke-width="2" stroke="hsl(237, 50%, 50%)" fill="none" opacity="0.39"></circle><circle r="7" cx="130" cy="520" stroke-width="2" stroke="hsl(225, 50%, 50%)" fill="none" opacity="0.84"></circle><circle r="5" cx="233" cy="486" fill="hsl(232, 50%, 50%)" opacity="0.85"></circle><circle r="5.5" cx="77" cy="277" stroke-width="2" stroke="hsl(223, 50%, 50%)" fill="none" opacity="0.36"></circle><circle r="8" cx="567" cy="335" fill="hsl(235, 50%, 50%)" opacity="0.83"></circle><circle r="10.5" cx="440" cy="16" fill="hsl(241, 50%, 50%)" opacity="0.41"></circle><circle r="5.5" cx="132" cy="184" fill="hsl(224, 50%, 50%)" opacity="0.60"></circle><circle r="10" cx="368" cy="632" stroke-width="2" stroke="hsl(243, 50%, 50%)" fill="none" opacity="0.69"></circle><circle r="8" cx="735" cy="442" stroke-width="2" stroke="hsl(232, 50%, 50%)" fill="none" opacity="0.31"></circle><circle r="4.5" cx="214" cy="9" fill="hsl(229, 50%, 50%)" opacity="0.41"></circle><circle r="10" cx="772" cy="572" stroke-width="2" stroke="hsl(232, 50%, 50%)" fill="none" opacity="0.14"></circle><circle r="8.5" cx="622" cy="368" stroke-width="2" stroke="hsl(232, 50%, 50%)" fill="none" opacity="0.66"></circle><circle r="11" cx="332" cy="744" fill="hsl(241, 50%, 50%)" opacity="0.36"></circle><circle r="8.5" cx="454" cy="718" stroke-width="2" stroke="hsl(243, 50%, 50%)" fill="none" opacity="0.57"></circle><circle r="12.5" cx="626" cy="87" stroke-width="2" stroke="hsl(240, 50%, 50%)" fill="none" opacity="0.55"></circle><circle r="8" cx="535" cy="91" stroke-width="2" stroke="hsl(241, 50%, 50%)" fill="none" opacity="0.88"></circle><circle r="8" cx="782" cy="254" stroke-width="2" stroke="hsl(232, 50%, 50%)" fill="none" opacity="0.68"></circle><circle r="10" cx="539" cy="307" stroke-width="2" stroke="hsl(236, 50%, 50%)" fill="none" opacity="0.22"></circle><circle r="12" cx="445" cy="654" fill="hsl(244, 50%, 50%)" opacity="0.76"></circle><circle r="10" cx="736" cy="24" stroke-width="2" stroke="hsl(241, 50%, 50%)" fill="none" opacity="0.30"></circle><circle r="7.5" cx="609" cy="786" stroke-width="2" stroke="hsl(233, 50%, 50%)" fill="none" opacity="0.26"></circle><circle r="4" cx="20" cy="698" stroke-width="2" stroke="hsl(221, 50%, 50%)" fill="none" opacity="0.41"></circle><circle r="13" cx="463" cy="290" fill="hsl(242, 50%, 50%)" opacity="0.43"></circle><circle r="11.5" cx="761" cy="138" stroke-width="2" stroke="hsl(238, 50%, 50%)" fill="none" opacity="0.68"></circle><circle r="5" cx="61" cy="641" stroke-width="2" stroke="hsl(222, 50%, 50%)" fill="none" opacity="0.96"></circle><circle r="13" cx="585" cy="517" stroke-width="2" stroke="hsl(234, 50%, 50%)" fill="none" opacity="0.20"></circle><circle r="12.5" cx="502" cy="179" stroke-width="2" stroke="hsl(239, 50%, 50%)" fill="none" opacity="0.83"></circle><circle r="7.5" cx="266" cy="449" stroke-width="2" stroke="hsl(235, 50%, 50%)" fill="none" opacity="0.12"></circle><circle r="9.5" cx="513" cy="241" fill="hsl(238, 50%, 50%)" opacity="0.42"></circle><circle r="5.5" cx="62" cy="384" fill="hsl(222, 50%, 50%)" opacity="0.28"></circle><circle r="6" cx="101" cy="500" stroke-width="2" stroke="hsl(223, 50%, 50%)" fill="none" opacity="0.20"></circle><circle r="5.5" cx="247" cy="12" fill="hsl(229, 50%, 50%)" opacity="0.73"></circle><circle r="14.5" cx="460" cy="485" stroke-width="2" stroke="hsl(243, 50%, 50%)" fill="none" opacity="0.78"></circle><circle r="10.5" cx="556" cy="702" stroke-width="2" stroke="hsl(235, 50%, 50%)" fill="none" opacity="0.41"></circle><circle r="10.5" cx="625" cy="318" stroke-width="2" stroke="hsl(232, 50%, 50%)" fill="none" opacity="0.42"></circle><circle r="11.5" cx="415" cy="274" fill="hsl(244, 50%, 50%)" opacity="0.86"></circle><circle r="11" cx="459" cy="210" fill="hsl(243, 50%, 50%)" opacity="0.10"></circle><circle r="10.5" cx="610" cy="18" stroke-width="2" stroke="hsl(243, 50%, 50%)" fill="none" opacity="0.26"></circle><circle r="9" cx="476" cy="601" fill="hsl(242, 50%, 50%)" opacity="0.74"></circle><circle r="9.5" cx="323" cy="363" fill="hsl(240, 50%, 50%)" opacity="0.80"></circle><circle r="13.5" cx="404" cy="749" fill="hsl(244, 50%, 50%)" opacity="0.95"></circle><circle r="6" cx="17" cy="76" stroke-width="2" stroke="hsl(223, 50%, 50%)" fill="none" opacity="0.19"></circle><circle r="6.5" cx="455" cy="678" stroke-width="2" stroke="hsl(243, 50%, 50%)" fill="none" opacity="0.68"></circle><circle r="6.5" cx="773" cy="279" stroke-width="2" stroke="hsl(232, 50%, 50%)" fill="none" opacity="0.28"></circle><circle r="7.5" cx="295" cy="213" fill="hsl(238, 50%, 50%)" opacity="0.64"></circle><circle r="6.5" cx="557" cy="82" fill="hsl(241, 50%, 50%)" opacity="0.29"></circle><circle r="6.5" cx="44" cy="53" fill="hsl(225, 50%, 50%)" opacity="0.87"></circle><circle r="9" cx="510" cy="389" stroke-width="2" stroke="hsl(240, 50%, 50%)" fill="none" opacity="0.49"></circle><circle r="4.5" cx="50" cy="680" stroke-width="2" stroke="hsl(222, 50%, 50%)" fill="none" opacity="0.92"></circle><circle r="9" cx="781" cy="218" fill="hsl(232, 50%, 50%)" opacity="0.30"></circle><circle r="13" cx="536" cy="437" stroke-width="2" stroke="hsl(237, 50%, 50%)" fill="none" opacity="0.56"></circle><circle r="8" cx="558" cy="634" fill="hsl(235, 50%, 50%)" opacity="0.55"></circle><circle r="8" cx="700" cy="422" stroke-width="2" stroke="hsl(232, 50%, 50%)" fill="none" opacity="0.82"></circle><circle r="8.5" cx="259" cy="664" fill="hsl(234, 50%, 50%)" opacity="0.58"></circle><circle r="10.5" cx="478" cy="572" stroke-width="2" stroke="hsl(242, 50%, 50%)" fill="none" opacity="0.21"></circle><circle r="8.5" cx="720" cy="758" fill="hsl(232, 50%, 50%)" opacity="0.37"></circle><circle r="7.5" cx="476" cy="664" fill="hsl(242, 50%, 50%)" opacity="0.61"></circle><circle r="10" cx="577" cy="408" fill="hsl(234, 50%, 50%)" opacity="0.49"></circle><circle r="3.5" cx="41" cy="581" fill="hsl(222, 50%, 50%)" opacity="0.97"></circle><circle r="7.5" cx="769" cy="611" fill="hsl(232, 50%, 50%)" opacity="0.67"></circle><circle r="7" cx="190" cy="206" stroke-width="2" stroke="hsl(228, 50%, 50%)" fill="none" opacity="0.61"></circle><circle r="11" cx="264" cy="726" stroke-width="2" stroke="hsl(235, 50%, 50%)" fill="none" opacity="0.61"></circle><circle r="10.5" cx="119" cy="58" stroke-width="2" stroke="hsl(226, 50%, 50%)" fill="none" opacity="0.18"></circle><circle r="5.5" cx="16" cy="200" fill="hsl(221, 50%, 50%)" opacity="0.39"></circle><circle r="8.5" cx="338" cy="16" stroke-width="2" stroke="hsl(233, 50%, 50%)" fill="none" opacity="0.37"></circle><circle r="8" cx="608" cy="211" stroke-width="2" stroke="hsl(233, 50%, 50%)" fill="none" opacity="0.69"></circle><circle r="10.5" cx="497" cy="622" fill="hsl(241, 50%, 50%)" opacity="0.41"></circle><circle r="9.5" cx="181" cy="353" stroke-width="2" stroke="hsl(228, 50%, 50%)" fill="none" opacity="0.76"></circle><circle r="5.5" cx="26" cy="725" stroke-width="2" stroke="hsl(222, 50%, 50%)" fill="none" opacity="0.75"></circle><circle r="6" cx="55" cy="758" fill="hsl(222, 50%, 50%)" opacity="0.38"></circle><circle r="7.5" cx="700" cy="298" stroke-width="2" stroke="hsl(232, 50%, 50%)" fill="none" opacity="0.51"></circle><circle r="6.5" cx="580" cy="205" stroke-width="2" stroke="hsl(234, 50%, 50%)" fill="none" opacity="0.32"></circle><circle r="8" cx="232" cy="37" fill="hsl(229, 50%, 50%)" opacity="0.85"></circle><circle r="9.5" cx="527" cy="711" stroke-width="2" stroke="hsl(237, 50%, 50%)" fill="none" opacity="0.59"></circle><circle r="3.5" cx="71" cy="610" fill="hsl(222, 50%, 50%)" opacity="0.99"></circle><circle r="9" cx="592" cy="50" fill="hsl(242, 50%, 50%)" opacity="0.76"></circle><circle r="12.5" cx="410" cy="644" stroke-width="2" stroke="hsl(244, 50%, 50%)" fill="none" opacity="0.11"></circle><circle r="5.5" cx="90" cy="304" stroke-width="2" stroke="hsl(223, 50%, 50%)" fill="none" opacity="0.34"></circle><circle r="8.5" cx="780" cy="742" stroke-width="2" stroke="hsl(232, 50%, 50%)" fill="none" opacity="0.54"></circle><circle r="9" cx="290" cy="474" fill="hsl(238, 50%, 50%)" opacity="0.69"></circle><circle r="5" cx="17" cy="168" stroke-width="2" stroke="hsl(221, 50%, 50%)" fill="none" opacity="0.88"></circle><circle r="11.5" cx="445" cy="391" fill="hsl(244, 50%, 50%)" opacity="0.90"></circle><circle r="7.5" cx="291" cy="748" stroke-width="2" stroke="hsl(238, 50%, 50%)" fill="none" opacity="0.90"></circle><circle r="9.5" cx="235" cy="549" stroke-width="2" stroke="hsl(232, 50%, 50%)" fill="none" opacity="0.35"></circle><circle r="10" cx="340" cy="263" fill="hsl(242, 50%, 50%)" opacity="0.74"></circle><circle r="7.5" cx="647" cy="414" stroke-width="2" stroke="hsl(232, 50%, 50%)" fill="none" opacity="0.30"></circle><circle r="9.5" cx="178" cy="720" fill="hsl(228, 50%, 50%)" opacity="0.30"></circle><circle r="8" cx="651" cy="279" fill="hsl(232, 50%, 50%)" opacity="0.39"></circle><circle r="8" cx="552" cy="278" stroke-width="2" stroke="hsl(235, 50%, 50%)" fill="none" opacity="0.53"></circle><circle r="10" cx="259" cy="497" fill="hsl(234, 50%, 50%)" opacity="0.83"></circle><circle r="6.5" cx="65" cy="708" fill="hsl(222, 50%, 50%)" opacity="0.96"></circle><circle r="8.5" cx="562" cy="368" stroke-width="2" stroke="hsl(235, 50%, 50%)" fill="none" opacity="0.32"></circle><circle r="13.5" cx="431" cy="517" stroke-width="2" stroke="hsl(244, 50%, 50%)" fill="none" opacity="0.22"></circle><circle r="5.5" cx="651" cy="604" fill="hsl(232, 50%, 50%)" opacity="0.29"></circle><circle r="4.5" cx="45" cy="341" stroke-width="2" stroke="hsl(222, 50%, 50%)" fill="none" opacity="0.73"></circle><circle r="12" cx="482" cy="17" fill="hsl(243, 50%, 50%)" opacity="0.54"></circle><circle r="5.5" cx="647" cy="573" stroke-width="2" stroke="hsl(232, 50%, 50%)" fill="none" opacity="0.30"></circle><circle r="6" cx="558" cy="582" fill="hsl(235, 50%, 50%)" opacity="0.73"></circle><circle r="6" cx="198" cy="626" fill="hsl(228, 50%, 50%)" opacity="0.78"></circle><circle r="9.5" cx="306" cy="326" stroke-width="2" stroke="hsl(239, 50%, 50%)" fill="none" opacity="0.53"></circle><circle r="7" cx="758" cy="424" fill="hsl(232, 50%, 50%)" opacity="0.45"></circle><circle r="7.5" cx="527" cy="370" stroke-width="2" stroke="hsl(237, 50%, 50%)" fill="none" opacity="0.83"></circle><circle r="13.5" cx="565" cy="473" stroke-width="2" stroke="hsl(235, 50%, 50%)" fill="none" opacity="0.24"></circle><circle r="5" cx="139" cy="648" stroke-width="2" stroke="hsl(225, 50%, 50%)" fill="none" opacity="0.57"></circle><circle r="7" cx="549" cy="403" stroke-width="2" stroke="hsl(236, 50%, 50%)" fill="none" opacity="0.57"></circle><circle r="5" cx="100" cy="203" stroke-width="2" stroke="hsl(223, 50%, 50%)" fill="none" opacity="0.63"></circle><circle r="4" cx="129" cy="790" fill="hsl(225, 50%, 50%)" opacity="0.78"></circle><circle r="5" cx="64" cy="323" stroke-width="2" stroke="hsl(222, 50%, 50%)" fill="none" opacity="0.50"></circle><circle r="12" cx="364" cy="303" stroke-width="2" stroke="hsl(243, 50%, 50%)" fill="none" opacity="0.72"></circle><circle r="6.5" cx="678" cy="254" fill="hsl(232, 50%, 50%)" opacity="0.43"></circle><circle r="7" cx="206" cy="486" fill="hsl(230, 50%, 50%)" opacity="0.53"></circle><circle r="10" cx="590" cy="561" fill="hsl(233, 50%, 50%)" opacity="0.82"></circle><circle r="9" cx="521" cy="759" fill="hsl(238, 50%, 50%)" opacity="0.68"></circle><circle r="5.5" cx="46" cy="177" fill="hsl(221, 50%, 50%)" opacity="0.23"></circle><circle r="15" cx="372" cy="572" stroke-width="2" stroke="hsl(243, 50%, 50%)" fill="none" opacity="0.79"></circle><circle r="12" cx="505" cy="338" stroke-width="2" stroke="hsl(240, 50%, 50%)" fill="none" opacity="0.32"></circle><circle r="6" cx="125" cy="147" fill="hsl(224, 50%, 50%)" opacity="0.91"></circle><circle r="10" cx="725" cy="210" fill="hsl(232, 50%, 50%)" opacity="0.84"></circle><circle r="8.5" cx="623" cy="497" fill="hsl(232, 50%, 50%)" opacity="0.14"></circle><circle r="6" cx="761" cy="326" fill="hsl(232, 50%, 50%)" opacity="0.69"></circle><circle r="10.5" cx="757" cy="475" stroke-width="2" stroke="hsl(232, 50%, 50%)" fill="none" opacity="0.77"></circle><circle r="10" cx="624" cy="262" stroke-width="2" stroke="hsl(232, 50%, 50%)" fill="none" opacity="0.49"></circle><circle r="8" cx="752" cy="238" fill="hsl(232, 50%, 50%)" opacity="0.22"></circle><circle r="8" cx="179" cy="601" stroke-width="2" stroke="hsl(228, 50%, 50%)" fill="none" opacity="0.52"></circle><circle r="8" cx="662" cy="12" fill="hsl(242, 50%, 50%)" opacity="0.60"></circle><circle r="9.5" cx="760" cy="188" stroke-width="2" stroke="hsl(232, 50%, 50%)" fill="none" opacity="1.00"></circle><circle r="13" cx="335" cy="518" stroke-width="2" stroke="hsl(241, 50%, 50%)" fill="none" opacity="0.24"></circle><circle r="6" cx="47" cy="93" fill="hsl(222, 50%, 50%)" opacity="0.35"></circle><circle r="5" cx="672" cy="592" fill="hsl(232, 50%, 50%)" opacity="0.44"></circle><circle r="14" cx="514" cy="510" fill="hsl(238, 50%, 50%)" opacity="0.98"></circle><circle r="5.5" cx="157" cy="578" fill="hsl(226, 50%, 50%)" opacity="0.22"></circle><circle r="5" cx="119" cy="221" fill="hsl(224, 50%, 50%)" opacity="0.23"></circle><circle r="7.5" cx="651" cy="72" stroke-width="2" stroke="hsl(240, 50%, 50%)" fill="none" opacity="0.11"></circle><circle r="3.5" cx="43" cy="627" fill="hsl(222, 50%, 50%)" opacity="0.58"></circle><circle r="11" cx="776" cy="655" fill="hsl(232, 50%, 50%)" opacity="0.32"></circle><circle r="8" cx="593" cy="286" fill="hsl(233, 50%, 50%)" opacity="0.44"></circle><circle r="14.5" cx="472" cy="366" fill="hsl(242, 50%, 50%)" opacity="0.15"></circle><circle r="6" cx="51" cy="493" stroke-width="2" stroke="hsl(222, 50%, 50%)" fill="none" opacity="0.58"></circle><circle r="3.5" cx="49" cy="528" fill="hsl(222, 50%, 50%)" opacity="0.40"></circle><circle r="7" cx="310" cy="764" stroke-width="2" stroke="hsl(239, 50%, 50%)" fill="none" opacity="0.19"></circle><circle r="7.5" cx="230" cy="451" stroke-width="2" stroke="hsl(232, 50%, 50%)" fill="none" opacity="0.35"></circle><circle r="5" cx="59" cy="247" stroke-width="2" stroke="hsl(222, 50%, 50%)" fill="none" opacity="0.56"></circle><circle r="5" cx="25" cy="263" stroke-width="2" stroke="hsl(221, 50%, 50%)" fill="none" opacity="0.24"></circle><circle r="8" cx="583" cy="255" stroke-width="2" stroke="hsl(234, 50%, 50%)" fill="none" opacity="0.31"></circle><circle r="5.5" cx="14" cy="637" stroke-width="2" stroke="hsl(221, 50%, 50%)" fill="none" opacity="0.52"></circle><circle r="9.5" cx="775" cy="777" stroke-width="2" stroke="hsl(232, 50%, 50%)" fill="none" opacity="0.27"></circle><circle r="10.5" cx="440" cy="177" fill="hsl(243, 50%, 50%)" opacity="0.71"></circle><circle r="12" cx="274" cy="612" stroke-width="2" stroke="hsl(235, 50%, 50%)" fill="none" opacity="0.77"></circle><circle r="9.5" cx="207" cy="151" fill="hsl(230, 50%, 50%)" opacity="0.24"></circle><circle r="11" cx="677" cy="535" fill="hsl(232, 50%, 50%)" opacity="0.66"></circle><circle r="10" cx="287" cy="680" fill="hsl(237, 50%, 50%)" opacity="0.35"></circle><circle r="8" cx="707" cy="456" stroke-width="2" stroke="hsl(232, 50%, 50%)" fill="none" opacity="0.95"></circle><circle r="5.5" cx="718" cy="405" stroke-width="2" stroke="hsl(232, 50%, 50%)" fill="none" opacity="0.23"></circle><circle r="7" cx="702" cy="11" stroke-width="2" stroke="hsl(241, 50%, 50%)" fill="none" opacity="0.11"></circle><circle r="9.5" cx="326" cy="212" stroke-width="2" stroke="hsl(241, 50%, 50%)" fill="none" opacity="0.85"></circle><circle r="11" cx="404" cy="243" fill="hsl(244, 50%, 50%)" opacity="0.34"></circle><circle r="10" cx="332" cy="444" fill="hsl(241, 50%, 50%)" opacity="0.24"></circle><circle r="11" cx="267" cy="162" fill="hsl(235, 50%, 50%)" opacity="0.34"></circle><circle r="12" cx="509" cy="282" fill="hsl(240, 50%, 50%)" opacity="0.71"></circle><circle r="3.5" cx="37" cy="607" fill="hsl(222, 50%, 50%)" opacity="0.37"></circle><circle r="7" cx="361" cy="731" fill="hsl(243, 50%, 50%)" opacity="0.49"></circle><circle r="8.5" cx="567" cy="663" fill="hsl(235, 50%, 50%)" opacity="0.80"></circle><circle r="7.5" cx="162" cy="156" fill="hsl(226, 50%, 50%)" opacity="0.81"></circle><circle r="6" cx="310" cy="133" stroke-width="2" stroke="hsl(238, 50%, 50%)" fill="none" opacity="0.72"></circle><circle r="7.5" cx="552" cy="204" stroke-width="2" stroke="hsl(235, 50%, 50%)" fill="none" opacity="0.79"></circle><circle r="13.5" cx="603" cy="133" stroke-width="2" stroke="hsl(237, 50%, 50%)" fill="none" opacity="0.96"></circle><circle r="9.5" cx="369" cy="709" fill="hsl(243, 50%, 50%)" opacity="0.94"></circle><circle r="8" cx="324" cy="417" fill="hsl(240, 50%, 50%)" opacity="0.82"></circle><circle r="9" cx="665" cy="374" stroke-width="2" stroke="hsl(232, 50%, 50%)" fill="none" opacity="0.12"></circle><circle r="7.5" cx="532" cy="583" fill="hsl(237, 50%, 50%)" opacity="0.62"></circle><circle r="13.5" cx="573" cy="20" fill="hsl(244, 50%, 50%)" opacity="0.37"></circle><circle r="6" cx="166" cy="186" stroke-width="2" stroke="hsl(227, 50%, 50%)" fill="none" opacity="0.25"></circle><circle r="13.5" cx="372" cy="267" fill="hsl(243, 50%, 50%)" opacity="0.73"></circle><circle r="4.5" cx="792" cy="617" stroke-width="2" stroke="hsl(232, 50%, 50%)" fill="none" opacity="0.18"></circle><circle r="10" cx="351" cy="61" stroke-width="2" stroke="hsl(237, 50%, 50%)" fill="none" opacity="0.39"></circle><circle r="10" cx="500" cy="656" fill="hsl(241, 50%, 50%)" opacity="0.77"></circle><circle r="5" cx="565" cy="181" fill="hsl(235, 50%, 50%)" opacity="0.31"></circle><circle r="7" cx="538" cy="788" stroke-width="2" stroke="hsl(236, 50%, 50%)" fill="none" opacity="0.67"></circle><circle r="13" cx="701" cy="125" stroke-width="2" stroke="hsl(238, 50%, 50%)" fill="none" opacity="0.54"></circle><circle r="5.5" cx="39" cy="224" stroke-width="2" stroke="hsl(222, 50%, 50%)" fill="none" opacity="0.17"></circle><circle r="6" cx="684" cy="30" stroke-width="2" stroke="hsl(241, 50%, 50%)" fill="none" opacity="0.37"></circle><circle r="7.5" cx="753" cy="540" stroke-width="2" stroke="hsl(232, 50%, 50%)" fill="none" opacity="0.88"></circle><circle r="5.5" cx="773" cy="302" stroke-width="2" stroke="hsl(232, 50%, 50%)" fill="none" opacity="0.27"></circle><circle r="8.5" cx="588" cy="317" stroke-width="2" stroke="hsl(233, 50%, 50%)" fill="none" opacity="0.69"></circle><circle r="10" cx="307" cy="599" fill="hsl(239, 50%, 50%)" opacity="0.83"></circle><circle r="12" cx="725" cy="716" fill="hsl(232, 50%, 50%)" opacity="0.87"></circle><circle r="7" cx="613" cy="421" fill="hsl(232, 50%, 50%)" opacity="0.89"></circle><circle r="9.5" cx="295" cy="80" fill="hsl(234, 50%, 50%)" opacity="0.93"></circle><circle r="6" cx="645" cy="444" stroke-width="2" stroke="hsl(232, 50%, 50%)" fill="none" opacity="0.64"></circle><circle r="8.5" cx="161" cy="81" fill="hsl(227, 50%, 50%)" opacity="0.34"></circle><circle r="7.5" cx="511" cy="594" stroke-width="2" stroke="hsl(240, 50%, 50%)" fill="none" opacity="0.38"></circle><circle r="8" cx="168" cy="475" fill="hsl(227, 50%, 50%)" opacity="0.53"></circle><circle r="9.5" cx="347" cy="147" fill="hsl(241, 50%, 50%)" opacity="0.97"></circle><circle r="7.5" cx="91" cy="463" stroke-width="2" stroke="hsl(223, 50%, 50%)" fill="none" opacity="0.39"></circle><circle r="6" cx="41" cy="133" stroke-width="2" stroke="hsl(221, 50%, 50%)" fill="none" opacity="0.39"></circle><circle r="10.5" cx="354" cy="784" fill="hsl(243, 50%, 50%)" opacity="0.38"></circle><circle r="8.5" cx="544" cy="250" fill="hsl(236, 50%, 50%)" opacity="0.38"></circle><circle r="10.5" cx="648" cy="755" fill="hsl(232, 50%, 50%)" opacity="0.18"></circle><circle r="9" cx="635" cy="226" fill="hsl(232, 50%, 50%)" opacity="0.19"></circle><circle r="11.5" cx="406" cy="440" fill="hsl(244, 50%, 50%)" opacity="0.44"></circle><circle r="5" cx="14" cy="595" stroke-width="2" stroke="hsl(221, 50%, 50%)" fill="none" opacity="0.50"></circle><circle r="13" cx="481" cy="781" fill="hsl(242, 50%, 50%)" opacity="0.82"></circle><circle r="5.5" cx="145" cy="673" fill="hsl(225, 50%, 50%)" opacity="0.95"></circle><circle r="7.5" cx="83" cy="90" stroke-width="2" stroke="hsl(223, 50%, 50%)" fill="none" opacity="0.65"></circle><circle r="8.5" cx="253" cy="766" stroke-width="2" stroke="hsl(234, 50%, 50%)" fill="none" opacity="0.75"></circle><circle r="6.5" cx="266" cy="90" stroke-width="2" stroke="hsl(233, 50%, 50%)" fill="none" opacity="0.38"></circle><circle r="6" cx="42" cy="290" fill="hsl(222, 50%, 50%)" opacity="0.51"></circle><circle r="5.5" cx="188" cy="663" stroke-width="2" stroke="hsl(228, 50%, 50%)" fill="none" opacity="0.23"></circle><circle r="12.5" cx="279" cy="355" stroke-width="2" stroke="hsl(237, 50%, 50%)" fill="none" opacity="0.71"></circle><circle r="11" cx="538" cy="173" stroke-width="2" stroke="hsl(237, 50%, 50%)" fill="none" opacity="0.49"></circle><circle r="9.5" cx="364" cy="757" fill="hsl(243, 50%, 50%)" opacity="0.54"></circle><circle r="7" cx="125" cy="408" fill="hsl(225, 50%, 50%)" opacity="0.63"></circle><circle r="4.5" cx="66" cy="358" fill="hsl(222, 50%, 50%)" opacity="0.34"></circle><circle r="13" cx="776" cy="700" stroke-width="2" stroke="hsl(232, 50%, 50%)" fill="none" opacity="0.90"></circle><circle r="6" cx="676" cy="287" fill="hsl(232, 50%, 50%)" opacity="0.26"></circle><circle r="7.5" cx="704" cy="347" stroke-width="2" stroke="hsl(232, 50%, 50%)" fill="none" opacity="1.00"></circle><circle r="7" cx="226" cy="700" fill="hsl(232, 50%, 50%)" opacity="0.14"></circle><circle r="6" cx="147" cy="214" stroke-width="2" stroke="hsl(225, 50%, 50%)" fill="none" opacity="0.67"></circle><circle r="7" cx="143" cy="113" stroke-width="2" stroke="hsl(225, 50%, 50%)" fill="none" opacity="0.37"></circle><circle r="9.5" cx="586" cy="170" stroke-width="2" stroke="hsl(235, 50%, 50%)" fill="none" opacity="0.26"></circle><circle r="11.5" cx="458" cy="428" fill="hsl(243, 50%, 50%)" opacity="0.59"></circle><circle r="11.5" cx="403" cy="710" fill="hsl(244, 50%, 50%)" opacity="0.42"></circle><circle r="12" cx="668" cy="709" stroke-width="2" stroke="hsl(232, 50%, 50%)" fill="none" opacity="0.86"></circle><circle r="7" cx="303" cy="414" stroke-width="2" stroke="hsl(239, 50%, 50%)" fill="none" opacity="0.83"></circle><circle r="8.5" cx="636" cy="694" fill="hsl(232, 50%, 50%)" opacity="0.92"></circle><circle r="7.5" cx="194" cy="768" stroke-width="2" stroke="hsl(228, 50%, 50%)" fill="none" opacity="0.30"></circle><circle r="12.5" cx="492" cy="416" stroke-width="2" stroke="hsl(241, 50%, 50%)" fill="none" opacity="0.90"></circle><circle r="12" cx="318" cy="178" stroke-width="2" stroke="hsl(240, 50%, 50%)" fill="none" opacity="0.96"></circle><circle r="7.5" cx="131" cy="480" stroke-width="2" stroke="hsl(225, 50%, 50%)" fill="none" opacity="0.82"></circle><circle r="12.5" cx="467" cy="126" fill="hsl(242, 50%, 50%)" opacity="0.38"></circle><circle r="11.5" cx="558" cy="139" fill="hsl(237, 50%, 50%)" opacity="0.17"></circle><circle r="5.5" cx="278" cy="14" stroke-width="2" stroke="hsl(230, 50%, 50%)" fill="none" opacity="0.53"></circle><circle r="12.5" cx="438" cy="782" stroke-width="2" stroke="hsl(244, 50%, 50%)" fill="none" opacity="0.47"></circle><circle r="14.5" cx="326" cy="558" fill="hsl(241, 50%, 50%)" opacity="0.50"></circle><circle r="5" cx="15" cy="507" fill="hsl(221, 50%, 50%)" opacity="0.63"></circle><circle r="9" cx="311" cy="267" stroke-width="2" stroke="hsl(239, 50%, 50%)" fill="none" opacity="0.98"></circle><circle r="6.5" cx="56" cy="459" fill="hsl(222, 50%, 50%)" opacity="0.95"></circle><circle r="13.5" cx="421" cy="309" stroke-width="2" stroke="hsl(244, 50%, 50%)" fill="none" opacity="0.55"></circle><circle r="5" cx="128" cy="579" stroke-width="2" stroke="hsl(225, 50%, 50%)" fill="none" opacity="0.19"></circle><circle r="7.5" cx="37" cy="19" stroke-width="2" stroke="hsl(229, 50%, 50%)" fill="none" opacity="0.21"></circle><circle r="7.5" cx="713" cy="530" stroke-width="2" stroke="hsl(232, 50%, 50%)" fill="none" opacity="0.84"></circle><circle r="14.5" cx="466" cy="535" fill="hsl(242, 50%, 50%)" opacity="0.12"></circle></svg>