<svg xmlns="http://www.w3.org/2000/svg" version="1.1" xmlns:xlink="http://www.w3.org/1999/xlink" xmlns:svgjs="http://svgjs.dev/svgjs" viewBox="0 0 800 800"><defs><linearGradient x1="50%" y1="0%" x2="50%" y2="100%" id="vvvortex-grad"><stop stop-color="hsl(162, 100%, 58%)" stop-opacity="1" offset="0%"></stop><stop stop-color="hsl(270, 73%, 53%)" stop-opacity="1" offset="100%"></stop></linearGradient></defs><g stroke="url(#vvvortex-grad)" fill="none" stroke-linecap="round"><circle r="385" cx="400" cy="400" stroke-width="10" stroke-dasharray="47 53" stroke-dashoffset="25" transform="rotate(339, 400, 400)"></circle><circle r="367.5" cx="400" cy="400" stroke-width="10" stroke-dasharray="33 24" stroke-dashoffset="25" transform="rotate(52, 400, 400)"></circle><circle r="350" cx="400" cy="400" stroke-width="9" stroke-dasharray="16 35" stroke-dashoffset="25" transform="rotate(325, 400, 400)"></circle><circle r="332.5" cx="400" cy="400" stroke-width="9" stroke-dasharray="15 39" stroke-dashoffset="25" transform="rotate(131, 400, 400)"></circle><circle r="315" cx="400" cy="400" stroke-width="9" stroke-dasharray="22 24" stroke-dashoffset="25" transform="rotate(226, 400, 400)"></circle><circle r="297.5" cx="400" cy="400" stroke-width="9" stroke-dasharray="12 32" stroke-dashoffset="25" transform="rotate(169, 400, 400)"></circle><circle r="280" cx="400" cy="400" stroke-width="8" stroke-dasharray="47 13" stroke-dashoffset="25" transform="rotate(109, 400, 400)"></circle><circle r="262.5" cx="400" cy="400" stroke-width="8" stroke-dasharray="49 21" stroke-dashoffset="25" transform="rotate(86, 400, 400)"></circle><circle r="245" cx="400" cy="400" stroke-width="8" stroke-dasharray="42 51" stroke-dashoffset="25" transform="rotate(270, 400, 400)"></circle><circle r="227.5" cx="400" cy="400" stroke-width="7" stroke-dasharray="42 23" stroke-dashoffset="25" transform="rotate(358, 400, 400)"></circle><circle r="210" cx="400" cy="400" stroke-width="7" stroke-dasharray="35 13" stroke-dashoffset="25" transform="rotate(280, 400, 400)"></circle><circle r="192.5" cx="400" cy="400" stroke-width="7" stroke-dasharray="34 31" stroke-dashoffset="25" transform="rotate(43, 400, 400)"></circle><circle r="175" cx="400" cy="400" stroke-width="7" stroke-dasharray="18 24" stroke-dashoffset="25" transform="rotate(187, 400, 400)"></circle><circle r="157.5" cx="400" cy="400" stroke-width="6" stroke-dasharray="44 16" stroke-dashoffset="25" transform="rotate(100, 400, 400)"></circle><circle r="140" cx="400" cy="400" stroke-width="6" stroke-dasharray="26 26" stroke-dashoffset="25" transform="rotate(6, 400, 400)"></circle><circle r="122.5" cx="400" cy="400" stroke-width="6" stroke-dasharray="29 52" stroke-dashoffset="25" transform="rotate(135, 400, 400)"></circle><circle r="105" cx="400" cy="400" stroke-width="5" stroke-dasharray="44 49" stroke-dashoffset="25" transform="rotate(234, 400, 400)"></circle><circle r="87.5" cx="400" cy="400" stroke-width="5" stroke-dasharray="40 30" stroke-dashoffset="25" transform="rotate(146, 400, 400)"></circle><circle r="70" cx="400" cy="400" stroke-width="5" stroke-dasharray="37 44" stroke-dashoffset="25" transform="rotate(299, 400, 400)"></circle><circle r="52.5" cx="400" cy="400" stroke-width="5" stroke-dasharray="15 42" stroke-dashoffset="25" transform="rotate(323, 400, 400)"></circle><circle r="35" cx="400" cy="400" stroke-width="4" stroke-dasharray="20 54" stroke-dashoffset="25" transform="rotate(272, 400, 400)"></circle><circle r="17.5" cx="400" cy="400" stroke-width="4" stroke-dasharray="44 49" stroke-dashoffset="25" transform="rotate(141, 400, 400)"></circle></g></svg>