<svg xmlns="http://www.w3.org/2000/svg" version="1.1" xmlns:xlink="http://www.w3.org/1999/xlink" xmlns:svgjs="http://svgjs.dev/svgjs" viewBox="0 0 800 800" opacity="0.95"><defs><linearGradient x1="50%" y1="0%" x2="50%" y2="100%" id="uundulate-grad"><stop stop-color="hsl(206, 75%, 49%)" stop-opacity="1" offset="45%"></stop><stop stop-color="hsl(331, 90%, 56%)" stop-opacity="1" offset="100%"></stop></linearGradient></defs><g stroke-width="3" stroke="url(#uundulate-grad)" fill="none"><path d="M662.7442910922973 79.77324470642895C738.7010813360566 217.27163634717454 730.1793942861917 592.9450555373166 648.0659775267153 726.8578199625604C565.9525607672388 860.7705843878041 385.88455557125496 792.6542980925469 268.5998906468087 722.5545139475987C151.3152257223624 652.4547298026505 82.00094136648596 526.9807256211036 85.09958588937405 390.37885606680857C88.19823041226215 253.77698651251353 163.13073743939526 131.57504245372684 283.47338435667064 66.86554008698141C403.816031273946 2.156037720235986 586.787500848538 -57.725146934316626 662.7442910922973 79.77324470642895C738.7010813360566 217.27163634717454 730.1793942861917 592.9450555373166 648.0659775267153 726.8578199625604 "></path><path d="M650.2326552767042 95.02211020450449C722.572455508856 225.97295938616696 714.4565630804133 583.7571681386833 636.253309023769 711.293134257963C558.0500549671247 838.8291003772429 386.5567166852354 773.956446762712 274.8570358048104 707.1947475770471C163.15735492438534 640.4330483913822 97.14375077593155 520.9339967899089 100.09484079772972 390.8369781667709C103.04593081952794 260.7399595436327 174.41022322632136 144.35715567812156 289.02226790944076 82.72905818598304C403.63431259256026 21.100960693844513 577.8928550445526 -35.92873897715799 650.2326552767042 95.02211020450449C722.572455508856 225.97295938616696 714.4565630804133 583.7571681386833 636.253309023769 711.293134257963 "></path><path d="M637.7209889435331 110.27097570258007C706.4437991640773 234.6742824251594 698.7337013570566 574.56928074005 624.4406100032446 695.7284485533658C550.1475186494326 816.8876163666814 387.2288472816376 755.2585954328774 281.1141504452339 691.8349812064955C174.9994536088301 628.4113669801138 112.28652966779907 514.8872679587142 115.09006518850731 391.29510026673313C117.8936007092156 267.7029325747519 185.68967849566934 157.13926890251622 294.57112094463287 98.59257628498466C403.4525633935963 40.0458836674531 568.998178722989 -14.132331019999299 637.7209889435331 110.27097570258007C706.4437991640773 234.6742824251594 698.7337013570566 574.56928074005 624.4406100032446 695.7284485533658 "></path><path d="M625.2093531279401 125.51993275338998C690.3151733368767 243.3756970168862 683.0108701512783 565.3814848941508 612.6279415002983 680.1638544015026C542.2450128493185 794.9462239088543 387.9010083956181 736.5608356557768 287.3712956032356 676.4753063886783C186.84158281085303 616.3897771215799 127.42933907724466 508.840630680254 130.08532009686303 391.75331391942973C132.7413011164814 274.66599715860536 196.9691642825955 169.92147367964532 300.120004497403 114.45618593672066C403.2708447122104 58.990898193796 560.1035329190036 7.664168489893768 625.2093531279401 125.51993275338998C690.3151733368767 243.3756970168862 683.0108701512783 565.3814848941508 612.6279415002983 680.1638544015026 "></path><path d="M612.6977478299252 140.7688287690437C674.1865780272542 252.07705057345675 667.2880694630778 556.1936280130956 600.8153035149302 664.5991992144834C534.3425375667825 773.004770415871 388.57320002717665 717.86301484352 293.62847127881537 661.1155705357048C198.68374253045408 604.3681262278897 142.57217900426838 502.79393236663736 145.08060552279682 392.21146653696997C147.5890320413253 281.6290007073027 208.24868058709973 182.7036174216181 305.66891856775123 130.3197345533004C403.0891565484028 77.93585168498271 551.2089176325962 29.460606964630585 612.6977478299252 140.7688287690437C674.1865780272542 252.07705057345675 667.2880694630778 556.1936280130956 600.8153035149302 664.5991992144834 "></path><path d="M600.1861120143321 156.0176637495411C658.0579522000535 260.77834309487116 651.5652382572994 547.0057100968842 589.002635011984 649.034482992308C526.4400317666685 751.0632558877319 389.2453611411571 699.1651329961072 299.88561643681703 645.7557736475752C210.52587173247701 592.3464142990432 157.71498841371402 496.7471730178647 160.07586043115253 392.6695581193542C162.4367324485911 288.59194322084375 219.5281663740259 195.4857001284347 311.21780212052136 146.1832221347239C402.90743786701694 96.88074414101311 542.3142718286108 51.25698440421115 600.1861120143321 156.0176637495411C658.0579522000535 260.77834309487116 651.5652382572994 547.0057100968842 589.002635011984 649.034482992308 "></path><path d="M587.6744761987391 171.26659028277294C641.929326372853 269.4797271690197 635.8424070515209 537.8178837334069 577.1899665090377 633.4698583228668C518.5375259665545 729.1218329123266 389.91752225513744 680.4673427014285 306.1427615948187 630.3960683121799C222.36800093449995 580.3247939229311 172.85779782315961 490.70050522182623 175.07111533950825 393.12774125447265C177.2844328558569 295.5549772871191 230.807652160952 208.26787438798567 316.76668567329153 162.04680126888178C402.7257191856311 115.82572814977794 533.4196260246254 73.05345339652604 587.6744761987391 171.26659028277294C641.929326372853 269.4797271690197 635.8424070515209 537.8178837334069 577.1899665090377 633.4698583228668 "></path><path d="M575.1628403831462 186.5154862984266C625.8007005456523 278.1810807255904 620.1195758457424 528.6300268523516 565.3772980060915 617.9052031358476C510.6350201664404 707.1803794193434 390.5896833691179 661.7695218891719 312.39990675282036 615.0363324592064C234.21013013652288 568.3031430292408 188.0006072326052 484.6538069082096 190.06637024786397 393.585893872013C192.13213326312268 302.5179808358164 242.0871379478781 221.05001812995852 322.3155692260617 177.91034988546153C402.54400050424533 134.7706816409646 524.5249802206399 94.84989187126286 575.1628403831462 186.5154862984266C625.8007005456523 278.1810807255904 620.1195758457424 528.6300268523516 565.3772980060915 617.9052031358476 "></path><path d="M562.6512045675531 201.7643670552912C609.6720747184518 286.88241902337177 604.3967446399639 519.4421547125074 553.5646295031452 602.3405326900393C502.7325143663263 685.2389106675711 391.26184448309834 643.0716858181261 318.657051910822 599.6765813474439C246.05225933854575 556.2814768767616 203.14341664205085 478.60709333580405 205.06162515621963 394.0440312307643C206.97983367038847 309.4809691257245 253.3666237348042 233.8321466131423 327.86445277883183 193.77388324325227C402.3622818228595 153.71561987336224 515.6303344166545 116.64631508721061 562.6512045675531 201.7643670552912C609.6720747184518 286.88241902337177 604.3967446399639 519.4421547125074 553.5646295031452 602.3405326900393 "></path><path d="M550.1395992695382 217.0132630709449C593.5434794088292 295.5837725799424 588.6739439517636 510.25429783145216 541.751991517777 586.77587750302C494.83003908379044 663.2974571745879 391.9340361146569 624.3738650058694 324.9142275864018 584.3168454944704C257.8944190581468 544.2598259830716 218.28625656907457 472.56039502218755 220.05691058215348 394.50218384830464C221.8275645952324 316.44397267442184 264.6461400393085 246.6142903551151 333.4133668491801 209.63743185983202C402.18059365905174 172.6605733645489 506.73571913024716 138.44275356194743 550.1395992695382 217.0132630709449C593.5434794088292 295.5837725799424 588.6739439517636 510.25429783145216 541.751991517777 586.77587750302 "></path><path d="M537.6279634539452 232.26217434538762C577.4148535816287 304.285141395302 572.951112745985 501.06645620918596 529.9393230148307 571.2112375747898C486.92753328367644 641.3560189403938 392.60619722863726 605.6760594524018 331.1713727444035 568.9571249002861C269.73654826016974 532.2381903481703 233.42906597852016 466.51371196736 235.0521654905092 394.96035172463417C236.67526500249818 323.40699148190816 275.9256258262346 259.396449355877 338.96225040195026 225.50099573520083C401.998874977666 191.60554211452467 497.8410733262617 160.23920729547325 537.6279634539452 232.26217434538762C577.4148535816287 304.285141395302 572.951112745985 501.06645620918596 529.9393230148307 571.2112375747898 "></path><path d="M525.1163276383521 247.5110398434632C561.286227754428 312.9864644342944 557.2282815402066 491.87856881055257 518.1266545118845 555.6465518701924C479.0250274835623 619.4145349298324 393.2783583426177 586.9782081225669 337.4285179024052 553.5973585297345C281.5786774621927 520.2165089369021 248.5718753879658 460.46698313616537 250.04742039886486 395.4184738245964C251.52296540976397 330.3699645130273 287.2051116131607 272.1785625802717 344.5111339547204 241.36451383420246C401.81715629628013 210.5504650881332 488.9464275222763 182.03561525263194 525.1163276383521 247.5110398434632C561.286227754428 312.9864644342944 557.2282815402066 491.87856881055257 518.1266545118845 555.6465518701924 "></path><path d="M512.6046918227592 262.759966376695C545.1576019272275 321.6878485084431 541.5054503344281 482.6907424470754 506.3139860089382 540.0819272007514C471.1225216834483 597.4731119544272 393.9505194565981 568.2804178278884 343.68566306040685 538.2376531943391C293.4208066642156 508.1948885607899 263.7146847974114 454.420315340127 265.0426753072206 395.87665695971486C266.37066581702976 337.3329985793027 298.48459740008684 284.96073683982263 350.06001750749056 257.22809296836033C401.6354376148943 229.49544909689803 480.05178171829084 203.83208424494688 512.6046918227592 262.759966376695C545.1576019272275 321.6878485084431 541.5054503344281 482.6907424470754 506.3139860089382 540.0819272007514 "></path><path d="M500.09305600716607 278.00884713355964C529.0289761000267 330.38918680622464 525.7826191286497 473.5028703072312 494.501317505992 524.517256754943C463.2200158833343 575.531643202655 394.62268057057855 549.5825817568427 349.9428082184085 522.8779020825766C305.2629358662385 496.1732224083107 278.857494206857 448.3736017677214 280.0379302155763 396.33479431846615C281.21836622429555 344.29598686921094 309.76408318701294 297.7428653230064 355.6089010602607 273.091626326151C401.45371893350847 248.44038732929562 471.1571359143054 225.62850746089464 500.09305600716607 278.00884713355964C529.0289761000267 330.38918680622464 525.7826191286497 473.5028703072312 494.501317505992 524.517256754943 "></path><path d="M487.5814201915731 293.25775840800236C512.9003502728261 339.09055562158426 510.05978792287124 464.3150286849649 482.6886490030457 508.95261682671287C455.3175100832202 553.5902049684607 395.29484168455895 530.8847762033749 356.1999533764102 507.5181814883922C317.1050650682614 484.15158677340946 294.00030361630263 442.32691871289387 295.03318512393196 396.79296219479556C296.06606663156134 351.25900567669726 321.04356897393905 310.5250243237683 361.15778461303086 288.9551902015198C401.27200025212267 267.3853560792714 462.26249011031996 247.42496119442052 487.5814201915731 293.25775840800236C512.9003502728261 339.09055562158426 510.05978792287124 464.3150286849649 482.6886490030457 508.95261682671287 "></path><path d="M475.06976911719096 308.5066239060779C496.77170918683646 347.7918786605767 494.3369414583037 455.1271412863316 470.8759652413104 493.38793112211545C447.4149890243171 531.6487209578994 395.96698753975033 512.1869248735402 362.4570832756228 492.1584151178406C328.9471790114953 472.12990536214124 309.14309776695916 436.28018988169924 310.0284247734986 397.2510842947578C310.91375178003807 358.2219787078164 332.3230395020761 323.30713754816304 366.7066529070119 304.81870830052145C401.09026631194774 286.3302790528799 453.36782904754546 269.22136915157915 475.06976911719096 308.5066239060779C496.77170918683646 347.7918786605767 494.3369414583037 455.1271412863316 470.8759652413104 493.38793112211545 "></path><path d="M462.558148560387 323.7555199217316C480.6430986184249 356.49323221714724 478.6141255113142 445.9392844052763 459.06331199715316 477.82327593509626C439.5124984829921 509.7072674649162 396.6391639125198 493.48910406128346 368.7142436924135 476.79867926486725C340.7893234723073 460.10825446845104 324.2859224351938 430.2334915680827 325.0236949406434 397.7092369122982C325.7614674460929 365.18498225651365 343.6025405477913 336.08928129013583 372.25555171857116 320.6822569171012C400.908562889351 305.2752325440666 444.4731985023491 291.01780762631597 462.558148560387 323.7555199217316C480.6430986184249 356.49323221714724 478.6141255113142 445.9392844052763 459.06331199715316 477.82327593509626 "></path><path d="M450.04652800358303 339.0044311961743C464.51448805001337 365.19460103250685 462.89130956432484 436.75144278301013 447.250658752996 462.258636006866C431.61000794166716 487.76582923072203 397.31134028528925 474.7912985078159 374.9714041092043 461.43895867068284C352.63146793311927 448.0866188335499 339.4287471034285 424.18680851325524 340.0189651077881 398.1674047886276C340.6091831121478 372.14800106399997 354.8820415935065 348.87144029089774 377.80445053013034 336.54582079247007C400.7268594667542 324.22020129404234 435.5785679571527 312.81426135984185 450.04652800358303 339.0044311961743C464.51448805001337 365.19460103250685 462.89130956432484 436.75144278301013 447.250658752996 462.258636006866 "></path><path d="M437.5349074467791 354.253311953039C448.3858774816018 373.89593933028834 447.16849361733546 427.5635706431658 435.4380055088388 446.6939655610577C423.7075174003421 465.8243604789497 397.98351665805876 456.0934624367701 381.228564525995 446.0792075589203C364.47361239393126 436.0649526810706 354.5715717716632 418.1400949408496 355.0142352749329 398.6255421473789C355.4568987782026 379.11098935390817 366.16154263922164 361.6535687740815 383.3533493416896 352.40935415026075C400.54515604415747 343.16513952644 426.6839374119563 334.6106845757896 437.5349074467791 354.253311953039C448.3858774816018 373.89593933028834 447.16849361733546 427.5635706431658 435.4380055088388 446.6939655610577 "></path><path d="M425.023256372397 369.50220796869263C432.25723639561215 382.5972928868589 431.4456471527679 418.37571376211054 423.62532174710344 431.1293103740385C415.80499634143905 443.8829069859665 398.6556625132501 437.3956416245134 387.4856944252076 430.7194717059469C376.3157263371651 424.0433017873804 369.7143659223197 412.09339662723306 370.00947492449956 399.0836947649193C370.30458392667936 386.0739929026055 377.4410131673587 374.43571251605437 388.90221763567064 368.2729027668405C400.3634221039826 362.11009301762664 417.7892763491818 356.40712305052637 425.023256372397 369.50220796869263C432.25723639561215 382.5972928868589 431.4456471527679 418.37571376211054 423.62532174710344 431.1293103740385 "></path><path d="M412.511635815593 384.75110398434634C416.1286258272006 391.29864644342945 415.72283120577845 409.18785688105527 411.8126685029463 415.56465518701924C407.90250580011406 421.9414534929832 399.3278388860196 418.6978208122567 393.74285484199834 415.3597358529735C388.15787079797707 412.0216508936902 384.8571905905544 406.04669831361656 385.0047450916443 399.54184738245965C385.1522995927342 393.03699645130274 388.7205142130739 387.21785625802715 394.4511164472299 384.13645138342025C400.1817186813858 381.05504650881335 408.89464580398544 378.2035615252632 412.511635815593 384.75110398434634C416.1286258272006 391.29864644342945 415.72283120577845 409.18785688105527 411.8126685029463 415.56465518701924 "></path></g></svg>