<svg xmlns="http://www.w3.org/2000/svg" version="1.1" xmlns:xlink="http://www.w3.org/1999/xlink" xmlns:svgjs="http://svgjs.dev/svgjs" viewBox="0 0 800 800"><g fill="hsl(205, 69%, 50%)" transform="matrix(1.1,0,0,1.1,-39.85000000000002,-40.200000000000045)"><circle r="2" cx="405" cy="400"></circle><circle r="2" cx="405" cy="403"></circle><circle r="2" cx="403" cy="405"></circle><circle r="2" cx="400" cy="407"></circle><circle r="2" cx="397" cy="406"></circle><circle r="2" cx="393" cy="404"></circle><circle r="2" cx="392" cy="400"></circle><circle r="2" cx="392" cy="396"></circle><circle r="2" cx="395" cy="392"></circle><circle r="2" cx="400" cy="390"></circle><circle r="2" cx="405" cy="391"></circle><circle r="2" cx="409" cy="394"></circle><circle r="2" cx="411" cy="400"></circle><circle r="2" cx="410" cy="405"></circle><circle r="2" cx="407" cy="410"></circle><circle r="2" cx="401" cy="413"></circle><circle r="2" cx="394" cy="412"></circle><circle r="2" cx="388" cy="408"></circle><circle r="2" cx="386" cy="401"></circle><circle r="2" cx="387" cy="393"></circle><circle r="2" cx="391" cy="387"></circle><circle r="2" cx="399" cy="384"></circle><circle r="2" cx="407" cy="385"></circle><circle r="2" cx="414" cy="390"></circle><circle r="2" cx="417" cy="398"></circle><circle r="2" cx="416" cy="408"></circle><circle r="2" cx="411" cy="415"></circle><circle r="2" cx="402" cy="419"></circle><circle r="2" cx="392" cy="418"></circle><circle r="2" cx="384" cy="412"></circle><circle r="2" cx="380" cy="402"></circle><circle r="2" cx="381" cy="392"></circle><circle r="2" cx="387" cy="383"></circle><circle r="2" cx="397" cy="378"></circle><circle r="2" cx="409" cy="379"></circle><circle r="2" cx="418" cy="386"></circle><circle r="2" cx="424" cy="397"></circle><circle r="2" cx="422" cy="409"></circle><circle r="2" cx="415" cy="420"></circle><circle r="2" cx="404" cy="425"></circle><circle r="2" cx="390" cy="424"></circle><circle r="2" cx="379" cy="416"></circle><circle r="2" cx="373" cy="404"></circle><circle r="2" cx="374" cy="390"></circle><circle r="2" cx="382" cy="378"></circle><circle r="2" cx="395" cy="372"></circle><circle r="2" cx="410" cy="373"></circle><circle r="2" cx="423" cy="381"></circle><circle r="2" cx="430" cy="395"></circle><circle r="2" cx="429" cy="410"></circle><circle r="2" cx="420" cy="424"></circle><circle r="2" cx="406" cy="431"></circle><circle r="2" cx="389" cy="430"></circle><circle r="2" cx="375" cy="421"></circle><circle r="2" cx="368" cy="406"></circle><circle r="2" cx="368" cy="389"></circle><circle r="2" cx="377" cy="374"></circle><circle r="2" cx="393" cy="366"></circle><circle r="2" cx="411" cy="367"></circle><circle r="2" cx="426" cy="376"></circle><circle r="2" cx="435" cy="392"></circle><circle r="2" cx="435" cy="411"></circle><circle r="2" cx="425" cy="427"></circle><circle r="2" cx="408" cy="437"></circle><circle r="2" cx="389" cy="437"></circle><circle r="2" cx="372" cy="427"></circle><circle r="2" cx="362" cy="409"></circle><circle r="2" cx="362" cy="389"></circle><circle r="2" cx="372" cy="371"></circle><circle r="2" cx="390" cy="360"></circle><circle r="2" cx="411" cy="360"></circle><circle r="2" cx="430" cy="371"></circle><circle r="2" cx="441" cy="389"></circle><circle r="2" cx="442" cy="411"></circle><circle r="2" cx="431" cy="431"></circle><circle r="2" cx="412" cy="442"></circle><circle r="2" cx="389" cy="443"></circle><circle r="2" cx="369" cy="432"></circle><circle r="2" cx="356" cy="413"></circle><circle r="2" cx="355" cy="389"></circle><circle r="2" cx="366" cy="368"></circle><circle r="2" cx="386" cy="355"></circle><circle r="2" cx="411" cy="354"></circle><circle r="2" cx="433" cy="365"></circle><circle r="2" cx="446" cy="386"></circle><circle r="2" cx="448" cy="411"></circle><circle r="2" cx="437" cy="433"></circle><circle r="2" cx="415" cy="448"></circle><circle r="2" cx="390" cy="450"></circle><circle r="2" cx="366" cy="438"></circle><circle r="2" cx="351" cy="416"></circle><circle r="2" cx="349" cy="390"></circle><circle r="2" cx="360" cy="365"></circle><circle r="2" cx="382" cy="350"></circle><circle r="2" cx="410" cy="347"></circle><circle r="2" cx="435" cy="359"></circle><circle r="2" cx="452" cy="381"></circle><circle r="2" cx="455" cy="410"></circle><circle r="2" cx="443" cy="436"></circle><circle r="2" cx="420" cy="453"></circle><circle r="2" cx="391" cy="456"></circle><circle r="2" cx="364" cy="445"></circle><circle r="2" cx="346" cy="421"></circle><circle r="2" cx="342" cy="391"></circle><circle r="2" cx="354" cy="363"></circle><circle r="2" cx="378" cy="345"></circle><circle r="2" cx="409" cy="340"></circle><circle r="2" cx="437" cy="352"></circle><circle r="2" cx="457" cy="377"></circle><circle r="2" cx="461" cy="408"></circle><circle r="2" cx="449" cy="438"></circle><circle r="2" cx="424" cy="458"></circle><circle r="2" cx="392" cy="463"></circle><circle r="2" cx="362" cy="451"></circle><circle r="2" cx="341" cy="426"></circle><circle r="2" cx="336" cy="393"></circle><circle r="2" cx="347" cy="362"></circle><circle r="2" cx="373" cy="340"></circle><circle r="2" cx="407" cy="334"></circle><circle r="2" cx="439" cy="346"></circle><circle r="2" cx="461" cy="372"></circle><circle r="2" cx="468" cy="406"></circle><circle r="2" cx="456" cy="439"></circle><circle r="2" cx="430" cy="462"></circle><circle r="2" cx="395" cy="469"></circle><circle r="2" cx="361" cy="458"></circle><circle r="2" cx="337" cy="431"></circle><circle r="2" cx="329" cy="395"></circle><circle r="2" cx="340" cy="360"></circle><circle r="2" cx="368" cy="336"></circle><circle r="2" cx="404" cy="328"></circle><circle r="2" cx="440" cy="339"></circle><circle r="2" cx="465" cy="366"></circle><circle r="2" cx="474" cy="403"></circle><circle r="2" cx="463" cy="440"></circle><circle r="2" cx="435" cy="466"></circle><circle r="2" cx="397" cy="476"></circle><circle r="2" cx="360" cy="465"></circle><circle r="2" cx="333" cy="437"></circle><circle r="2" cx="323" cy="398"></circle><circle r="2" cx="333" cy="360"></circle><circle r="2" cx="362" cy="332"></circle><circle r="2" cx="401" cy="321"></circle><circle r="2" cx="440" cy="332"></circle><circle r="2" cx="469" cy="360"></circle><circle r="2.5" cx="480" cy="400"></circle><circle r="2.5" cx="470" cy="440"></circle><circle r="2.5" cx="441" cy="470"></circle><circle r="2.5" cx="401" cy="482"></circle><circle r="2.5" cx="360" cy="472"></circle><circle r="2.5" cx="329" cy="443"></circle><circle r="2.5" cx="316" cy="402"></circle><circle r="2.5" cx="326" cy="360"></circle><circle r="2.5" cx="356" cy="328"></circle><circle r="2.5" cx="397" cy="315"></circle><circle r="2.5" cx="440" cy="324"></circle><circle r="2.5" cx="473" cy="354"></circle><circle r="2.5" cx="487" cy="396"></circle><circle r="2.5" cx="477" cy="440"></circle><circle r="2.5" cx="447" cy="474"></circle><circle r="2.5" cx="405" cy="488"></circle><circle r="2.5" cx="360" cy="479"></circle><circle r="2.5" cx="326" cy="449"></circle><circle r="2.5" cx="310" cy="406"></circle><circle r="2.5" cx="319" cy="360"></circle><circle r="2.5" cx="349" cy="325"></circle><circle r="2.5" cx="393" cy="309"></circle><circle r="2.5" cx="440" cy="317"></circle><circle r="2.5" cx="476" cy="347"></circle><circle r="2.5" cx="493" cy="392"></circle><circle r="2.5" cx="485" cy="439"></circle><circle r="2.5" cx="454" cy="477"></circle><circle r="2.5" cx="409" cy="494"></circle><circle r="2.5" cx="361" cy="487"></circle><circle r="2.5" cx="323" cy="456"></circle><circle r="2.5" cx="305" cy="410"></circle><circle r="2.5" cx="312" cy="361"></circle><circle r="2.5" cx="342" cy="322"></circle><circle r="2.5" cx="389" cy="303"></circle><circle r="2.5" cx="438" cy="310"></circle><circle r="2.5" cx="479" cy="341"></circle><circle r="2.5" cx="498" cy="387"></circle><circle r="2.5" cx="492" cy="438"></circle><circle r="2.5" cx="461" cy="479"></circle><circle r="2.5" cx="414" cy="500"></circle><circle r="2.5" cx="362" cy="494"></circle><circle r="2.5" cx="320" cy="463"></circle><circle r="2.5" cx="299" cy="415"></circle><circle r="2.5" cx="304" cy="363"></circle><circle r="2.5" cx="335" cy="320"></circle><circle r="2.5" cx="383" cy="298"></circle><circle r="2.5" cx="437" cy="302"></circle><circle r="2.5" cx="481" cy="333"></circle><circle r="2.5" cx="504" cy="382"></circle><circle r="2.5" cx="499" cy="436"></circle><circle r="2.5" cx="469" cy="481"></circle><circle r="2.5" cx="419" cy="505"></circle><circle r="2.5" cx="364" cy="501"></circle><circle r="2.5" cx="318" cy="471"></circle><circle r="2.5" cx="294" cy="421"></circle><circle r="2.5" cx="297" cy="365"></circle><circle r="2.5" cx="328" cy="318"></circle><circle r="2.5" cx="378" cy="292"></circle><circle r="2.5" cx="434" cy="295"></circle><circle r="2.5" cx="482" cy="326"></circle><circle r="2.5" cx="509" cy="376"></circle><circle r="2.5" cx="507" cy="434"></circle><circle r="2.5" cx="476" cy="483"></circle><circle r="2.5" cx="425" cy="510"></circle><circle r="2.5" cx="367" cy="509"></circle><circle r="2.5" cx="317" cy="478"></circle><circle r="2.5" cx="288" cy="427"></circle><circle r="2.5" cx="289" cy="368"></circle><circle r="2.5" cx="320" cy="317"></circle><circle r="2.5" cx="372" cy="287"></circle><circle r="2.5" cx="432" cy="288"></circle><circle r="2.5" cx="484" cy="318"></circle><circle r="2.5" cx="514" cy="370"></circle><circle r="2.5" cx="514" cy="431"></circle><circle r="2.5" cx="484" cy="484"></circle><circle r="2.5" cx="432" cy="515"></circle><circle r="2.5" cx="370" cy="516"></circle><circle r="2.5" cx="316" cy="486"></circle><circle r="2.5" cx="284" cy="433"></circle><circle r="2.5" cx="282" cy="371"></circle><circle r="2.5" cx="312" cy="316"></circle><circle r="2.5" cx="365" cy="283"></circle><circle r="2.5" cx="428" cy="280"></circle><circle r="2.5" cx="484" cy="310"></circle><circle r="2.5" cx="519" cy="363"></circle><circle r="2.5" cx="522" cy="427"></circle><circle r="2.5" cx="492" cy="484"></circle><circle r="2.5" cx="438" cy="520"></circle><circle r="2.5" cx="374" cy="523"></circle><circle r="2.5" cx="316" cy="495"></circle><circle r="2.5" cx="279" cy="440"></circle><circle r="2.5" cx="275" cy="375"></circle><circle r="2.5" cx="303" cy="316"></circle><circle r="2.5" cx="358" cy="278"></circle><circle r="2.5" cx="424" cy="273"></circle><circle r="2.5" cx="484" cy="301"></circle><circle r="2.5" cx="523" cy="356"></circle><circle r="2.5" cx="529" cy="423"></circle><circle r="2.5" cx="501" cy="484"></circle><circle r="2.5" cx="446" cy="524"></circle><circle r="2.5" cx="378" cy="531"></circle><circle r="2.5" cx="316" cy="503"></circle><circle r="2.5" cx="275" cy="448"></circle><circle r="2.5" cx="268" cy="379"></circle><circle r="2.5" cx="295" cy="316"></circle><circle r="2.5" cx="350" cy="274"></circle><circle r="2.5" cx="419" cy="266"></circle><circle r="2.5" cx="484" cy="293"></circle><circle r="2.5" cx="526" cy="348"></circle><circle r="2.5" cx="536" cy="418"></circle><circle r="2.5" cx="509" cy="484"></circle><circle r="2.5" cx="453" cy="527"></circle><circle r="2.5" cx="383" cy="538"></circle><circle r="2.5" cx="317" cy="511"></circle><circle r="2.5" cx="272" cy="455"></circle><circle r="2.5" cx="261" cy="384"></circle><circle r="2.5" cx="286" cy="317"></circle><circle r="2.5" cx="343" cy="271"></circle><circle r="2.5" cx="414" cy="259"></circle><circle r="2.5" cx="483" cy="284"></circle><circle r="2.5" cx="530" cy="340"></circle><circle r="2.5" cx="543" cy="413"></circle><circle r="2.5" cx="518" cy="482"></circle><circle r="2.5" cx="462" cy="531"></circle><circle r="2.5" cx="389" cy="544"></circle><circle r="2.5" cx="318" cy="520"></circle><circle r="2.5" cx="269" cy="464"></circle><circle r="2.5" cx="254" cy="390"></circle><circle r="2.5" cx="278" cy="318"></circle><circle r="2.5" cx="334" cy="268"></circle><circle r="2.5" cx="409" cy="252"></circle><circle r="2.5" cx="481" cy="276"></circle><circle r="2.5" cx="533" cy="332"></circle><circle r="2.5" cx="549" cy="407"></circle><circle r="2.5" cx="527" cy="481"></circle><circle r="2.5" cx="470" cy="533"></circle><circle r="2.5" cx="395" cy="551"></circle><circle r="2.5" cx="320" cy="529"></circle><circle r="2.5" cx="266" cy="472"></circle><circle r="2.5" cx="247" cy="396"></circle><circle r="2.5" cx="269" cy="321"></circle><circle r="2.5" cx="326" cy="266"></circle><circle r="2.5" cx="402" cy="246"></circle><circle r="2.5" cx="479" cy="267"></circle><circle r="3" cx="535" cy="323"></circle><circle r="3" cx="556" cy="401"></circle><circle r="3" cx="535" cy="478"></circle><circle r="3" cx="479" cy="536"></circle><circle r="3" cx="401" cy="557"></circle><circle r="3" cx="323" cy="538"></circle><circle r="3" cx="264" cy="481"></circle><circle r="3" cx="241" cy="403"></circle><circle r="3" cx="260" cy="323"></circle><circle r="3" cx="317" cy="264"></circle><circle r="3" cx="395" cy="240"></circle><circle r="3" cx="476" cy="258"></circle><circle r="3" cx="537" cy="314"></circle><circle r="3" cx="562" cy="394"></circle><circle r="3" cx="544" cy="475"></circle><circle r="3" cx="488" cy="537"></circle><circle r="3" cx="408" cy="563"></circle><circle r="3" cx="326" cy="546"></circle><circle r="3" cx="262" cy="490"></circle><circle r="3" cx="235" cy="410"></circle><circle r="3" cx="251" cy="327"></circle><circle r="3" cx="307" cy="262"></circle><circle r="3" cx="388" cy="234"></circle><circle r="3" cx="472" cy="249"></circle><circle r="3" cx="538" cy="305"></circle><circle r="3" cx="568" cy="386"></circle><circle r="3" cx="553" cy="471"></circle><circle r="3" cx="497" cy="538"></circle><circle r="3" cx="416" cy="569"></circle><circle r="3" cx="330" cy="555"></circle><circle r="3" cx="261" cy="500"></circle><circle r="3" cx="230" cy="418"></circle><circle r="3" cx="243" cy="331"></circle><circle r="3" cx="298" cy="261"></circle><circle r="3" cx="380" cy="228"></circle><circle r="3" cx="468" cy="241"></circle><circle r="3" cx="539" cy="295"></circle><circle r="3" cx="573" cy="378"></circle><circle r="3" cx="562" cy="467"></circle><circle r="3" cx="507" cy="539"></circle><circle r="3" cx="424" cy="574"></circle><circle r="3" cx="334" cy="564"></circle><circle r="3" cx="261" cy="510"></circle><circle r="3" cx="224" cy="426"></circle><circle r="3" cx="234" cy="335"></circle><circle r="3" cx="288" cy="261"></circle><circle r="3" cx="372" cy="223"></circle><circle r="3" cx="464" cy="232"></circle><circle r="3" cx="539" cy="285"></circle><circle r="3" cx="578" cy="370"></circle><circle r="3" cx="570" cy="462"></circle><circle r="3" cx="517" cy="539"></circle><circle r="3" cx="433" cy="579"></circle><circle r="3" cx="339" cy="572"></circle><circle r="3" cx="261" cy="520"></circle><circle r="3" cx="219" cy="435"></circle><circle r="3" cx="226" cy="340"></circle><circle r="3" cx="278" cy="261"></circle><circle r="3" cx="363" cy="218"></circle><circle r="3" cx="458" cy="223"></circle><circle r="3" cx="539" cy="275"></circle><circle r="3" cx="583" cy="361"></circle><circle r="3" cx="579" cy="457"></circle><circle r="3" cx="527" cy="538"></circle><circle r="3" cx="442" cy="584"></circle><circle r="3" cx="345" cy="581"></circle><circle r="3" cx="262" cy="530"></circle><circle r="3" cx="215" cy="444"></circle><circle r="3" cx="217" cy="346"></circle><circle r="3" cx="268" cy="262"></circle><circle r="3" cx="354" cy="214"></circle><circle r="3" cx="452" cy="215"></circle><circle r="3" cx="538" cy="265"></circle><circle r="3" cx="587" cy="351"></circle><circle r="3" cx="587" cy="451"></circle><circle r="3" cx="538" cy="537"></circle><circle r="3" cx="451" cy="588"></circle><circle r="3" cx="351" cy="589"></circle><circle r="3" cx="263" cy="540"></circle><circle r="3" cx="211" cy="454"></circle><circle r="3" cx="209" cy="353"></circle><circle r="3" cx="257" cy="264"></circle><circle r="3" cx="344" cy="210"></circle><circle r="3" cx="446" cy="207"></circle><circle r="3" cx="536" cy="255"></circle><circle r="3" cx="591" cy="341"></circle><circle r="3" cx="595" cy="444"></circle><circle r="3" cx="548" cy="535"></circle><circle r="3" cx="461" cy="591"></circle><circle r="3" cx="358" cy="597"></circle><circle r="3" cx="265" cy="551"></circle><circle r="3" cx="208" cy="464"></circle><circle r="3" cx="201" cy="360"></circle><circle r="3" cx="247" cy="266"></circle><circle r="3" cx="334" cy="207"></circle><circle r="3" cx="438" cy="199"></circle><circle r="3" cx="534" cy="244"></circle><circle r="3" cx="594" cy="331"></circle><circle r="3" cx="603" cy="437"></circle><circle r="3" cx="558" cy="533"></circle><circle r="3" cx="472" cy="595"></circle><circle r="3" cx="365" cy="605"></circle><circle r="3" cx="268" cy="561"></circle><circle r="3" cx="205" cy="474"></circle><circle r="3" cx="193" cy="367"></circle><circle r="3" cx="236" cy="269"></circle><circle r="3" cx="323" cy="204"></circle><circle r="3" cx="431" cy="191"></circle><circle r="3" cx="531" cy="234"></circle><circle r="3" cx="596" cy="320"></circle><circle r="3" cx="611" cy="429"></circle><circle r="3" cx="569" cy="530"></circle><circle r="3" cx="482" cy="597"></circle><circle r="3" cx="374" cy="612"></circle><circle r="3" cx="271" cy="572"></circle><circle r="3" cx="202" cy="485"></circle><circle r="3" cx="186" cy="376"></circle><circle r="3" cx="226" cy="272"></circle><circle r="3" cx="312" cy="202"></circle><circle r="3" cx="422" cy="184"></circle><circle r="3" cx="527" cy="223"></circle><circle r="3" cx="598" cy="309"></circle><circle r="3" cx="618" cy="420"></circle><circle r="3" cx="579" cy="526"></circle><circle r="3" cx="493" cy="599"></circle><circle r="3" cx="382" cy="620"></circle><circle r="3" cx="275" cy="582"></circle><circle r="3" cx="201" cy="496"></circle><circle r="3" cx="179" cy="384"></circle><circle r="3" cx="215" cy="276"></circle><circle r="3" cx="301" cy="200"></circle><circle r="3" cx="413" cy="177"></circle><circle r="3" cx="523" cy="213"></circle><circle r="3" cx="600" cy="298"></circle><circle r="3" cx="625" cy="411"></circle><circle r="3" cx="590" cy="521"></circle><circle r="3" cx="505" cy="600"></circle><circle r="3" cx="391" cy="626"></circle><circle r="3" cx="280" cy="593"></circle><circle r="3" cx="200" cy="508"></circle><circle r="3" cx="172" cy="394"></circle><circle r="3" cx="205" cy="281"></circle><circle r="3" cx="289" cy="199"></circle><circle r="3" cx="404" cy="170"></circle><circle r="3.5" cx="518" cy="202"></circle><circle r="3.5" cx="601" cy="286"></circle><circle r="3.5" cx="631" cy="401"></circle><circle r="3.5" cx="600" cy="516"></circle><circle r="3.5" cx="516" cy="601"></circle><circle r="3.5" cx="401" cy="633"></circle><circle r="3.5" cx="285" cy="603"></circle><circle r="3.5" cx="199" cy="519"></circle><circle r="3.5" cx="166" cy="404"></circle><circle r="3.5" cx="194" cy="287"></circle><circle r="3.5" cx="278" cy="199"></circle><circle r="3.5" cx="394" cy="164"></circle><circle r="3.5" cx="512" cy="192"></circle><circle r="3.5" cx="601" cy="275"></circle><circle r="3.5" cx="637" cy="391"></circle><circle r="3.5" cx="611" cy="510"></circle><circle r="3.5" cx="528" cy="601"></circle><circle r="3.5" cx="412" cy="639"></circle><circle r="3.5" cx="291" cy="613"></circle><circle r="3.5" cx="199" cy="531"></circle><circle r="3.5" cx="160" cy="414"></circle><circle r="3.5" cx="184" cy="293"></circle><circle r="3.5" cx="266" cy="199"></circle><circle r="3.5" cx="383" cy="158"></circle><circle r="3.5" cx="505" cy="181"></circle><circle r="3.5" cx="601" cy="262"></circle><circle r="3.5" cx="643" cy="380"></circle><circle r="3.5" cx="621" cy="504"></circle><circle r="3.5" cx="541" cy="600"></circle><circle r="3.5" cx="422" cy="644"></circle><circle r="3.5" cx="298" cy="624"></circle><circle r="3.5" cx="200" cy="544"></circle><circle r="3.5" cx="154" cy="425"></circle><circle r="3.5" cx="174" cy="300"></circle><circle r="3.5" cx="253" cy="200"></circle><circle r="3.5" cx="372" cy="153"></circle><circle r="3.5" cx="498" cy="171"></circle><circle r="3.5" cx="599" cy="250"></circle><circle r="3.5" cx="648" cy="369"></circle><circle r="3.5" cx="631" cy="497"></circle><circle r="3.5" cx="553" cy="599"></circle><circle r="3.5" cx="434" cy="649"></circle><circle r="3.5" cx="305" cy="634"></circle><circle r="3.5" cx="201" cy="556"></circle><circle r="3.5" cx="150" cy="437"></circle><circle r="3.5" cx="164" cy="307"></circle><circle r="3.5" cx="241" cy="202"></circle><circle r="3.5" cx="360" cy="149"></circle><circle r="3.5" cx="491" cy="162"></circle><circle r="3.5" cx="598" cy="238"></circle><circle r="3.5" cx="653" cy="357"></circle><circle r="3.5" cx="641" cy="489"></circle><circle r="3.5" cx="565" cy="597"></circle><circle r="3.5" cx="446" cy="654"></circle><circle r="3.5" cx="313" cy="643"></circle><circle r="3.5" cx="204" cy="568"></circle><circle r="3.5" cx="145" cy="449"></circle><circle r="3.5" cx="154" cy="316"></circle><circle r="3.5" cx="228" cy="204"></circle><circle r="3.5" cx="348" cy="144"></circle><circle r="3.5" cx="482" cy="152"></circle><circle r="3.5" cx="595" cy="225"></circle><circle r="3.5" cx="657" cy="345"></circle><circle r="3.5" cx="650" cy="480"></circle><circle r="3.5" cx="578" cy="594"></circle><circle r="3.5" cx="458" cy="658"></circle><circle r="3.5" cx="322" cy="653"></circle><circle r="3.5" cx="206" cy="581"></circle><circle r="3.5" cx="142" cy="461"></circle><circle r="3.5" cx="145" cy="324"></circle><circle r="3.5" cx="216" cy="207"></circle><circle r="3.5" cx="336" cy="141"></circle><circle r="3.5" cx="473" cy="143"></circle><circle r="3.5" cx="592" cy="213"></circle><circle r="3.5" cx="660" cy="333"></circle><circle r="3.5" cx="660" cy="471"></circle><circle r="3.5" cx="591" cy="591"></circle><circle r="3.5" cx="471" cy="661"></circle><circle r="3.5" cx="332" cy="662"></circle><circle r="3.5" cx="210" cy="594"></circle><circle r="3.5" cx="138" cy="474"></circle><circle r="3.5" cx="136" cy="334"></circle><circle r="3.5" cx="203" cy="211"></circle><circle r="3.5" cx="323" cy="138"></circle><circle r="3.5" cx="463" cy="134"></circle><circle r="3.5" cx="588" cy="200"></circle><circle r="3.5" cx="663" cy="320"></circle><circle r="3.5" cx="669" cy="461"></circle><circle r="3.5" cx="603" cy="587"></circle><circle r="3.5" cx="484" cy="663"></circle><circle r="3.5" cx="342" cy="671"></circle><circle r="3.5" cx="214" cy="606"></circle><circle r="3.5" cx="136" cy="487"></circle><circle r="3.5" cx="127" cy="344"></circle><circle r="3.5" cx="190" cy="216"></circle><circle r="3.5" cx="310" cy="135"></circle><circle r="3.5" cx="453" cy="125"></circle><circle r="3.5" cx="583" cy="187"></circle><circle r="3.5" cx="665" cy="306"></circle><circle r="3.5" cx="677" cy="450"></circle><circle r="3.5" cx="616" cy="582"></circle><circle r="3.5" cx="497" cy="665"></circle><circle r="3.5" cx="352" cy="679"></circle><circle r="3.5" cx="220" cy="619"></circle><circle r="3.5" cx="134" cy="501"></circle><circle r="3.5" cx="119" cy="355"></circle><circle r="3.5" cx="178" cy="221"></circle><circle r="3.5" cx="296" cy="134"></circle><circle r="3.5" cx="442" cy="117"></circle><circle r="3.5" cx="578" cy="175"></circle><circle r="3.5" cx="667" cy="293"></circle><circle r="3.5" cx="685" cy="439"></circle><circle r="3.5" cx="628" cy="576"></circle><circle r="3.5" cx="511" cy="667"></circle><circle r="3.5" cx="364" cy="687"></circle><circle r="3.5" cx="225" cy="632"></circle><circle r="3.5" cx="133" cy="514"></circle><circle r="3.5" cx="111" cy="367"></circle><circle r="3.5" cx="165" cy="227"></circle><circle r="3.5" cx="282" cy="133"></circle><circle r="3.5" cx="430" cy="109"></circle><circle r="3.5" cx="571" cy="162"></circle><circle r="3.5" cx="667" cy="279"></circle><circle r="3.5" cx="693" cy="427"></circle><circle r="3.5" cx="641" cy="570"></circle><circle r="3.5" cx="525" cy="667"></circle><circle r="3.5" cx="376" cy="695"></circle><circle r="3.5" cx="232" cy="644"></circle><circle r="3.5" cx="133" cy="529"></circle><circle r="3.5" cx="104" cy="379"></circle><circle r="3.5" cx="153" cy="234"></circle><circle r="3.5" cx="268" cy="133"></circle><circle r="3.5" cx="418" cy="102"></circle><circle r="3.5" cx="564" cy="150"></circle><circle r="3.5" cx="667" cy="264"></circle><circle r="3.5" cx="700" cy="415"></circle><circle r="3.5" cx="653" cy="562"></circle><circle r="3.5" cx="539" cy="667"></circle><circle r="3.5" cx="388" cy="702"></circle><circle r="3.5" cx="239" cy="656"></circle><circle r="3.5" cx="133" cy="543"></circle><circle r="3.5" cx="97" cy="391"></circle><circle r="3.5" cx="141" cy="241"></circle><circle r="3.5" cx="253" cy="133"></circle><circle r="4" cx="405" cy="95"></circle><circle r="4" cx="557" cy="138"></circle><circle r="4" cx="667" cy="250"></circle><circle r="4" cx="707" cy="402"></circle><circle r="4" cx="665" cy="554"></circle><circle r="4" cx="554" cy="666"></circle><circle r="4" cx="401" cy="708"></circle><circle r="4" cx="248" cy="668"></circle><circle r="4" cx="134" cy="558"></circle><circle r="4" cx="90" cy="404"></circle><circle r="4" cx="129" cy="250"></circle><circle r="4" cx="239" cy="134"></circle><circle r="4" cx="392" cy="89"></circle><circle r="4" cx="548" cy="126"></circle><circle r="4" cx="665" cy="235"></circle><circle r="4" cx="713" cy="389"></circle><circle r="4" cx="677" cy="546"></circle><circle r="4" cx="569" cy="665"></circle><circle r="4" cx="415" cy="714"></circle><circle r="4" cx="257" cy="680"></circle><circle r="4" cx="136" cy="572"></circle><circle r="4" cx="85" cy="418"></circle><circle r="4" cx="117" cy="259"></circle><circle r="4" cx="224" cy="136"></circle><circle r="4" cx="378" cy="83"></circle><circle r="4" cx="539" cy="114"></circle><circle r="4" cx="663" cy="220"></circle><circle r="4" cx="718" cy="375"></circle><circle r="4" cx="689" cy="536"></circle><circle r="4" cx="583" cy="662"></circle><circle r="4" cx="429" cy="719"></circle><circle r="4" cx="266" cy="692"></circle><circle r="4" cx="138" cy="587"></circle><circle r="4" cx="79" cy="432"></circle><circle r="4" cx="105" cy="269"></circle><circle r="4" cx="209" cy="139"></circle><circle r="4" cx="364" cy="78"></circle><circle r="4" cx="529" cy="102"></circle><circle r="4" cx="660" cy="205"></circle><circle r="4" cx="723" cy="360"></circle><circle r="4" cx="700" cy="526"></circle><circle r="4" cx="598" cy="659"></circle><circle r="4" cx="443" cy="724"></circle><circle r="4" cx="277" cy="703"></circle><circle r="4" cx="142" cy="602"></circle><circle r="4" cx="75" cy="447"></circle><circle r="4" cx="94" cy="279"></circle><circle r="4" cx="194" cy="143"></circle><circle r="4" cx="349" cy="74"></circle><circle r="4" cx="518" cy="91"></circle><circle r="4" cx="656" cy="190"></circle><circle r="4" cx="727" cy="345"></circle><circle r="4" cx="711" cy="515"></circle><circle r="4" cx="613" cy="655"></circle><circle r="4" cx="458" cy="728"></circle><circle r="4" cx="288" cy="714"></circle><circle r="4" cx="146" cy="617"></circle><circle r="4" cx="71" cy="462"></circle><circle r="4" cx="83" cy="291"></circle><circle r="4" cx="179" cy="147"></circle><circle r="4" cx="334" cy="70"></circle><circle r="4" cx="507" cy="81"></circle><circle r="4" cx="652" cy="175"></circle><circle r="4" cx="730" cy="330"></circle><circle r="4" cx="722" cy="504"></circle><circle r="4" cx="628" cy="650"></circle><circle r="4" cx="474" cy="731"></circle><circle r="4" cx="299" cy="725"></circle><circle r="4" cx="151" cy="632"></circle><circle r="4" cx="68" cy="478"></circle><circle r="4" cx="73" cy="302"></circle><circle r="4" cx="164" cy="152"></circle><circle r="4" cx="318" cy="67"></circle><circle r="4" cx="494" cy="70"></circle><circle r="4" cx="646" cy="160"></circle><circle r="4" cx="733" cy="314"></circle><circle r="4" cx="732" cy="491"></circle><circle r="4" cx="643" cy="645"></circle><circle r="4" cx="490" cy="734"></circle><circle r="4" cx="312" cy="735"></circle><circle r="4" cx="157" cy="647"></circle><circle r="4" cx="66" cy="494"></circle><circle r="4" cx="63" cy="315"></circle><circle r="4" cx="149" cy="159"></circle><circle r="4" cx="302" cy="65"></circle><circle r="4" cx="482" cy="60"></circle><circle r="4" cx="640" cy="145"></circle><circle r="4" cx="735" cy="298"></circle><circle r="4" cx="742" cy="478"></circle><circle r="4" cx="658" cy="638"></circle><circle r="4" cx="506" cy="735"></circle><circle r="4" cx="325" cy="744"></circle><circle r="4" cx="164" cy="662"></circle><circle r="4" cx="64" cy="510"></circle><circle r="4" cx="53" cy="329"></circle><circle r="4" cx="134" cy="165"></circle><circle r="4" cx="286" cy="64"></circle><circle r="4" cx="468" cy="51"></circle><circle r="4" cx="633" cy="131"></circle><circle r="4" cx="736" cy="282"></circle><circle r="4" cx="751" cy="464"></circle><circle r="4" cx="673" cy="631"></circle><circle r="4" cx="523" cy="736"></circle><circle r="4" cx="339" cy="753"></circle><circle r="4" cx="171" cy="677"></circle><circle r="4" cx="63" cy="527"></circle><circle r="4" cx="44" cy="343"></circle><circle r="4" cx="120" cy="173"></circle><circle r="4" cx="269" cy="63"></circle><circle r="4" cx="454" cy="42"></circle><circle r="4" cx="625" cy="116"></circle><circle r="4" cx="737" cy="265"></circle><circle r="4" cx="760" cy="450"></circle><circle r="4" cx="688" cy="623"></circle><circle r="4" cx="539" cy="737"></circle><circle r="4" cx="354" cy="762"></circle><circle r="4" cx="180" cy="691"></circle><circle r="4" cx="63" cy="544"></circle><circle r="4" cx="36" cy="357"></circle><circle r="4" cx="105" cy="182"></circle><circle r="4" cx="252" cy="64"></circle><circle r="4" cx="439" cy="34"></circle><circle r="4" cx="616" cy="101"></circle><circle r="4" cx="736" cy="248"></circle><circle r="4" cx="768" cy="435"></circle><circle r="4" cx="702" cy="614"></circle><circle r="4" cx="556" cy="736"></circle><circle r="4" cx="369" cy="770"></circle><circle r="4" cx="189" cy="706"></circle><circle r="4" cx="64" cy="561"></circle><circle r="4" cx="28" cy="373"></circle><circle r="4" cx="91" cy="191"></circle><circle r="4" cx="235" cy="65"></circle><circle r="4" cx="424" cy="27"></circle><circle r="4" cx="606" cy="87"></circle><circle r="4" cx="735" cy="231"></circle><circle r="4" cx="775" cy="420"></circle><circle r="4" cx="716" cy="604"></circle><circle r="4" cx="574" cy="734"></circle><circle r="4" cx="384" cy="777"></circle><circle r="4" cx="199" cy="720"></circle><circle r="4" cx="66" cy="578"></circle><circle r="4" cx="21" cy="388"></circle><circle r="4" cx="77" cy="202"></circle><circle r="4" cx="218" cy="67"></circle><circle r="4.5" cx="407" cy="20"></circle><circle r="4.5" cx="596" cy="73"></circle><circle r="4.5" cx="733" cy="213"></circle><circle r="4.5" cx="782" cy="403"></circle><circle r="4.5" cx="730" cy="593"></circle><circle r="4.5" cx="591" cy="732"></circle><circle r="4.5" cx="401" cy="784"></circle><circle r="4.5" cx="210" cy="734"></circle><circle r="4.5" cx="69" cy="595"></circle><circle r="4.5" cx="15" cy="405"></circle><circle r="4.5" cx="63" cy="213"></circle><circle r="4.5" cx="200" cy="69"></circle><circle r="4.5" cx="391" cy="13"></circle><circle r="4.5" cx="584" cy="60"></circle><circle r="4.5" cx="730" cy="196"></circle><circle r="4.5" cx="788" cy="387"></circle><circle r="4.5" cx="744" cy="581"></circle><circle r="4.5" cx="608" cy="729"></circle><circle r="4.5" cx="418" cy="789"></circle><circle r="4.5" cx="222" cy="747"></circle><circle r="4.5" cx="72" cy="613"></circle><circle r="4.5" cx="9" cy="422"></circle><circle r="4.5" cx="50" cy="225"></circle><circle r="4.5" cx="183" cy="73"></circle><circle r="4.5" cx="374" cy="8"></circle><circle r="4.5" cx="572" cy="46"></circle><circle r="4.5" cx="726" cy="178"></circle><circle r="4.5" cx="793" cy="369"></circle><circle r="4.5" cx="757" cy="569"></circle><circle r="4.5" cx="626" cy="725"></circle><circle r="4.5" cx="435" cy="794"></circle><circle r="4.5" cx="234" cy="760"></circle><circle r="4.5" cx="77" cy="630"></circle><circle r="4.5" cx="4" cy="439"></circle><circle r="4.5" cx="37" cy="237"></circle><circle r="4.5" cx="165" cy="78"></circle><circle r="4.5" cx="356" cy="3"></circle><circle r="4.5" cx="559" cy="33"></circle><circle r="4.5" cx="721" cy="161"></circle><circle r="4.5" cx="798" cy="352"></circle><circle r="4.5" cx="770" cy="556"></circle><circle r="4.5" cx="644" cy="719"></circle><circle r="4.5" cx="453" cy="799"></circle><circle r="4.5" cx="247" cy="773"></circle><circle r="4.5" cx="82" cy="648"></circle><circle r="4.5" cx="0" cy="457"></circle><circle r="4.5" cx="24" cy="251"></circle><circle r="4.5" cx="148" cy="83"></circle><circle r="4.5" cx="338" cy="-1"></circle><circle r="4.5" cx="546" cy="21"></circle><circle r="4.5" cx="715" cy="143"></circle><circle r="4.5" cx="802" cy="334"></circle><circle r="4.5" cx="782" cy="542"></circle><circle r="4.5" cx="661" cy="713"></circle><circle r="4.5" cx="471" cy="802"></circle><circle r="4.5" cx="262" cy="785"></circle><circle r="4.5" cx="88" cy="666"></circle><circle r="4.5" cx="-3" cy="476"></circle><circle r="4.5" cx="12" cy="265"></circle><circle r="4.5" cx="130" cy="90"></circle><circle r="4.5" cx="320" cy="-4"></circle><circle r="4.5" cx="531" cy="9"></circle><circle r="4.5" cx="708" cy="126"></circle><circle r="4.5" cx="804" cy="315"></circle><circle r="4.5" cx="794" cy="527"></circle><circle r="4.5" cx="679" cy="707"></circle><circle r="4.5" cx="490" cy="805"></circle><circle r="4.5" cx="276" cy="796"></circle><circle r="4.5" cx="95" cy="683"></circle><circle r="4.5" cx="-5" cy="494"></circle><circle r="4.5" cx="1" cy="280"></circle><circle r="4.5" cx="113" cy="97"></circle><circle r="4.5" cx="301" cy="-6"></circle><circle r="4.5" cx="516" cy="-2"></circle><circle r="4.5" cx="701" cy="108"></circle><circle r="4.5" cx="806" cy="296"></circle><circle r="4.5" cx="805" cy="512"></circle><circle r="4.5" cx="696" cy="699"></circle><circle r="4.5" cx="509" cy="807"></circle><circle r="4.5" cx="292" cy="807"></circle><circle r="4.5" cx="103" cy="700"></circle><circle r="4.5" cx="-7" cy="513"></circle><circle r="4.5" cx="-10" cy="296"></circle><circle r="4.5" cx="95" cy="106"></circle><circle r="4.5" cx="282" cy="-7"></circle><circle r="4.5" cx="500" cy="-13"></circle><circle r="4.5" cx="692" cy="91"></circle><circle r="4.5" cx="807" cy="277"></circle><circle r="4.5" cx="815" cy="496"></circle><circle r="4.5" cx="713" cy="690"></circle><circle r="4.5" cx="528" cy="808"></circle><circle r="4.5" cx="308" cy="818"></circle><circle r="4.5" cx="113" cy="717"></circle><circle r="4.5" cx="-8" cy="533"></circle><circle r="4.5" cx="-20" cy="313"></circle><circle r="4.5" cx="78" cy="115"></circle><circle r="4.5" cx="262" cy="-8"></circle><circle r="4.5" cx="483" cy="-23"></circle><circle r="4.5" cx="683" cy="74"></circle><circle r="4.5" cx="808" cy="257"></circle><circle r="4.5" cx="825" cy="479"></circle><circle r="4.5" cx="730" cy="680"></circle><circle r="4.5" cx="548" cy="808"></circle><circle r="4.5" cx="325" cy="828"></circle><circle r="4.5" cx="123" cy="734"></circle><circle r="4.5" cx="-7" cy="553"></circle><circle r="4.5" cx="-30" cy="330"></circle><circle r="4.5" cx="61" cy="125"></circle><circle r="4.5" cx="243" cy="-7"></circle><circle r="4.5" cx="466" cy="-32"></circle><circle r="4.5" cx="672" cy="57"></circle><circle r="4.5" cx="807" cy="238"></circle><circle r="4.5" cx="834" cy="461"></circle><circle r="4.5" cx="747" cy="669"></circle><circle r="4.5" cx="567" cy="807"></circle><circle r="4.5" cx="343" cy="837"></circle><circle r="4.5" cx="133" cy="751"></circle><circle r="4.5" cx="-6" cy="572"></circle><circle r="4.5" cx="-39" cy="348"></circle><circle r="4.5" cx="45" cy="136"></circle><circle r="4.5" cx="223" cy="-6"></circle><circle r="4.5" cx="448" cy="-41"></circle><circle r="4.5" cx="661" cy="41"></circle><circle r="4.5" cx="805" cy="218"></circle><circle r="4.5" cx="843" cy="443"></circle><circle r="4.5" cx="763" cy="658"></circle><circle r="4.5" cx="587" cy="805"></circle><circle r="4.5" cx="362" cy="845"></circle><circle r="4.5" cx="145" cy="767"></circle><circle r="4.5" cx="-4" cy="592"></circle><circle r="4.5" cx="-47" cy="366"></circle><circle r="4.5" cx="29" cy="148"></circle><circle r="4.5" cx="203" cy="-3"></circle><circle r="4.5" cx="429" cy="-49"></circle><circle r="4.5" cx="648" cy="25"></circle><circle r="4.5" cx="803" cy="197"></circle><circle r="4.5" cx="851" cy="424"></circle><circle r="4.5" cx="779" cy="645"></circle><circle r="4.5" cx="608" cy="802"></circle><circle r="4.5" cx="381" cy="852"></circle><circle r="4.5" cx="158" cy="783"></circle><circle r="4.5" cx="-1" cy="613"></circle><circle r="4.5" cx="-54" cy="385"></circle><circle r="4.5" cx="13" cy="161"></circle><circle r="5" cx="182" cy="0"></circle><circle r="5" cx="410" cy="-56"></circle><circle r="5" cx="635" cy="9"></circle><circle r="5" cx="799" cy="177"></circle><circle r="5" cx="857" cy="405"></circle><circle r="5" cx="795" cy="632"></circle><circle r="5" cx="628" cy="798"></circle><circle r="5" cx="400" cy="859"></circle><circle r="5" cx="172" cy="799"></circle><circle r="5" cx="3" cy="633"></circle><circle r="5" cx="-60" cy="405"></circle><circle r="5" cx="-3" cy="175"></circle><circle r="5" cx="162" cy="5"></circle><circle r="5" cx="390" cy="-62"></circle><circle r="5" cx="621" cy="-6"></circle><circle r="5" cx="794" cy="157"></circle><circle r="5" cx="863" cy="385"></circle><circle r="5" cx="810" cy="617"></circle><circle r="5" cx="648" cy="793"></circle><circle r="5" cx="420" cy="865"></circle><circle r="5" cx="186" cy="814"></circle><circle r="5" cx="9" cy="653"></circle><circle r="5" cx="-66" cy="425"></circle><circle r="5" cx="-17" cy="190"></circle><circle r="5" cx="142" cy="10"></circle><circle r="5" cx="370" cy="-67"></circle><circle r="5" cx="606" cy="-21"></circle><circle r="5" cx="789" cy="137"></circle><circle r="5" cx="869" cy="364"></circle><circle r="5" cx="825" cy="602"></circle><circle r="5" cx="668" cy="787"></circle><circle r="5" cx="441" cy="870"></circle><circle r="5" cx="202" cy="828"></circle><circle r="5" cx="15" cy="673"></circle><circle r="5" cx="-71" cy="446"></circle><circle r="5" cx="-32" cy="206"></circle><circle r="5" cx="121" cy="16"></circle><circle r="5" cx="349" cy="-72"></circle><circle r="5" cx="590" cy="-35"></circle><circle r="5" cx="782" cy="116"></circle><circle r="5" cx="873" cy="344"></circle><circle r="5" cx="839" cy="586"></circle><circle r="5" cx="689" cy="780"></circle><circle r="5" cx="462" cy="874"></circle><circle r="5" cx="218" cy="842"></circle><circle r="5" cx="22" cy="694"></circle><circle r="5" cx="-75" cy="467"></circle><circle r="5" cx="-46" cy="222"></circle><circle r="5" cx="101" cy="24"></circle><circle r="5" cx="328" cy="-75"></circle><circle r="5" cx="573" cy="-49"></circle><circle r="5" cx="774" cy="96"></circle><circle r="5" cx="876" cy="322"></circle><circle r="5" cx="852" cy="569"></circle><circle r="5" cx="709" cy="772"></circle><circle r="5" cx="483" cy="877"></circle><circle r="5" cx="235" cy="856"></circle><circle r="5" cx="30" cy="714"></circle><circle r="5" cx="-77" cy="489"></circle><circle r="5" cx="-59" cy="240"></circle><circle r="5" cx="81" cy="32"></circle><circle r="5" cx="306" cy="-78"></circle><circle r="5" cx="556" cy="-62"></circle><circle r="5" cx="765" cy="76"></circle><circle r="5" cx="878" cy="300"></circle><circle r="5" cx="865" cy="551"></circle><circle r="5" cx="729" cy="763"></circle><circle r="5" cx="505" cy="879"></circle><circle r="5" cx="253" cy="868"></circle><circle r="5" cx="40" cy="734"></circle><circle r="5" cx="-79" cy="511"></circle><circle r="5" cx="-71" cy="258"></circle><circle r="5" cx="61" cy="42"></circle><circle r="5" cx="284" cy="-79"></circle><circle r="5" cx="538" cy="-74"></circle><circle r="5" cx="755" cy="56"></circle><circle r="5" cx="880" cy="278"></circle><circle r="5" cx="877" cy="533"></circle><circle r="5" cx="748" cy="753"></circle><circle r="5" cx="527" cy="880"></circle><circle r="5" cx="272" cy="880"></circle><circle r="5" cx="50" cy="753"></circle><circle r="5" cx="-80" cy="533"></circle><circle r="5" cx="-83" cy="277"></circle><circle r="5" cx="42" cy="53"></circle><circle r="5" cx="262" cy="-80"></circle><circle r="5" cx="518" cy="-86"></circle><circle r="5" cx="745" cy="37"></circle><circle r="5" cx="880" cy="256"></circle><circle r="5" cx="889" cy="514"></circle><circle r="5" cx="768" cy="742"></circle><circle r="5" cx="550" cy="880"></circle><circle r="5" cx="291" cy="891"></circle><circle r="5" cx="61" cy="773"></circle><circle r="5" cx="-80" cy="555"></circle><circle r="5" cx="-94" cy="296"></circle><circle r="5" cx="22" cy="64"></circle><circle r="5" cx="239" cy="-79"></circle><circle r="5" cx="499" cy="-97"></circle><circle r="5" cx="733" cy="18"></circle><circle r="5" cx="879" cy="233"></circle><circle r="5" cx="899" cy="494"></circle><circle r="5" cx="787" cy="730"></circle><circle r="5" cx="572" cy="879"></circle><circle r="5" cx="312" cy="902"></circle><circle r="5" cx="74" cy="792"></circle><circle r="5" cx="-78" cy="578"></circle><circle r="5" cx="-104" cy="317"></circle><circle r="5" cx="3" cy="77"></circle><circle r="5" cx="216" cy="-78"></circle><circle r="5" cx="478" cy="-107"></circle><circle r="5" cx="720" cy="-1"></circle><circle r="5" cx="877" cy="210"></circle><circle r="5" cx="909" cy="473"></circle><circle r="5" cx="806" cy="716"></circle><circle r="5" cx="595" cy="877"></circle><circle r="5" cx="333" cy="911"></circle><circle r="5" cx="87" cy="811"></circle><circle r="5" cx="-76" cy="601"></circle><circle r="5" cx="-113" cy="338"></circle><circle r="5" cx="-15" cy="91"></circle><circle r="5" cx="193" cy="-75"></circle><circle r="5" cx="457" cy="-116"></circle><circle r="5" cx="706" cy="-20"></circle><circle r="5" cx="874" cy="187"></circle><circle r="5" cx="918" cy="451"></circle><circle r="5" cx="824" cy="702"></circle><circle r="5" cx="618" cy="873"></circle><circle r="5" cx="354" cy="920"></circle><circle r="5" cx="102" cy="829"></circle><circle r="5" cx="-72" cy="624"></circle><circle r="5" cx="-122" cy="360"></circle><circle r="5" cx="-33" cy="105"></circle><circle r="5" cx="170" cy="-71"></circle><circle r="5" cx="435" cy="-124"></circle><circle r="5" cx="691" cy="-38"></circle><circle r="5" cx="870" cy="164"></circle><circle r="5" cx="926" cy="429"></circle><circle r="5" cx="842" cy="687"></circle><circle r="5" cx="641" cy="869"></circle><circle r="5" cx="376" cy="928"></circle><circle r="5" cx="117" cy="847"></circle><circle r="5" cx="-68" cy="647"></circle><circle r="5" cx="-129" cy="382"></circle></g></svg>