<svg xmlns="http://www.w3.org/2000/svg" version="1.1" xmlns:xlink="http://www.w3.org/1999/xlink" xmlns:svgjs="http://svgjs.dev/svgjs" viewBox="0 0 800 800" opacity="1"><defs><symbol id="bbburst-shape-1" viewBox="0 0 194 167"><path d="m97 0 96.129 166.5H.871L97 0Z"></path></symbol><symbol id="bbburst-shape-2" viewBox="0 0 126 115"><path d="m63 0 62.77 43.877-23.976 70.996H24.206L.23 43.877 63 0Z"></path></symbol><symbol id="bbburst-shape-3" viewBox="0 0 131 127"><path d="m66 0 66 63.5L66 127 0 63.5 66 0Z"></path></symbol><symbol id="bbburst-shape-4" viewBox="0 0 149 143"><path d="M71.647 2.781c.898-2.764 4.808-2.764 5.706 0l15.445 47.534a3 3 0 0 0 2.853 2.073h49.98c2.906 0 4.115 3.719 1.764 5.427L106.96 87.193a2.999 2.999 0 0 0-1.09 3.354l15.445 47.534c.898 2.764-2.266 5.062-4.617 3.354l-40.435-29.378a3 3 0 0 0-3.526 0l-40.435 29.378c-2.351 1.708-5.515-.59-4.617-3.354L43.13 90.547a3 3 0 0 0-1.09-3.354L1.605 57.815c-2.35-1.708-1.142-5.427 1.764-5.427h49.98a3 3 0 0 0 2.853-2.073L71.647 2.781Z"></path></symbol><symbol id="bbburst-shape-5" viewBox="0 0 145 145"><circle cx="72.5" cy="72.5" r="72.5"></circle></symbol><symbol id="bbburst-shape-6" viewBox="0 0 133 116"><path d="M59.7487 10.2513c-13.6683-13.66839-35.8291-13.66839-49.4974 0-13.66839 13.6683-13.66839 35.8291 0 49.4974l49.4974-49.4974ZM66.5 66.5 41.7513 91.2487 66.5 115.997l24.7487-24.7483L66.5 66.5Zm56.249-6.7513c13.668-13.6683 13.668-35.8291 0-49.4974-13.669-13.66839-35.8294-13.66839-49.4977 0l49.4977 49.4974Zm-112.4977 0 31.5 31.5 49.4974-49.4974-31.5-31.5-49.4974 49.4974Zm80.9974 31.5 31.5003-31.5-49.4977-49.4974-31.5 31.5 49.4974 49.4974Z"></path></symbol><symbol id="bbburst-shape-7" viewBox="0 0 139 124"><path fill-rule="evenodd" clip-rule="evenodd" d="M70.1641 15.0917C54.6093.764854 37.8293-2.10782 24.4032 2.82615 10.3804 7.97941.763366 21.4591 1.00047 37.0608c.1068 7.0273 2.86132 13.7317 7.0039 20.2001C12.1442 63.7249 17.853 70.2322 24.25 76.9024c3.8209 3.9842 7.8871 8.0312 12.0767 12.201h.0001c10.0335 9.9862 20.7748 20.6766 30.5497 32.8956 1.38 1.725 3.8972 2.005 5.6223.624.6706-.536 1.1228-1.244 1.3439-2.011 9.5768-11.748 20.0328-22.0735 29.8163-31.7351 4.19-4.1373 8.256-8.1528 12.078-12.1062 6.396-6.6176 12.106-13.0752 16.247-19.4911 4.144-6.4196 6.905-13.0811 7.012-20.0691.237-15.5124-9.399-28.8902-23.411-33.99923-13.32-4.85681-29.9542-2.08621-45.4209 11.88043Zm-3.7351 7.4919C52.1278 8.44857 37.6826 6.46918 27.1626 10.3352 16.2859 14.3323 8.8148 24.7824 8.99955 36.9392c.07575 4.9844 2.03755 10.2234 5.74165 16.0072 3.707 5.7881 8.9752 11.8418 15.2827 18.4187 3.5798 3.7328 7.4978 7.6329 11.6 11.7163 9.0476 9.0063 18.9911 18.9046 28.1786 29.8666 9.2999-11.068 19.4036-21.0473 28.5839-30.1144l.0007-.0006c4.1019-4.0508 8.0189-7.9196 11.5979-11.6222 6.307-6.5252 11.573-12.5298 15.278-18.2697 3.703-5.7362 5.658-10.924 5.734-15.8531.184-12.0276-7.267-22.3914-18.153-26.3608-10.71-3.90518-25.4722-1.80041-40.0023 12.867-1.5547 1.5694-4.0874 1.5813-5.6568.0265-.3146-.3116-.5666-.6625-.7559-1.0371Z"></path></symbol><symbol id="bbburst-shape-8" viewBox="0 0 87 168"><path d="m12 12 31.2546 18.0749c16.4102 9.4902 20.014 31.6325 7.4603 45.8369L36.3296 92.1884c-12.5684 14.2206-8.9394 36.3916 7.5068 45.8636L75 156" stroke-width="14" stroke-linecap="round" stroke-linejoin="round"></path></symbol><symbol id="bbburst-shape-9" viewBox="0 0 182 172"><path d="M13.5809 69.845 91 13.5967l77.419 56.2483-29.571 91.012H43.1524L13.5809 69.845Z" stroke-width="22"></path></symbol><symbol id="bbburst-shape-10" viewBox="0 0 145 145"><circle cx="72.5" cy="72.5" r="61.5" fill="none" stroke-width="22"></circle></symbol><symbol id="bbburst-shape-11" viewBox="0 0 194 167"><path d="M10.398 161 97 11l86.603 150H10.397Z" stroke-width="11"></path></symbol><symbol id="bbburst-shape-12" viewBox="0 0 170 151"><path d="M69.3728 54.2122 85 10.0031l15.627 44.2091c1.413 3.9958 5.19 6.6672 9.428 6.6673h49.312l-39.149 26.1447c-3.803 2.5401-5.399 7.3367-3.875 11.6488l15.179 42.94-40.9683-27.36c-3.3621-2.245-7.7453-2.245-11.1074 0l-40.9682 27.36 15.1785-42.94c1.5243-4.3121-.0712-9.1087-3.8746-11.6488L10.6333 60.8795h49.3112c4.2381-.0001 8.0159-2.6715 9.4283-6.6673Z" stroke-width="12"></path></symbol><symbol id="bbburst-shape-13" viewBox="0 0 159 159"><path stroke-width="22" d="M11 11h137v137H11z"></path></symbol><symbol id="bbburst-shape-14" viewBox="0 0 185 109"><path d="M168 16.5C168 58.1975 134.197 92 92.5 92 50.8025 92 17 58.1975 17 16.5" stroke-width="33" stroke-linecap="round"></path></symbol></defs><use xlink:href="#bbburst-shape-11" width="5.315648072140215" opacity="0.9193304922725373" transform="matrix(0.9990506714063644,0.04356324095487559,-0.04356324095487559,0.9990506714063644,378.609040690447,-2.959235713376472)" fill="none" stroke="#2c2891"></use><use xlink:href="#bbburst-shape-4" width="7.416125551730712" opacity="0.8481888249633681" transform="matrix(0.8833691703926155,-0.46867783049752,0.46867783049752,0.8833691703926155,240.82730276325447,108.9785314162038)" fill="#ffbd9b"></use><use xlink:href="#bbburst-shape-7" width="27.70473105293827" opacity="0.30860351712530043" transform="matrix(0.7864546257434658,0.6176480564582918,-0.6176480564582918,0.7864546257434658,830.7736734713092,-165.8997660740911)" fill="#3db2ff"></use><use xlink:href="#bbburst-shape-10" width="9.508361852927496" opacity="0.7110837344922409" transform="matrix(0.999648655749713,-0.026505943820053387,0.026505943820053387,0.999648655749713,260.4780332755706,-38.2787402230893)" fill="none" stroke="#3db2ff"></use><use xlink:href="#bbburst-shape-2" width="29.577393744483768" opacity="0.08341401149191319" transform="matrix(0.8914210736606064,-0.4531759806452365,0.4531759806452365,0.8914210736606064,-41.43661061564541,-280.18980003747555)" fill="#ffbd9b"></use><use xlink:href="#bbburst-shape-14" width="22.635262919208042" opacity="0.46758801583831" transform="matrix(0.7888418420052936,-0.6145962482001459,0.6145962482001459,0.7888418420052936,361.49793391466915,194.58899526471095)" fill="none" stroke="#2c2891"></use><use xlink:href="#bbburst-shape-3" width="10.387846315595716" opacity="0.681838067189124" transform="matrix(0.9911567184515001,-0.13269649380618073,0.13269649380618073,0.9911567184515001,254.04678154728688,-108.94682713592351)" fill="#2c2891"></use><use xlink:href="#bbburst-shape-8" width="19.74360296583316" opacity="0.46866512505536484" transform="matrix(0.877366196206771,-0.47982138109265393,0.47982138109265393,0.877366196206771,-23.224068986759846,-33.40551013286938)" fill="none" stroke="#ffbd9b"></use><use xlink:href="#bbburst-shape-3" width="12.04364100846772" opacity="0.751031727840757" transform="matrix(0.9137132455543844,-0.406359575866588,0.406359575866588,0.9137132455543844,250.99889335520803,-73.41748500508288)" fill="#ffa6d5"></use><use xlink:href="#bbburst-shape-11" width="7.222922561420613" opacity="0.9120872765920214" transform="matrix(0.8432746708246998,0.5374828644203405,-0.5374828644203405,0.8432746708246998,629.5632277346111,25.223343019603874)" fill="none" stroke="#2c2891"></use><use xlink:href="#bbburst-shape-2" width="22.650463913774708" opacity="0.44109652392878673" transform="matrix(0.8860890071855922,0.46351512526006255,-0.46351512526006255,0.8860890071855922,769.7186579159599,199.95726600609328)" fill="#ffbd9b"></use><use xlink:href="#bbburst-shape-11" width="6.610039380026326" opacity="0.9153282505940152" transform="matrix(0.7981595271609812,-0.60244615460816,0.60244615460816,0.7981595271609812,170.8291428364255,117.89601106737166)" fill="none" stroke="#00a19d"></use><use xlink:href="#bbburst-shape-4" width="10.959738608675394" opacity="0.7403040584111018" transform="matrix(0.932785400609797,-0.36043223553009307,0.36043223553009307,0.932785400609797,365.88251913190084,48.729801162429)" fill="#ffbd9b"></use><use xlink:href="#bbburst-shape-11" width="6.310741161978994" opacity="0.8943004570272074" transform="matrix(0.8096522643467061,-0.5869098830640455,0.5869098830640455,0.8096522643467061,207.43637907755968,93.89755163568032)" fill="none" stroke="#3db2ff"></use><use xlink:href="#bbburst-shape-3" width="13.266357257774985" opacity="0.6909149392272839" transform="matrix(0.9719425712507088,0.23521827775613208,-0.23521827775613208,0.9719425712507088,482.6180864582365,-129.34853754692807)" fill="#3db2ff"></use><use xlink:href="#bbburst-shape-2" width="31.003499162235144" opacity="-0.06376133199980005" transform="matrix(0.9970706621362738,-0.07648591182127851,0.07648591182127851,0.9970706621362738,48.06042874325187,-365.8360306453912)" fill="#3db2ff"></use><use xlink:href="#bbburst-shape-6" width="7.3171075806408705" opacity="0.9362978643968825" transform="matrix(0.9828090326260165,-0.1846250399829711,0.1846250399829711,0.9828090326260165,325.91640249439445,-20.916196822308052)" fill="#2c2891"></use><use xlink:href="#bbburst-shape-5" width="14.998273816373626" opacity="0.6562956144038501" transform="matrix(0.9934073023507798,0.11463826427570534,-0.11463826427570534,0.9934073023507798,516.448282313597,-131.75617080096953)" fill="#ffa6d5"></use><use xlink:href="#bbburst-shape-10" width="24.655919364667113" opacity="0.3143952020953794" transform="matrix(0.9520522675601326,-0.3059354177495794,0.3059354177495794,0.9520522675601326,310.82651830933764,328.1825945629186)" fill="none" stroke="#ffbd9b"></use><use xlink:href="#bbburst-shape-8" width="33.83864006363754" opacity="0.19525494551839895" transform="matrix(0.9236537694615979,-0.3832280184947092,0.3832280184947092,0.9236537694615979,535.5681326860594,233.05732470956622)" fill="none" stroke="#ffa6d5"></use><use xlink:href="#bbburst-shape-7" width="10.422043289754319" opacity="0.7325694364183835" transform="matrix(0.9952542861874317,0.09730830296303501,-0.09730830296303501,0.9952542861874317,314.30190608216463,16.43952267702781)" fill="#ffbd9b"></use><use xlink:href="#bbburst-shape-1" width="17.30384246791303" opacity="0.6278790454118044" transform="matrix(0.9875840611809881,-0.157091445028895,0.157091445028895,0.9875840611809881,476.87179156248953,-71.51847854389081)" fill="#00a19d"></use><use xlink:href="#bbburst-shape-3" width="21.366912411757212" opacity="0.42126574671619377" transform="matrix(0.7817203369160283,-0.6236291484944327,0.6236291484944327,0.7817203369160283,130.89266468540217,354.21296093428714)" fill="#2c2891"></use><use xlink:href="#bbburst-shape-11" width="18.208272960770156" opacity="0.562012869638383" transform="matrix(0.901353024476628,-0.43308512473512095,0.43308512473512095,0.901353024476628,322.97286864088403,210.29142428143717)" fill="none" stroke="#ffbd9b"></use><use xlink:href="#bbburst-shape-9" width="11.445572926853488" opacity="0.738082581627385" transform="matrix(0.8867884439127347,-0.4621755680938042,0.4621755680938042,0.8867884439127347,124.17763796525938,128.62544883890797)" fill="none" stroke="#2c2891"></use><use xlink:href="#bbburst-shape-13" width="11.862488965944008" opacity="0.724340184267675" transform="matrix(0.7842375606807639,-0.6204606743521182,0.6204606743521182,0.7842375606807639,253.96149641126217,26.882154737865847)" fill="none" stroke="#ffbd9b"></use><use xlink:href="#bbburst-shape-6" width="11.377127220844788" opacity="0.7280247076663251" transform="matrix(0.841293213187506,0.5405790686334807,-0.5405790686334807,0.841293213187506,489.6928711000745,47.94741875161975)" fill="#ffa6d5"></use><use xlink:href="#bbburst-shape-10" width="7.398785334066952" opacity="0.9001722743500715" transform="matrix(0.9903288257053994,-0.1387401058705255,0.1387401058705255,0.9903288257053994,299.42029761141436,-13.00818611686367)" fill="none" stroke="#ffbd9b"></use><use xlink:href="#bbburst-shape-12" width="14.264225311189936" opacity="0.6636595697721759" transform="matrix(0.7566267539918792,-0.6538470426206058,0.6538470426206058,0.7566267539918792,-18.163938775840904,108.53183452390078)" fill="none" stroke="#2c2891"></use><use xlink:href="#bbburst-shape-13" width="25.665116993137886" opacity="0.4854461431587318" transform="matrix(0.9898869912636846,-0.1418581845609547,0.1418581845609547,0.9898869912636846,408.94587650523744,-212.0099431236259)" fill="none" stroke="#2c2891"></use><use xlink:href="#bbburst-shape-8" width="29.530040501543503" opacity="0.3560760707637849" transform="matrix(0.8949739208037241,-0.44611846081641754,0.44611846081641754,0.8949739208037241,81.99419541299596,-212.17333527795273)" fill="none" stroke="#ffbd9b"></use><use xlink:href="#bbburst-shape-10" width="16.1533264486733" opacity="0.5228046658682122" transform="matrix(0.9693422436067656,-0.24571449847211288,0.24571449847211288,0.9693422436067656,320.7560841200924,-198.80238732915763)" fill="none" stroke="#ffbd9b"></use><use xlink:href="#bbburst-shape-3" width="6.815626860928038" opacity="0.916399867297265" transform="matrix(0.7543347687969479,0.6564899516245889,-0.6564899516245889,0.7543347687969479,635.3684942471633,67.58162675412245)" fill="#00a19d"></use><use xlink:href="#bbburst-shape-7" width="7.623762019882142" opacity="0.8570691816668091" transform="matrix(0.7726753616591127,0.6348013748291346,-0.6348013748291346,0.7726753616591127,699.9546549972868,46.825249743994675)" fill="#ffbd9b"></use><use xlink:href="#bbburst-shape-7" width="18.701461421043028" opacity="0.5753992583944387" transform="matrix(0.9902568170238184,0.13925313762301997,-0.13925313762301997,0.9902568170238184,339.3394140652897,-155.6954345102722)" fill="#ffa6d5"></use><use xlink:href="#bbburst-shape-8" width="8.098555317076238" opacity="0.8678363946802666" transform="matrix(0.8350345766571836,0.5501974698114834,-0.5501974698114834,0.8350345766571836,577.9458730642223,108.87375904508752)" fill="none" stroke="#3db2ff"></use><use xlink:href="#bbburst-shape-2" width="21.383570878975068" opacity="0.16484081194483857" transform="matrix(0.7691862699293218,-0.6390246334471125,0.6390246334471125,0.7691862699293218,72.0635297630169,469.47930918198796)" fill="#3db2ff"></use><use xlink:href="#bbburst-shape-14" width="7.233502419308197" opacity="0.8801677995888113" transform="matrix(0.93918746320631,0.343404876139079,-0.343404876139079,0.93918746320631,567.4578774103982,65.35165721636997)" fill="none" stroke="#ffbd9b"></use><use xlink:href="#bbburst-shape-10" width="15.03270330385635" opacity="0.6687283683427165" transform="matrix(0.8400061763461343,0.542576836678776,-0.542576836678776,0.8400061763461343,677.9348390770724,192.9767893565205)" fill="none" stroke="#ffa6d5"></use><use xlink:href="#bbburst-shape-11" width="37.80580154448941" opacity="0.11133322256360012" transform="matrix(0.8217842376357232,-0.5697987949912435,0.5697987949912435,0.8217842376357232,-145.1207208711242,-181.1823757851194)" fill="none" stroke="#2c2891"></use><use xlink:href="#bbburst-shape-12" width="19.60266589959719" opacity="0.5778127971895887" transform="matrix(0.7795920928668754,0.6262876086427427,-0.6262876086427427,0.7795920928668754,822.123129589547,145.01864046353086)" fill="none" stroke="#ffbd9b"></use><use xlink:href="#bbburst-shape-4" width="29.1491965336608" opacity="0.1507743688464256" transform="matrix(0.8999148156063438,0.43606573432476936,-0.43606573432476936,0.8999148156063438,193.04856900190111,135.8373354182803)" fill="#ffa6d5"></use><use xlink:href="#bbburst-shape-11" width="11.786716305620002" opacity="0.716966083025349" transform="matrix(0.936005841342087,-0.3519844669491706,0.3519844669491706,0.936005841342087,142.72119655197776,-35.077636930772314)" fill="none" stroke="#ffa6d5"></use><use xlink:href="#bbburst-shape-10" width="4.578408952387561" opacity="0.9915786774391817" transform="matrix(0.9959775428775048,-0.08960320353474037,0.08960320353474037,0.9959775428775048,361.0386189151307,5.509405189921836)" fill="none" stroke="#ffbd9b"></use><use xlink:href="#bbburst-shape-7" width="12.079291509788115" opacity="0.7345171371288868" transform="matrix(0.936799832197989,0.3498657948325608,-0.3498657948325608,0.936799832197989,476.8128423518107,-81.60633835634644)" fill="#ffbd9b"></use><use xlink:href="#bbburst-shape-13" width="31.372003847942313" opacity="0.33930935818943697" transform="matrix(0.9904917531390496,0.13757211550140583,-0.13757211550140583,0.9904917531390496,559.8111242195691,-270.231489143819)" fill="none" stroke="#00a19d"></use><use xlink:href="#bbburst-shape-10" width="8.036750344853266" opacity="0.8016093147411874" transform="matrix(0.8685259333189539,-0.4956437260295343,0.4956437260295343,0.8685259333189539,281.61513537764137,86.5317723046391)" fill="none" stroke="#ffa6d5"></use><use xlink:href="#bbburst-shape-12" width="6.211058594991174" opacity="0.973819586793596" transform="matrix(0.8381470921796922,-0.5454442701786558,0.5454442701786558,0.8381470921796922,168.36489188006001,61.831159369680734)" fill="none" stroke="#ffa6d5"></use><use xlink:href="#bbburst-shape-3" width="7.131910640212117" opacity="0.8303636856840177" transform="matrix(0.9517661646108684,-0.3068243274284447,0.3068243274284447,0.9517661646108684,323.7325475022667,78.1801663435225)" fill="#00a19d"></use><use xlink:href="#bbburst-shape-12" width="35.06281225690301" opacity="0.007584725032106832" transform="matrix(0.9357838681844496,-0.35257417949383174,0.35257417949383174,0.9357838681844496,-23.590370974511643,390.43500741905484)" fill="none" stroke="#ffbd9b"></use><use xlink:href="#bbburst-shape-12" width="14.992508441595495" opacity="0.6904842361831774" transform="matrix(0.9915786613933536,-0.12950582330291172,0.12950582330291172,0.9915786613933536,329.28646845364517,143.1210304045842)" fill="none" stroke="#2c2891"></use><use xlink:href="#bbburst-shape-8" width="22.414419772010994" opacity="0.4503147126628694" transform="matrix(0.9784963187406727,-0.2062642824411242,0.2062642824411242,0.9784963187406727,483.63548086841024,-161.76906865207567)" fill="none" stroke="#ffa6d5"></use><use xlink:href="#bbburst-shape-6" width="9.809784992346751" opacity="0.7624368399474926" transform="matrix(0.8125009280294765,-0.5829598973782325,0.5829598973782325,0.8125009280294765,269.7035202743547,75.29402723207329)" fill="#2c2891"></use><use xlink:href="#bbburst-shape-9" width="6.84130614455534" opacity="0.9015252472150748" transform="matrix(0.9638911242952201,-0.2662966400555901,0.2662966400555901,0.9638911242952201,294.76865841953384,-28.76456871233296)" fill="none" stroke="#ffbd9b"></use><use xlink:href="#bbburst-shape-9" width="21.953242351349488" opacity="0.4873677437011591" transform="matrix(0.8398859110614366,0.5427629836314378,-0.5427629836314378,0.8398859110614366,451.39119371214406,-111.44573301798823)" fill="none" stroke="#2c2891"></use><use xlink:href="#bbburst-shape-5" width="4.8175332121394305" opacity="0.9480871202343711" transform="matrix(0.7778148075830843,-0.6284935362471834,0.6284935362471834,0.7778148075830843,155.16476583631172,112.17247960804701)" fill="#ffa6d5"></use><use xlink:href="#bbburst-shape-12" width="13.91050093261645" opacity="0.6331600969144522" transform="matrix(0.9154117398445777,-0.40251875304726265,0.40251875304726265,0.9154117398445777,254.63579490331432,200.21452614673467)" fill="none" stroke="#00a19d"></use><use xlink:href="#bbburst-shape-10" width="9.229384421620106" opacity="0.7104817693759546" transform="matrix(0.9739851259056127,-0.22661194698123874,0.22661194698123874,0.9739851259056127,207.7050413245071,-75.34988533392612)" fill="none" stroke="#ffbd9b"></use><use xlink:href="#bbburst-shape-3" width="8.262293058363229" opacity="0.8053076404006059" transform="matrix(0.9429147682087294,0.3330341422345133,-0.3330341422345133,0.9429147682087294,604.9866995069875,-22.660997591876765)" fill="#2c2891"></use><use xlink:href="#bbburst-shape-8" width="9.960588113675868" opacity="0.7920064979899202" transform="matrix(0.9999969951480907,0.002451467884657302,-0.002451467884657302,0.9999969951480907,442.4602611544112,81.24097924081622)" fill="none" stroke="#2c2891"></use><use xlink:href="#bbburst-shape-12" width="11.355282125036865" opacity="0.6446869238448071" transform="matrix(0.7390095836034494,-0.6736949126587318,0.6736949126587318,0.7390095836034494,227.9371400565865,231.64619911220274)" fill="none" stroke="#ffa6d5"></use><use xlink:href="#bbburst-shape-5" width="7.998557141736351" opacity="0.8769400483673513" transform="matrix(0.9701183923076211,-0.24263203602673045,0.24263203602673045,0.9701183923076211,328.5798396959574,-33.934513476160134)" fill="#ffbd9b"></use><use xlink:href="#bbburst-shape-10" width="6.595841664970813" opacity="0.9450369293689822" transform="matrix(0.9158534141460597,-0.40151279406390783,0.40151279406390783,0.9158534141460597,225.7974307208895,12.625099413824614)" fill="none" stroke="#2c2891"></use><use xlink:href="#bbburst-shape-12" width="8.020831777670079" opacity="0.8437034766913183" transform="matrix(0.946746661123949,0.3219794397949261,-0.3219794397949261,0.946746661123949,593.8868374424014,34.18576059131965)" fill="none" stroke="#3db2ff"></use><use xlink:href="#bbburst-shape-11" width="16.044643167527063" opacity="0.6375867708601275" transform="matrix(0.924102160678172,-0.3821455176106793,0.3821455176106793,0.924102160678172,127.90929444768949,152.02427249468025)" fill="none" stroke="#ffbd9b"></use><use xlink:href="#bbburst-shape-7" width="21.355166571043327" opacity="0.37243832709176194" transform="matrix(0.993392755388823,0.1147642520169159,-0.1147642520169159,0.993392755388823,257.9008690542327,-218.38916853275197)" fill="#ffa6d5"></use><use xlink:href="#bbburst-shape-7" width="11.429051526375332" opacity="0.6138768775002084" transform="matrix(0.7673858622969778,0.6411855724723723,-0.6411855724723723,0.7673858622969778,532.4505217095168,-36.681422529524184)" fill="#ffa6d5"></use><use xlink:href="#bbburst-shape-8" width="18.43229293433581" opacity="0.4643192856748014" transform="matrix(0.9990594730859025,0.0433609183172926,-0.0433609183172926,0.9990594730859025,340.18884804651395,-231.30508760893503)" fill="none" stroke="#00a19d"></use><use xlink:href="#bbburst-shape-6" width="16.805588013015598" opacity="0.5981058314390845" transform="matrix(0.9500802897997102,0.3120055174738081,-0.3120055174738081,0.9500802897997102,349.432284526703,85.8250550260745)" fill="#ffbd9b"></use><use xlink:href="#bbburst-shape-13" width="19.661542390547044" opacity="0.594515692452256" transform="matrix(0.9970462012196761,0.07680411859668144,-0.07680411859668144,0.9970462012196761,488.2986967436985,-169.1454866866199)" fill="none" stroke="#2c2891"></use><use xlink:href="#bbburst-shape-9" width="27.26445952570183" opacity="0.23439300003345154" transform="matrix(0.9346339718123499,-0.35561121851577127,0.35561121851577127,0.9346339718123499,53.680961417933645,-255.73079387916755)" fill="none" stroke="#ffbd9b"></use><use xlink:href="#bbburst-shape-6" width="30.456469142602643" opacity="0.234141524639626" transform="matrix(0.9626147466936935,0.27087423179002523,-0.27087423179002523,0.9626147466936935,585.7491652349903,-321.28408273859117)" fill="#00a19d"></use><use xlink:href="#bbburst-shape-13" width="6.46250317295049" opacity="0.876726695831638" transform="matrix(0.9145735640310212,-0.4044195791199972,0.4044195791199972,0.9145735640310212,250.4574074577337,88.8328240664053)" fill="none" stroke="#2c2891"></use><use xlink:href="#bbburst-shape-3" width="11.938526871802924" opacity="0.7506091063865966" transform="matrix(0.9386298358650301,0.3449261242990832,-0.3449261242990832,0.9386298358650301,572.3956741821657,127.30171121394858)" fill="#3db2ff"></use><use xlink:href="#bbburst-shape-3" width="8.557776924817698" opacity="0.7708837511780888" transform="matrix(0.9704733926957001,-0.2412081965226255,0.2412081965226255,0.9704733926957001,204.0261786815447,-26.47871407926027)" fill="#ffa6d5"></use><use xlink:href="#bbburst-shape-4" width="26.746663663081215" opacity="0.20872760622603603" transform="matrix(0.9730063802293467,0.23077821394790293,-0.23077821394790293,0.9730063802293467,159.2955321392722,163.9049324838162)" fill="#ffa6d5"></use><use xlink:href="#bbburst-shape-4" width="8.83256046210148" opacity="0.8979350020667347" transform="matrix(0.9150753219608088,0.4032829715451945,-0.4032829715451945,0.9150753219608088,513.102501180812,44.79941163714494)" fill="#ffa6d5"></use><use xlink:href="#bbburst-shape-3" width="6.781186976881731" opacity="0.842597883578828" transform="matrix(0.9891880757604086,-0.1466524830114386,0.1466524830114386,0.9891880757604086,402.84277603494536,-23.585111637127227)" fill="#ffa6d5"></use><use xlink:href="#bbburst-shape-11" width="30.98686951119621" opacity="0.29588680585152205" transform="matrix(0.8233076354835437,0.5675953993422571,-0.5675953993422571,0.8233076354835437,862.5279862520914,-135.62863620304628)" fill="none" stroke="#3db2ff"></use><use xlink:href="#bbburst-shape-8" width="19.515044586919075" opacity="0.4531624099330632" transform="matrix(0.7569049827906384,-0.653524939865881,0.653524939865881,0.7569049827906384,120.072555673985,-142.21021779099547)" fill="none" stroke="#2c2891"></use><use xlink:href="#bbburst-shape-12" width="29.16164148571563" opacity="0.34100145545630156" transform="matrix(0.9922745319666646,-0.12406148963452215,0.12406148963452215,0.9922745319666646,80.57070599683503,155.67149074452328)" fill="none" stroke="#ffbd9b"></use><use xlink:href="#bbburst-shape-2" width="5.443868351927676" opacity="0.8589359864205476" transform="matrix(0.9390656956352315,0.3437377187349662,-0.3437377187349662,0.9390656956352315,597.2931201744628,11.549234436907057)" fill="#ffa6d5"></use><use xlink:href="#bbburst-shape-11" width="22.41721657784284" opacity="0.0846188487306253" transform="matrix(0.8503787820213716,0.5261710055560345,-0.5261710055560345,0.8503787820213716,420.9424341205164,-316.73590759136147)" fill="none" stroke="#3db2ff"></use><use xlink:href="#bbburst-shape-11" width="10.967806644255642" opacity="0.8335012541495257" transform="matrix(0.9940058327432607,-0.10932705279287801,0.10932705279287801,0.9940058327432607,314.6468985539707,68.48009985289139)" fill="none" stroke="#ffbd9b"></use><use xlink:href="#bbburst-shape-7" width="27.48152336631646" opacity="0.2616069212474671" transform="matrix(0.996450921128818,0.08417577906696339,-0.08417577906696339,0.996450921128818,290.95779533929965,306.49189747902795)" fill="#ffa6d5"></use><use xlink:href="#bbburst-shape-4" width="14.207373688936729" opacity="0.6620322749777185" transform="matrix(0.9598513847933267,-0.28050903570176355,0.28050903570176355,0.9598513847933267,433.0634274197208,17.02760777669789)" fill="#ffa6d5"></use><use xlink:href="#bbburst-shape-12" width="22.33063712559882" opacity="0.44372039547901954" transform="matrix(0.998144279373819,-0.060893329300667216,0.060893329300667216,0.998144279373819,614.7273671958071,-5.4798487910905465)" fill="none" stroke="#ffa6d5"></use><use xlink:href="#bbburst-shape-7" width="13.133668113486715" opacity="0.630835814934298" transform="matrix(0.9532082218951289,0.30231454763462284,-0.30231454763462284,0.9532082218951289,628.2546139923376,-104.46827273937066)" fill="#ffa6d5"></use><use xlink:href="#bbburst-shape-2" width="23.78093698483221" opacity="0.43683706031151837" transform="matrix(0.906826148154868,0.421504848160262,-0.421504848160262,0.906826148154868,307.17187654676593,-5.171381585223969)" fill="#2c2891"></use><use xlink:href="#bbburst-shape-1" width="6.316508431058752" opacity="0.9210858908636911" transform="matrix(0.7828775351262162,-0.6221758312524684,0.6221758312524684,0.7828775351262162,181.26850540436368,74.75318902362443)" fill="#3db2ff"></use><use xlink:href="#bbburst-shape-5" width="7.211730873010433" opacity="0.8333792823423732" transform="matrix(0.9993274494796789,0.036669452088077675,-0.036669452088077675,0.9993274494796789,435.87121012486466,-70.61995800281761)" fill="#00a19d"></use><use xlink:href="#bbburst-shape-3" width="28.3346953173197" opacity="0.3291761832808714" transform="matrix(0.9632994937157675,0.26842892058596457,-0.26842892058596457,0.9632994937157675,200.72450749031287,83.9110077798843)" fill="#ffa6d5"></use><use xlink:href="#bbburst-shape-1" width="15.631939228149228" opacity="0.15557677112948032" transform="matrix(0.9255382609233266,-0.3786541001587388,0.3786541001587388,0.9255382609233266,284.296842822995,-344.7885083340736)" fill="#ffbd9b"></use><use xlink:href="#bbburst-shape-7" width="33.31257679340419" opacity="0.1332602851195518" transform="matrix(0.9353890349575532,-0.35362035190466246,0.35362035190466246,0.9353890349575532,522.9932031823836,-239.61693406590496)" fill="#2c2891"></use><use xlink:href="#bbburst-shape-14" width="21.937049533560327" opacity="0.5538632922711684" transform="matrix(0.8665840449760214,0.4990311543310667,-0.4990311543310667,0.8665840449760214,706.4095988360796,-115.71384705786525)" fill="none" stroke="#3db2ff"></use><use xlink:href="#bbburst-shape-3" width="21.784996846169435" opacity="0.425281304427631" transform="matrix(0.9999990906749798,0.001348573028632263,-0.001348573028632263,0.9999990906749798,635.6864511246899,-79.44809300751479)" fill="#00a19d"></use><use xlink:href="#bbburst-shape-4" width="10.028816590690942" opacity="0.8473771530050292" transform="matrix(0.7607313506457143,-0.6490668780216314,0.6490668780216314,0.7607313506457143,138.8140373087732,167.6125125599885)" fill="#ffa6d5"></use><use xlink:href="#bbburst-shape-8" width="15.564980959554777" opacity="0.552259600765413" transform="matrix(0.9887233007407216,-0.14975391337915894,0.14975391337915894,0.9887233007407216,153.6413285738195,-87.27270576656167)" fill="none" stroke="#ffa6d5"></use><use xlink:href="#bbburst-shape-9" width="42.75919599139654" opacity="-0.09685019589522303" transform="matrix(0.7385224238477957,-0.674228914741853,0.674228914741853,0.7385224238477957,-242.17893144476466,460.15614890622226)" fill="none" stroke="#ffbd9b"></use><use xlink:href="#bbburst-shape-14" width="11.156000833400732" opacity="0.7690790083055966" transform="matrix(0.865142379281105,-0.5015263338767254,0.5015263338767254,0.865142379281105,96.1126225618664,89.98173074695092)" fill="none" stroke="#2c2891"></use><use xlink:href="#bbburst-shape-13" width="24.957723119166744" opacity="0.16575649774150458" transform="matrix(0.9394050041783341,-0.34280933202686337,0.34280933202686337,0.9394050041783341,189.9485838217724,-341.87082385685386)" fill="none" stroke="#2c2891"></use><use xlink:href="#bbburst-shape-11" width="20.704057429164365" opacity="0.6141889146148879" transform="matrix(0.9907846668769703,0.135446461310331,-0.135446461310331,0.9907846668769703,392.1499374465543,167.7244462316428)" fill="none" stroke="#ffa6d5"></use><use xlink:href="#bbburst-shape-12" width="20.75782958484034" opacity="0.5555192713508039" transform="matrix(0.991435430153702,0.13059780946074054,-0.13059780946074054,0.991435430153702,601.2352256636673,-118.9463861819176)" fill="none" stroke="#00a19d"></use><use xlink:href="#bbburst-shape-7" width="6.577771508903022" opacity="0.9284340227800161" transform="matrix(0.9771143907046401,-0.21271452107907396,0.21271452107907396,0.9771143907046401,343.4134975622886,15.328628179283385)" fill="#ffa6d5"></use><use xlink:href="#bbburst-shape-14" width="4.729128923243614" opacity="0.9750307714128518" transform="matrix(0.9944244656203262,-0.105451326097535,0.105451326097535,0.9944244656203262,364.47882573263064,-4.2275065343691836)" fill="none" stroke="#ffa6d5"></use><use xlink:href="#bbburst-shape-12" width="6.06786691894329" opacity="0.8842353205309714" transform="matrix(0.738732981355991,0.6739982064196381,-0.6739982064196381,0.738732981355991,714.5468054942594,80.36957892517927)" fill="none" stroke="#ffa6d5"></use><use xlink:href="#bbburst-shape-3" width="17.0336491541431" opacity="0.541334457782259" transform="matrix(0.9640686287631238,-0.2656533060866929,0.2656533060866929,0.9640686287631238,477.08351540762374,-60.04955490016613)" fill="#00a19d"></use><use xlink:href="#bbburst-shape-6" width="30.8608563765084" opacity="0.21592934248946816" transform="matrix(0.9058733162705254,0.4235487396617309,-0.4235487396617309,0.9058733162705254,758.857225943874,319.40738313179963)" fill="#3db2ff"></use><use xlink:href="#bbburst-shape-10" width="14.536900342004452" opacity="0.6939589124933045" transform="matrix(0.9868921963530196,-0.16138089347104584,0.16138089347104584,0.9868921963530196,457.27267216327243,-41.81090712742014)" fill="none" stroke="#00a19d"></use><use xlink:href="#bbburst-shape-3" width="5.243342521291852" opacity="0.964124287774977" transform="matrix(0.9357332351410346,0.3527085378219434,-0.3527085378219434,0.9357332351410346,535.2470119109415,40.564553376447634)" fill="#2c2891"></use><use xlink:href="#bbburst-shape-12" width="8.861380193282082" opacity="0.8975650522043798" transform="matrix(0.9844985773703621,0.1753925630000691,-0.1753925630000691,0.9844985773703621,445.307793312062,46.69897601988282)" fill="none" stroke="#ffa6d5"></use><use xlink:href="#bbburst-shape-3" width="5.330590332852938" opacity="0.9462468711636278" transform="matrix(0.9647661703758034,0.26310879213436844,-0.26310879213436844,0.9647661703758034,478.7431836049775,17.05403743699634)" fill="#2c2891"></use><use xlink:href="#bbburst-shape-9" width="28.182110278416758" opacity="0.10682656278160862" transform="matrix(0.7405433733283675,0.6720085655848757,-0.6720085655848757,0.7405433733283675,493.87267292198806,460.84049334677934)" fill="none" stroke="#2c2891"></use><use xlink:href="#bbburst-shape-9" width="12.580313615862899" opacity="0.7750677553007126" transform="matrix(0.8873914322523014,-0.46101675236937883,0.46101675236937883,0.8873914322523014,161.70604003328873,136.83853168276568)" fill="none" stroke="#ffbd9b"></use><use xlink:href="#bbburst-shape-6" width="8.397797689654109" opacity="0.849737424625541" transform="matrix(0.8083718493282639,-0.588672195040332,0.588672195040332,0.8083718493282639,116.72287211434127,28.136746581701345)" fill="#2c2891"></use><use xlink:href="#bbburst-shape-3" width="12.23337786012099" opacity="0.6480939656134665" transform="matrix(0.9532078615083449,0.3023156839442639,-0.3023156839442639,0.9532078615083449,386.14811103840253,-75.13088596187515)" fill="#ffa6d5"></use><use xlink:href="#bbburst-shape-8" width="6.370859532551503" opacity="0.8345202055357362" transform="matrix(0.9540218737867885,0.29973699193850784,-0.29973699193850784,0.9540218737867885,557.1697769253009,-45.17309920119624)" fill="none" stroke="#3db2ff"></use><use xlink:href="#bbburst-shape-2" width="24.087131842833305" opacity="0.43303457537826584" transform="matrix(0.9697772064157936,0.24399215134175783,-0.24399215134175783,0.9697772064157936,541.7138605830478,258.12017082397756)" fill="#2c2891"></use><use xlink:href="#bbburst-shape-13" width="26.26187820006431" opacity="0.3829502612457716" transform="matrix(0.9904843268488553,0.1376255727209513,-0.1376255727209513,0.9904843268488553,489.2337292275216,-271.63403934012865)" fill="none" stroke="#00a19d"></use><use xlink:href="#bbburst-shape-2" width="9.851607480110271" opacity="0.8089281822306843" transform="matrix(0.7908102388354379,0.6120614071749971,-0.6120614071749971,0.7908102388354379,581.1205354907893,142.4407355740583)" fill="#2c2891"></use><use xlink:href="#bbburst-shape-4" width="31.738883513619115" opacity="0.2940816413019397" transform="matrix(0.7242373956153404,0.6895507195212757,-0.6895507195212757,0.7242373956153404,894.1225961165189,318.6883584991794)" fill="#ffa6d5"></use><use xlink:href="#bbburst-shape-10" width="37.3990345731911" opacity="0.09037538670793277" transform="matrix(0.996105932892727,0.08816445120290947,-0.08816445120290947,0.996105932892727,709.0429594889177,286.35604517950327)" fill="none" stroke="#00a19d"></use><use xlink:href="#bbburst-shape-5" width="6.541234836110537" opacity="0.8736682282366833" transform="matrix(0.7290187010509708,-0.6844937790206389,0.6844937790206389,0.7290187010509708,180.5297882839277,114.58503748978916)" fill="#3db2ff"></use><use xlink:href="#bbburst-shape-12" width="19.193694160846803" opacity="0.6105302663716653" transform="matrix(0.930545800258764,0.3661755229678473,-0.3661755229678473,0.930545800258764,447.7146594162425,174.72004059278754)" fill="none" stroke="#ffbd9b"></use><use xlink:href="#bbburst-shape-3" width="28.041399409685916" opacity="0.3339877321909026" transform="matrix(0.9902142232455236,-0.13955569526989708,0.13955569526989708,0.9902142232455236,591.8562052999562,152.0135214613548)" fill="#3db2ff"></use><use xlink:href="#bbburst-shape-5" width="10.312418394687542" opacity="0.7737865889514296" transform="matrix(0.785779725463069,-0.6185064454402912,0.6185064454402912,0.785779725463069,118.93317567992045,-8.516413090455558)" fill="#ffbd9b"></use><use xlink:href="#bbburst-shape-5" width="21.336779993049397" opacity="0.4743933479676905" transform="matrix(0.9624566035022125,0.27143560262976707,-0.27143560262976707,0.9624566035022125,312.12734776861333,157.99994354840277)" fill="#2c2891"></use><use xlink:href="#bbburst-shape-14" width="11.488483567549075" opacity="0.663941709246827" transform="matrix(0.951011549343883,-0.3091553541741549,0.3091553541741549,0.951011549343883,407.0009972599471,87.26770072421698)" fill="none" stroke="#2c2891"></use><use xlink:href="#bbburst-shape-5" width="7.896917061365915" opacity="0.8631202022461923" transform="matrix(0.86918965292857,0.4944788643025221,-0.4944788643025221,0.86918965292857,578.194191389756,109.80853280057715)" fill="#00a19d"></use><use xlink:href="#bbburst-shape-11" width="30.22565192135642" opacity="0.3230826294455801" transform="matrix(0.9321828255588335,0.3619878171059758,-0.3619878171059758,0.9321828255588335,310.1374392378655,231.23532349317776)" fill="none" stroke="#ffa6d5"></use><use xlink:href="#bbburst-shape-7" width="5.549756336902079" opacity="0.8846697037113918" transform="matrix(0.9992474841172013,-0.038787439789751,0.038787439789751,0.9992474841172013,356.7511796628613,-45.10516074837494)" fill="#ffbd9b"></use><use xlink:href="#bbburst-shape-6" width="23.148095479671447" opacity="0.315042923429958" transform="matrix(0.9209843360783679,0.38959960561875284,-0.38959960561875284,0.9209843360783679,852.8212760621752,46.15340705312286)" fill="#ffa6d5"></use><use xlink:href="#bbburst-shape-11" width="31.271264098430965" opacity="0.050951758435668126" transform="matrix(0.823428358484487,-0.5674202485314945,0.5674202485314945,0.823428358484487,-208.22815282337586,-137.2820961720568)" fill="none" stroke="#00a19d"></use><use xlink:href="#bbburst-shape-2" width="14.393206555465738" opacity="0.7007408067776675" transform="matrix(0.9150074973046495,0.4034368350513893,-0.4034368350513893,0.9150074973046495,439.0733085457823,99.98767124257881)" fill="#2c2891"></use><use xlink:href="#bbburst-shape-5" width="6.749333892341757" opacity="0.8298575208920766" transform="matrix(0.9902274580169736,0.1394617560094622,-0.1394617560094622,0.9902274580169736,376.0688291869116,8.827936577453386)" fill="#ffbd9b"></use><use xlink:href="#bbburst-shape-13" width="9.29657201506235" opacity="0.8124147555173402" transform="matrix(0.8235142946953948,-0.5672955194890459,0.5672955194890459,0.8235142946953948,229.1364744075918,13.735954383826822)" fill="none" stroke="#2c2891"></use><use xlink:href="#bbburst-shape-8" width="14.616587899816118" opacity="0.6191769794406216" transform="matrix(0.9156786440722517,0.4019112100825288,-0.4019112100825288,0.9156786440722517,548.0884939024088,-140.47459873473088)" fill="none" stroke="#ffa6d5"></use><use xlink:href="#bbburst-shape-1" width="7.58136542751548" opacity="0.8228889701562985" transform="matrix(0.7890941558949955,0.6142722630335545,-0.6142722630335545,0.7890941558949955,623.1175608835022,4.787712888314786)" fill="#ffbd9b"></use><use xlink:href="#bbburst-shape-7" width="31.54572806021207" opacity="0.1469964254233258" transform="matrix(0.7827813424457266,0.6222968503205412,-0.6222968503205412,0.7827813424457266,998.3256009814854,205.12264153443073)" fill="#00a19d"></use><use xlink:href="#bbburst-shape-1" width="7.307955362484951" opacity="0.7957686073284829" transform="matrix(0.8771454710322029,-0.48022476263484676,0.48022476263484676,0.8771454710322029,211.77528123085108,142.5369267040557)" fill="#ffbd9b"></use><use xlink:href="#bbburst-shape-10" width="5.6397264370010145" opacity="0.9129400276940538" transform="matrix(0.9992297193204325,0.039242426362417204,-0.039242426362417204,0.9992297193204325,402.6700057788918,-37.625913431922015)" fill="none" stroke="#ffbd9b"></use><use xlink:href="#bbburst-shape-11" width="16.883848228821165" opacity="0.33853233761771373" transform="matrix(0.9984161732354974,0.056259621592980404,-0.056259621592980404,0.9984161732354974,390.6101854081461,-296.791775966621)" fill="none" stroke="#00a19d"></use><use xlink:href="#bbburst-shape-6" width="17.640468836927024" opacity="0.5302543740884849" transform="matrix(0.9483772974626127,0.3171442915417383,-0.3171442915417383,0.9483772974626127,539.9763607333423,228.14295804298206)" fill="#ffbd9b"></use><use xlink:href="#bbburst-shape-8" width="25.031084254095315" opacity="0.5019254629756278" transform="matrix(0.9717267429515841,0.23610831631415669,-0.23610831631415669,0.9717267429515841,338.8582317377237,180.59124373411373)" fill="none" stroke="#ffbd9b"></use><use xlink:href="#bbburst-shape-2" width="8.499870814238166" opacity="0.8349206411089528" transform="matrix(0.7769812541865831,-0.6295237331845752,0.6295237331845752,0.7769812541865831,72.63374950288824,74.64549099521435)" fill="#2c2891"></use><use xlink:href="#bbburst-shape-8" width="9.094036655280837" opacity="0.7627273801369484" transform="matrix(0.9382142591191946,-0.3460549146962381,0.3460549146962381,0.9382142591191946,356.87312992209837,-12.286495435625739)" fill="none" stroke="#ffbd9b"></use><use xlink:href="#bbburst-shape-6" width="5.696982348185327" opacity="0.8446306299526408" transform="matrix(0.9686669362895121,-0.2483633760027643,0.2483633760027643,0.9686669362895121,353.9766750673327,54.99204342905375)" fill="#ffa6d5"></use><use xlink:href="#bbburst-shape-6" width="26.801292250727716" opacity="0.4272019366325459" transform="matrix(0.9102639093731592,-0.4140285199025462,0.4140285199025462,0.9102639093731592,444.1595104164189,-89.5897304930952)" fill="#2c2891"></use><use xlink:href="#bbburst-shape-8" width="13.610429604274058" opacity="0.7001751942131926" transform="matrix(0.9955822926199147,-0.09389301689515799,0.09389301689515799,0.9955822926199147,309.9833203255262,129.35745788367666)" fill="none" stroke="#2c2891"></use><use xlink:href="#bbburst-shape-3" width="5.727431939953549" opacity="0.9489875921882074" transform="matrix(0.9138471663963691,-0.40605831658682595,0.40605831658682595,0.9138471663963691,257.120233289287,29.71822834296637)" fill="#ffa6d5"></use><use xlink:href="#bbburst-shape-3" width="6.351341692056436" opacity="0.9014924814779671" transform="matrix(0.9952018857412679,0.09784276476584422,-0.09784276476584422,0.9952018857412679,480.0818002818855,-2.59082345522836)" fill="#ffa6d5"></use><use xlink:href="#bbburst-shape-6" width="10.495681339152913" opacity="0.7217175188526523" transform="matrix(0.9984905661928867,-0.05492348517536556,0.05492348517536556,0.9984905661928867,496.52747832984494,-18.370189460983113)" fill="#ffa6d5"></use><use xlink:href="#bbburst-shape-7" width="11.745482210884806" opacity="0.6465892441623129" transform="matrix(0.9384243392567535,0.34548481803188624,-0.34548481803188624,0.9384243392567535,387.11024988320185,-41.54038017238787)" fill="#00a19d"></use><use xlink:href="#bbburst-shape-7" width="9.57589866713032" opacity="0.7999785415148017" transform="matrix(0.9630130556809414,0.2694547356942462,-0.2694547356942462,0.9630130556809414,458.32207342393076,-64.56657665944249)" fill="#2c2891"></use><use xlink:href="#bbburst-shape-7" width="7.753590941954791" opacity="0.7860488287211415" transform="matrix(0.9902327849394872,0.13942392775627604,-0.13942392775627604,0.9902327849394872,357.3691011000893,-14.880382047576745)" fill="#ffbd9b"></use><use xlink:href="#bbburst-shape-2" width="6.43858970773116" opacity="0.8602621261994658" transform="matrix(0.8928949103319359,0.45026512090469994,-0.45026512090469994,0.8928949103319359,524.2737829079421,75.3037922907605)" fill="#00a19d"></use><use xlink:href="#bbburst-shape-9" width="10.21054543694814" opacity="0.7425837865832949" transform="matrix(0.7821933120259505,-0.623035811668859,0.623035811668859,0.7821933120259505,156.3613147390475,205.68741508186218)" fill="none" stroke="#ffa6d5"></use><use xlink:href="#bbburst-shape-10" width="7.0850126896245555" opacity="0.8845502197895023" transform="matrix(0.9548106171833438,0.29721488070748076,-0.29721488070748076,0.9548106171833438,476.6895695392945,-17.51013612420121)" fill="none" stroke="#2c2891"></use><use xlink:href="#bbburst-shape-12" width="23.69096510085253" opacity="0.25578332192816244" transform="matrix(0.9999836819908388,-0.005712770960318293,0.005712770960318293,0.9999836819908388,394.15453121752023,-334.7637428155286)" fill="none" stroke="#00a19d"></use><use xlink:href="#bbburst-shape-12" width="24.869240580690107" opacity="0.18257047622997724" transform="matrix(0.9933788961376011,-0.11488415342614086,0.11488415342614086,0.9933788961376011,-26.0374306345875,13.308562808355703)" fill="none" stroke="#00a19d"></use><use xlink:href="#bbburst-shape-11" width="25.196658397384937" opacity="0.03261665554704818" transform="matrix(0.9771666980380038,-0.21247410252900176,0.21247410252900176,0.9771666980380038,542.668988614623,374.655752932682)" fill="none" stroke="#3db2ff"></use><use xlink:href="#bbburst-shape-3" width="36.880284925575836" opacity="0.045492491163256155" transform="matrix(0.7361192406631909,0.6768518770938344,-0.6768518770938344,0.7361192406631909,1014.804856410442,-144.75385937671632)" fill="#ffa6d5"></use><use xlink:href="#bbburst-shape-11" width="15.00882457617402" opacity="0.6819585760179423" transform="matrix(0.8519108603853832,0.523686820492397,-0.523686820492397,0.8519108603853832,465.96224330981397,95.8032612155933)" fill="none" stroke="#ffa6d5"></use><use xlink:href="#bbburst-shape-1" width="9.463635562309692" opacity="0.7146903412654227" transform="matrix(0.9252756097914697,-0.3792954599319954,0.3792954599319954,0.9252756097914697,207.59678403617647,-91.45169882901388)" fill="#ffa6d5"></use><use xlink:href="#bbburst-shape-9" width="26.682531244227743" opacity="0.4599821037750087" transform="matrix(0.9205360968355047,0.39065751550796296,-0.39065751550796296,0.9205360968355047,781.6898467077442,77.21414891651528)" fill="none" stroke="#ffa6d5"></use><use xlink:href="#bbburst-shape-3" width="9.764492109118857" opacity="0.6791624522456983" transform="matrix(0.9837413472446408,-0.17959109588534466,0.17959109588534466,0.9837413472446408,436.6443868557627,-82.07356247230615)" fill="#3db2ff"></use><use xlink:href="#bbburst-shape-8" width="34.03574420414264" opacity="-0.1010410676245046" transform="matrix(0.9886615840260268,-0.15016082135879388,0.15016082135879388,0.9886615840260268,677.4341285202684,-339.2385095329759)" fill="none" stroke="#ffbd9b"></use><use xlink:href="#bbburst-shape-3" width="21.23956040926075" opacity="0.12019890102167774" transform="matrix(0.7115852379097901,0.7025997788135628,-0.7025997788135628,0.7115852379097901,804.9417798875015,481.27557551481556)" fill="#ffa6d5"></use><use xlink:href="#bbburst-shape-13" width="28.48077868372922" opacity="0.2585743509250007" transform="matrix(0.9558188960327023,0.29395618378735655,-0.29395618378735655,0.9558188960327023,802.0544127079162,-136.39054314596527)" fill="none" stroke="#3db2ff"></use><use xlink:href="#bbburst-shape-2" width="32.011173133151736" opacity="0.3291506562216303" transform="matrix(0.7830583179371994,-0.6219482862018063,0.6219482862018063,0.7830583179371994,-163.18477754290012,96.61127579930837)" fill="#2c2891"></use><use xlink:href="#bbburst-shape-7" width="24.94539042234265" opacity="0.44088940502196994" transform="matrix(0.9741823050785632,0.22576278805821198,-0.22576278805821198,0.9741823050785632,612.8554845934302,-204.96721265622645)" fill="#3db2ff"></use><use xlink:href="#bbburst-shape-8" width="14.996696276610223" opacity="0.7271828036149609" transform="matrix(0.9534959982952483,0.3014056755188059,-0.3014056755188059,0.9534959982952483,586.828631555311,114.73874680099544)" fill="none" stroke="#ffbd9b"></use><use xlink:href="#bbburst-shape-8" width="16.708842275071632" opacity="0.557891245537419" transform="matrix(0.9958887137489223,-0.09058515235686852,0.09058515235686852,0.9958887137489223,198.7727941012477,-120.21282187448378)" fill="none" stroke="#3db2ff"></use><use xlink:href="#bbburst-shape-5" width="26.53090744848317" opacity="0.2752447108265206" transform="matrix(0.9166097773233113,0.3997830863297117,-0.3997830863297117,0.9166097773233113,305.22783973809084,-190.00290801805716)" fill="#2c2891"></use><use xlink:href="#bbburst-shape-5" width="17.087606836070684" opacity="0.5881267959376516" transform="matrix(0.9496556661957755,0.31329557236299693,-0.31329557236299693,0.9496556661957755,333.39374561296336,41.24314338182097)" fill="#ffbd9b"></use><use xlink:href="#bbburst-shape-14" width="36.23661309633684" opacity="0.0441198681549978" transform="matrix(0.9861285131560352,-0.16598360021600703,0.16598360021600703,0.9861285131560352,-51.54454875350205,232.48372067128594)" fill="none" stroke="#2c2891"></use><use xlink:href="#bbburst-shape-2" width="19.528778156872313" opacity="0.29827374745199764" transform="matrix(0.8511058041460056,0.52499420010985,-0.52499420010985,0.8511058041460056,558.7831026048234,367.2890986718023)" fill="#ffa6d5"></use><use xlink:href="#bbburst-shape-6" width="7.8503356691378" opacity="0.8969952075319148" transform="matrix(0.9122942990787589,0.4095352388603403,-0.4095352388603403,0.9122942990787589,558.7011670991751,79.80170141659215)" fill="#ffa6d5"></use><use xlink:href="#bbburst-shape-13" width="12.423470995267488" opacity="0.6331549770769369" transform="matrix(0.9945861517438785,-0.10391528645633728,0.10391528645633728,0.9945861517438785,513.2162239744035,-33.8389715472066)" fill="none" stroke="#ffbd9b"></use><use xlink:href="#bbburst-shape-13" width="31.209268925691095" opacity="0.13672959641116889" transform="matrix(0.9951480175350808,-0.09838914165698655,0.09838914165698655,0.9951480175350808,51.03191131925088,257.2972092714483)" fill="none" stroke="#3db2ff"></use><use xlink:href="#bbburst-shape-5" width="7.891549087984954" opacity="0.7992871235887473" transform="matrix(0.8473787854173261,0.5309888831460196,-0.5309888831460196,0.8473787854173261,698.408415822647,72.11670277146351)" fill="#2c2891"></use><use xlink:href="#bbburst-shape-7" width="9.870746329194793" opacity="0.7904793089424456" transform="matrix(0.9434586151634079,-0.3314903339072568,0.3314903339072568,0.9434586151634079,341.56107082745837,75.95771009070234)" fill="#ffa6d5"></use><use xlink:href="#bbburst-shape-3" width="8.568011802141775" opacity="0.8450697295190105" transform="matrix(0.9986485756915252,0.05197136008695498,-0.05197136008695498,0.9986485756915252,416.391136682376,-69.40234345683643)" fill="#ffa6d5"></use><use xlink:href="#bbburst-shape-4" width="10.541196204555977" opacity="0.7937099948150526" transform="matrix(0.9804453904340009,-0.19679135239313608,0.19679135239313608,0.9804453904340009,236.54073119627293,56.670043616279656)" fill="#2c2891"></use><use xlink:href="#bbburst-shape-12" width="22.65193473084578" opacity="0.5057829199197382" transform="matrix(0.9866810614231389,0.16266678526640863,-0.16266678526640863,0.9866810614231389,357.02556686866444,203.63565070863308)" fill="none" stroke="#2c2891"></use><use xlink:href="#bbburst-shape-13" width="10.39966319159937" opacity="0.7283429489437878" transform="matrix(0.770641708814398,0.6372686691150167,-0.6372686691150167,0.770641708814398,747.1672272536516,163.7733130797613)" fill="none" stroke="#3db2ff"></use><use xlink:href="#bbburst-shape-4" width="23.496354284315707" opacity="0.1364230450820556" transform="matrix(0.9916466868889667,0.12898390745412988,-0.12898390745412988,0.9916466868889667,66.28580370117248,-104.92108068879776)" fill="#3db2ff"></use><use xlink:href="#bbburst-shape-6" width="7.428634209104217" opacity="0.8756313241685023" transform="matrix(0.9679466788605129,-0.25115578210127487,0.25115578210127487,0.9679466788605129,286.68639994081934,-41.44089161308301)" fill="#3db2ff"></use><use xlink:href="#bbburst-shape-8" width="5.740785280856999" opacity="0.9404519183717068" transform="matrix(0.9900536487562619,0.1406903428967763,-0.1406903428967763,0.9900536487562619,430.3623253289528,-10.054092891675225)" fill="none" stroke="#ffbd9b"></use><use xlink:href="#bbburst-shape-4" width="10.98012707742934" opacity="0.6539436447643154" transform="matrix(0.9360971481781976,-0.3517415658870097,0.3517415658870097,0.9360971481781976,183.71387419759776,-111.37484638957238)" fill="#3db2ff"></use><use xlink:href="#bbburst-shape-1" width="24.553166717759517" opacity="0.5197264266972651" transform="matrix(0.9403428502598332,0.34022834092005466,-0.34022834092005466,0.9403428502598332,484.4625018649837,232.0910938078789)" fill="#ffbd9b"></use><use xlink:href="#bbburst-shape-11" width="9.628570095361294" opacity="0.6930494698542287" transform="matrix(0.9525972638747644,0.3042342072455239,-0.3042342072455239,0.9525972638747644,550.3094671727956,151.4655593104141)" fill="none" stroke="#00a19d"></use><use xlink:href="#bbburst-shape-13" width="21.073833975497212" opacity="0.590885086102665" transform="matrix(0.9738243612250578,-0.22730181144154596,0.22730181144154596,0.9738243612250578,357.82582500492344,187.25435567799894)" fill="none" stroke="#00a19d"></use><use xlink:href="#bbburst-shape-11" width="34.15346243127343" opacity="0.12775595748252722" transform="matrix(0.8398070525691886,-0.5428849919228308,0.5428849919228308,0.8398070525691886,534.0262736271802,-69.44118664171492)" fill="none" stroke="#2c2891"></use><use xlink:href="#bbburst-shape-10" width="35.23618947164225" opacity="-0.09825507054031735" transform="matrix(0.7741184244799494,0.6330408082269902,-0.6330408082269902,0.7741184244799494,271.68598552104834,-250.80616630253957)" fill="none" stroke="#ffbd9b"></use><use xlink:href="#bbburst-shape-8" width="7.281225317991501" opacity="0.8474661193917257" transform="matrix(0.9420764808806485,0.3353981278593145,-0.3353981278593145,0.9420764808806485,502.1440799067751,-40.45642638389586)" fill="none" stroke="#00a19d"></use><use xlink:href="#bbburst-shape-1" width="6.050033973332792" opacity="0.9656941963167504" transform="matrix(0.9969160741651023,0.07847509841497617,-0.07847509841497617,0.9969160741651023,442.3322176787151,7.5979517698171435)" fill="#ffa6d5"></use><use xlink:href="#bbburst-shape-12" width="22.218976597539545" opacity="0.40238558505119326" transform="matrix(0.8994897446079135,0.4369418718149938,-0.4369418718149938,0.8994897446079135,481.3459546710625,290.9631237258198)" fill="none" stroke="#ffa6d5"></use><use xlink:href="#bbburst-shape-2" width="7.697570760665871" opacity="0.785287908902488" transform="matrix(0.9972944270034525,0.07351071940782053,-0.07351071940782053,0.9972944270034525,329.05031154712776,5.30902368165772)" fill="#ffa6d5"></use><use xlink:href="#bbburst-shape-12" width="13.184015139164398" opacity="0.6156567922930778" transform="matrix(0.9993725979998843,-0.03541765614720332,0.03541765614720332,0.9993725979998843,408.1200992902021,-170.0663436180351)" fill="none" stroke="#ffbd9b"></use><use xlink:href="#bbburst-shape-5" width="43.12932360964251" opacity="-0.10606035400820546" transform="matrix(0.810461749868091,-0.5857915601993184,0.5857915601993184,0.810461749868091,500.4901614934214,440.05575496788776)" fill="#00a19d"></use><use xlink:href="#bbburst-shape-7" width="8.578584227668156" opacity="0.7945441185085818" transform="matrix(0.9647557017058497,-0.2631471755996132,0.2631471755996132,0.9647557017058497,285.548042984706,-77.08672647112036)" fill="#00a19d"></use><use xlink:href="#bbburst-shape-13" width="36.96035889995456" opacity="0.013841985951219438" transform="matrix(0.986711863417433,0.1624798405689055,-0.1624798405689055,0.986711863417433,705.6077371690515,-358.1444045850131)" fill="none" stroke="#3db2ff"></use><use xlink:href="#bbburst-shape-12" width="27.803111902938817" opacity="0.1073581463775759" transform="matrix(0.8674553736243747,0.4975149995429248,-0.4975149995429248,0.8674553736243747,741.0161837285027,-324.91963184610665)" fill="none" stroke="#ffbd9b"></use><use xlink:href="#bbburst-shape-8" width="24.37750227542505" opacity="0.47832570438815647" transform="matrix(0.9818482627178243,0.189668102215397,-0.189668102215397,0.9818482627178243,347.4583649077388,-198.89071892616337)" fill="none" stroke="#ffbd9b"></use><use xlink:href="#bbburst-shape-7" width="6.487142238532768" opacity="0.8613625075000585" transform="matrix(0.99524906814761,-0.09736165750085532,0.09736165750085532,0.99524906814761,302.701916917321,-27.03949729788377)" fill="#2c2891"></use><use xlink:href="#bbburst-shape-12" width="20.651573115947514" opacity="0.572860506217733" transform="matrix(0.8692030272421442,0.4944553543375705,-0.4944553543375705,0.8692030272421442,780.0799710806015,66.34939429977788)" fill="none" stroke="#ffa6d5"></use><use xlink:href="#bbburst-shape-13" width="8.837684675645466" opacity="0.9120273091638367" transform="matrix(0.9978280119668514,-0.06587304861839091,0.06587304861839091,0.9978280119668514,338.69879715039315,26.345742771472658)" fill="none" stroke="#ffbd9b"></use><use xlink:href="#bbburst-shape-5" width="7.887924804376983" opacity="0.7463194497912585" transform="matrix(0.8770675976381825,0.48036697344133383,-0.48036697344133383,0.8770675976381825,581.6789001199177,-66.66247539182262)" fill="#3db2ff"></use><use xlink:href="#bbburst-shape-4" width="8.272018925158878" opacity="0.7589988533753493" transform="matrix(0.9767047557519452,-0.21458755810049468,0.21458755810049468,0.9767047557519452,239.91766532582199,-72.44400687143502)" fill="#ffa6d5"></use><use xlink:href="#bbburst-shape-2" width="11.668026934770307" opacity="0.7196962379677034" transform="matrix(0.7677038115421381,-0.6408048515294444,0.6408048515294444,0.7677038115421381,218.13056722847136,-1.7301777488132757)" fill="#ffa6d5"></use><use xlink:href="#bbburst-shape-9" width="5.757144527097678" opacity="0.9007367374523312" transform="matrix(0.8386205738864891,-0.5447160113805134,0.5447160113805134,0.8386205738864891,214.67726996338345,93.84247241165906)" fill="none" stroke="#00a19d"></use><use xlink:href="#bbburst-shape-6" width="10.470079997738127" opacity="0.7808825515105022" transform="matrix(0.9474873326531157,0.3197932995887877,-0.3197932995887877,0.9474873326531157,558.8394425021472,-72.51111240031992)" fill="#ffbd9b"></use><use xlink:href="#bbburst-shape-6" width="27.132508242865764" opacity="0.40864807630535815" transform="matrix(0.9938783855805051,0.11047965729440351,-0.11047965729440351,0.9938783855805051,588.6062978180294,215.15096563297686)" fill="#ffa6d5"></use><use xlink:href="#bbburst-shape-6" width="7.252570594383731" opacity="0.8138736185651221" transform="matrix(0.8584791627248841,-0.5128484446375771,0.5128484446375771,0.8584791627248841,173.33451227776783,140.17599690373873)" fill="#ffbd9b"></use><use xlink:href="#bbburst-shape-8" width="25.400939501696175" opacity="0.3553551461234937" transform="matrix(0.9982297253666632,-0.05947617501484207,0.05947617501484207,0.9982297253666632,483.63162872457934,265.52463091084115)" fill="none" stroke="#2c2891"></use><use xlink:href="#bbburst-shape-6" width="14.707148668149202" opacity="0.6068667735673559" transform="matrix(0.8773033557408284,-0.4799362686918769,0.4799362686918769,0.8773033557408284,189.7728764501695,229.12392638632826)" fill="#ffbd9b"></use><use xlink:href="#bbburst-shape-6" width="28.782644857800854" opacity="0.18158473419607069" transform="matrix(0.9716200441083331,-0.23654701411542017,0.23654701411542017,0.9716200441083331,324.53517263813586,381.54961993370904)" fill="#ffa6d5"></use><use xlink:href="#bbburst-shape-8" width="15.30213575895751" opacity="0.575452494491268" transform="matrix(0.9610775765155326,0.27627864904662924,-0.27627864904662924,0.9610775765155326,319.6017264150706,-39.514057727402985)" fill="none" stroke="#ffbd9b"></use><use xlink:href="#bbburst-shape-9" width="7.50181582069649" opacity="0.8190680138924249" transform="matrix(0.7593233185322605,-0.650713529852542,0.650713529852542,0.7593233185322605,65.76271024725935,58.94828760430545)" fill="none" stroke="#2c2891"></use><use xlink:href="#bbburst-shape-6" width="13.401629565916178" opacity="0.7381866377228699" transform="matrix(0.7873357628902818,-0.6165244492102303,0.6165244492102303,0.7873357628902818,256.1428111380535,136.21302390425365)" fill="#2c2891"></use><use xlink:href="#bbburst-shape-9" width="30.85024659873932" opacity="0.2488192806426942" transform="matrix(0.8317676393036348,0.5551239449053322,-0.5551239449053322,0.8317676393036348,277.02665669915734,-3.3814472544802925)" fill="none" stroke="#ffa6d5"></use><use xlink:href="#bbburst-shape-7" width="8.376078171432876" opacity="0.7779050843816667" transform="matrix(0.7990997980603348,-0.6011983971534954,0.6011983971534954,0.7990997980603348,211.9298433786412,-0.033722039786027835)" fill="#ffa6d5"></use><use xlink:href="#bbburst-shape-6" width="6.42381987320258" opacity="0.8248990833977649" transform="matrix(0.9874826309521475,-0.15772778311960378,0.15772778311960378,0.9874826309521475,412.4498017127147,1.9022172567532607)" fill="#ffa6d5"></use><use xlink:href="#bbburst-shape-9" width="17.47304327373319" opacity="0.4411077427723853" transform="matrix(0.8247916685314809,-0.5654367369751064,0.5654367369751064,0.8247916685314809,-35.70350667483737,-74.55749289941741)" fill="none" stroke="#ffa6d5"></use><use xlink:href="#bbburst-shape-7" width="11.123709126823371" opacity="0.6488411491733064" transform="matrix(0.9915123742847902,0.13001235187526605,-0.13001235187526605,0.9915123742847902,290.4693312246281,-22.643647927810605)" fill="#ffbd9b"></use><use xlink:href="#bbburst-shape-8" width="15.893426676304315" opacity="0.7068544261199697" transform="matrix(0.9927787663285822,-0.1199596645839689,0.1199596645839689,0.9927787663285822,271.1557105800247,113.73681161461013)" fill="none" stroke="#ffbd9b"></use><use xlink:href="#bbburst-shape-12" width="15.516535979607427" opacity="0.5961881703546951" transform="matrix(0.943609010830443,0.33106198011791205,-0.33106198011791205,0.943609010830443,377.4814862057412,125.9108912624402)" fill="none" stroke="#00a19d"></use><use xlink:href="#bbburst-shape-2" width="5.683921211686986" opacity="0.9680797229602768" transform="matrix(0.9907482512351972,-0.13571257375202428,0.13571257375202428,0.9907482512351972,342.9992180407578,-10.274563636903792)" fill="#2c2891"></use><use xlink:href="#bbburst-shape-8" width="8.797079175584944" opacity="0.8750484845795014" transform="matrix(0.9940186680135056,0.10921029091004247,-0.10921029091004247,0.9940186680135056,383.19257851606017,-1.5852365001946396)" fill="none" stroke="#ffbd9b"></use><use xlink:href="#bbburst-shape-13" width="9.295497786338938" opacity="0.7598616299435289" transform="matrix(0.742986536390546,0.6693063623949648,-0.6693063623949648,0.742986536390546,643.6676099727183,205.77488159430436)" fill="none" stroke="#2c2891"></use><use xlink:href="#bbburst-shape-8" width="27.680519395508" opacity="0.3688846482586612" transform="matrix(0.8820213945991443,-0.4712093584272075,0.4712093584272075,0.8820213945991443,43.65796101446324,291.2628421638799)" fill="none" stroke="#2c2891"></use><use xlink:href="#bbburst-shape-5" width="16.749916401675822" opacity="0.4929599890953903" transform="matrix(0.8997951850995553,-0.4363125311879745,0.4363125311879745,0.8997951850995553,-3.1787844541524066,100.0161641013097)" fill="#ffbd9b"></use><use xlink:href="#bbburst-shape-10" width="12.270416652096149" opacity="0.7706110166825701" transform="matrix(0.8965175243806565,0.44300827134307447,-0.44300827134307447,0.8965175243806565,488.30974643777165,-22.160598971853176)" fill="none" stroke="#ffbd9b"></use><use xlink:href="#bbburst-shape-9" width="10.069460719212277" opacity="0.8178289991599245" transform="matrix(0.7311881347824893,0.6821758655605636,-0.6821758655605636,0.7311881347824893,692.7870788772535,182.56145094184222)" fill="none" stroke="#ffa6d5"></use><use xlink:href="#bbburst-shape-13" width="33.658581109966164" opacity="0.183008903242188" transform="matrix(0.9987631114406317,0.04972169773276327,-0.04972169773276327,0.9987631114406317,766.4467239856881,-56.27361469951899)" fill="none" stroke="#ffa6d5"></use><use xlink:href="#bbburst-shape-12" width="16.19106574473073" opacity="0.5691086218694676" transform="matrix(0.9983590865317578,0.057263726210178986,-0.057263726210178986,0.9983590865317578,576.4313857875738,107.3128478353413)" fill="none" stroke="#ffbd9b"></use><use xlink:href="#bbburst-shape-2" width="10.890955106670146" opacity="0.6551596437316698" transform="matrix(0.9968217019017003,0.07966488949215877,-0.07966488949215877,0.9968217019017003,547.3107931972139,98.1562040025861)" fill="#3db2ff"></use><use xlink:href="#bbburst-shape-5" width="14.922675296037964" opacity="0.6440520613870591" transform="matrix(0.7274986771754969,-0.6861090836797763,0.6861090836797763,0.7274986771754969,80.72954353205586,-41.13569160936598)" fill="#ffa6d5"></use><use xlink:href="#bbburst-shape-7" width="8.429796478334818" opacity="0.8077704309520238" transform="matrix(0.9915365875110442,-0.12982756112225638,0.12982756112225638,0.9915365875110442,357.15838155314765,-81.54116308261683)" fill="#ffbd9b"></use><use xlink:href="#bbburst-shape-11" width="23.128856446656265" opacity="0.31679983199851447" transform="matrix(0.9587131584465599,0.2843748930925889,-0.2843748930925889,0.9587131584465599,797.2625367461728,101.14707214450675)" fill="none" stroke="#ffa6d5"></use><use xlink:href="#bbburst-shape-1" width="26.388452437998183" opacity="0.3245643336299654" transform="matrix(0.7174739576785143,0.6965853286232272,-0.6965853286232272,0.7174739576785143,967.1688839909132,44.142010615403194)" fill="#ffa6d5"></use><use xlink:href="#bbburst-shape-10" width="11.243715120432505" opacity="0.7614315658704581" transform="matrix(0.717608638960263,-0.6964465817918837,0.6964465817918837,0.717608638960263,199.3322716693748,47.51588115217686)" fill="none" stroke="#00a19d"></use><use xlink:href="#bbburst-shape-6" width="5.506217721358426" opacity="0.8560353181132613" transform="matrix(0.8742416665459107,0.48549099731614853,-0.48549099731614853,0.8742416665459107,650.6019989043504,76.13419835599501)" fill="#ffa6d5"></use><use xlink:href="#bbburst-shape-11" width="19.571995098577037" opacity="0.5437556064582639" transform="matrix(0.9362618303402562,-0.3513029818374919,0.3513029818374919,0.9362618303402562,453.67706624625936,1.1172688996179545)" fill="none" stroke="#2c2891"></use><use xlink:href="#bbburst-shape-1" width="16.675049583549043" opacity="0.48917696372026154" transform="matrix(0.9727697551273786,-0.2317736039962702,0.2317736039962702,0.9727697551273786,391.87381382295916,223.2003053376252)" fill="#2c2891"></use><use xlink:href="#bbburst-shape-6" width="6.041889046592397" opacity="0.9312665205766137" transform="matrix(0.9959739296818719,-0.08964335666433793,0.08964335666433793,0.9959739296818719,353.3948720601222,31.827527068530003)" fill="#ffbd9b"></use><use xlink:href="#bbburst-shape-4" width="11.115478546598393" opacity="0.6857538019902674" transform="matrix(0.8323484755359579,-0.5542526637490947,0.5542526637490947,0.8323484755359579,204.28524265688762,-67.90941687122375)" fill="#ffbd9b"></use><use xlink:href="#bbburst-shape-12" width="7.624020851263099" opacity="0.8422661705704967" transform="matrix(0.7522306331398578,-0.6588998972271953,0.6588998972271953,0.7522306331398578,66.01480243584137,123.41222358231624)" fill="none" stroke="#2c2891"></use><use xlink:href="#bbburst-shape-7" width="17.36501725165775" opacity="0.550306898253053" transform="matrix(0.8246301732812328,0.5656722348800266,-0.5656722348800266,0.8246301732812328,591.8300022792176,-135.3247966477674)" fill="#ffa6d5"></use><use xlink:href="#bbburst-shape-11" width="7.744276073104622" opacity="0.8117850097287779" transform="matrix(0.9813551259129739,-0.19220332162668566,0.19220332162668566,0.9813551259129739,259.2337576928571,-51.60872187777181)" fill="none" stroke="#ffbd9b"></use><use xlink:href="#bbburst-shape-2" width="18.950771221182933" opacity="0.2305407003046852" transform="matrix(0.8849505054871164,-0.4656850897742993,0.4656850897742993,0.8849505054871164,337.8836881872702,370.32707739569673)" fill="#ffbd9b"></use><use xlink:href="#bbburst-shape-7" width="21.80198037287308" opacity="0.46750109302647924" transform="matrix(0.9426920873892153,-0.3336639452709329,0.3336639452709329,0.9426920873892153,38.72853087433691,127.24682508124982)" fill="#2c2891"></use><use xlink:href="#bbburst-shape-5" width="27.952773020263418" opacity="0.19122532182751062" transform="matrix(0.9960057320017026,-0.0892893152608562,0.0892893152608562,0.9960057320017026,133.5796222101375,295.18663498492697)" fill="#2c2891"></use><use xlink:href="#bbburst-shape-10" width="18.182901700007417" opacity="0.3370207016910398" transform="matrix(0.7326648538723924,-0.6805896060770733,0.6805896060770733,0.7326648538723924,48.131617929241315,-176.1573545869423)" fill="none" stroke="#00a19d"></use><use xlink:href="#bbburst-shape-3" width="32.27621553447903" opacity="0.209663198030834" transform="matrix(0.9873904069588981,0.158304087899023,-0.158304087899023,0.9873904069588981,326.3898153776287,-332.0107764125416)" fill="#00a19d"></use><use xlink:href="#bbburst-shape-3" width="27.945274954868697" opacity="0.1903999894783861" transform="matrix(0.8415393045754981,0.540195889335144,-0.540195889335144,0.8415393045754981,795.4799574007919,-254.30604362759271)" fill="#2c2891"></use><use xlink:href="#bbburst-shape-12" width="6.424397623029799" opacity="0.9417828721644593" transform="matrix(0.9420771803691428,0.3353961631082349,-0.3353961631082349,0.9420771803691428,547.8858764518125,1.9370886423728848)" fill="none" stroke="#ffa6d5"></use><use xlink:href="#bbburst-shape-6" width="20.931369075620445" opacity="0.34593698727706157" transform="matrix(0.9072358142942195,-0.4206223689509444,0.4206223689509444,0.9072358142942195,-32.31401613631789,-106.21855714240962)" fill="#ffbd9b"></use><use xlink:href="#bbburst-shape-12" width="11.497875597207116" opacity="0.717398688110445" transform="matrix(0.9513891242686513,-0.3079914515426181,0.3079914515426181,0.9513891242686513,322.15708415148106,-95.37547016341705)" fill="none" stroke="#ffbd9b"></use><use xlink:href="#bbburst-shape-12" width="7.78686267751934" opacity="0.7818999568510044" transform="matrix(0.9685774788253535,-0.2487120172253886,0.2487120172253886,0.9685774788253535,364.46774292286796,84.5552049655696)" fill="none" stroke="#ffa6d5"></use><use xlink:href="#bbburst-shape-5" width="15.381695145915083" opacity="0.6695858818128868" transform="matrix(0.7913134270262656,-0.611410713193633,0.611410713193633,0.7913134270262656,294.51472142635805,120.3450399480513)" fill="#2c2891"></use><use xlink:href="#bbburst-shape-5" width="6.696611339955334" opacity="0.9489275156472533" transform="matrix(0.9405661190078466,0.33961062376568457,-0.33961062376568457,0.9405661190078466,515.333242874294,37.69538156460533)" fill="#3db2ff"></use><use xlink:href="#bbburst-shape-9" width="29.2030846534314" opacity="0.34623869819154673" transform="matrix(0.8557052345244024,0.5174635751505003,-0.5174635751505003,0.8557052345244024,314.70442563345847,-40.62553250128502)" fill="none" stroke="#ffbd9b"></use><use xlink:href="#bbburst-shape-14" width="15.371237504158508" opacity="0.5396660297849929" transform="matrix(0.846081084792614,0.5330542167136036,-0.5330542167136036,0.846081084792614,748.9114436008197,208.11835614807393)" fill="none" stroke="#ffbd9b"></use><use xlink:href="#bbburst-shape-1" width="6.518734738708224" opacity="0.9345325165021567" transform="matrix(0.9971889739641442,-0.07492763311580941,0.07492763311580941,0.9971889739641442,389.9425882711725,19.58082264423024)" fill="#2c2891"></use><use xlink:href="#bbburst-shape-2" width="18.40401942987815" opacity="0.5678489550997158" transform="matrix(0.7797627513362435,0.6260751166022586,-0.6260751166022586,0.7797627513362435,573.5281107200547,-99.1991109657061)" fill="#00a19d"></use><use xlink:href="#bbburst-shape-5" width="7.092780559177334" opacity="0.7994281421717294" transform="matrix(0.9561971730718153,0.29272336122945314,-0.29272336122945314,0.9561971730718153,601.6020161850906,-3.9943519622357826)" fill="#ffa6d5"></use><use xlink:href="#bbburst-shape-7" width="22.72036316838633" opacity="0.455133138621889" transform="matrix(0.7121999923994025,0.70197661700821,-0.70197661700821,0.7121999923994025,428.08985874324424,124.68686757347223)" fill="#ffbd9b"></use><use xlink:href="#bbburst-shape-9" width="21.191138762268825" opacity="0.17592625094161385" transform="matrix(0.9907032481468077,0.13604070755242664,-0.13604070755242664,0.9907032481468077,813.2336791163095,35.87673256579154)" fill="none" stroke="#2c2891"></use><use xlink:href="#bbburst-shape-13" width="30.51365169303103" opacity="0.02798191436469122" transform="matrix(0.9762885881095646,0.21647307621741999,-0.21647307621741999,0.9762885881095646,838.9179945405521,243.82134681437412)" fill="none" stroke="#ffbd9b"></use><use xlink:href="#bbburst-shape-7" width="7.350813075779586" opacity="0.901890058459245" transform="matrix(0.9583262587949579,0.28567600827521267,-0.28567600827521267,0.9583262587949579,543.3177499195249,-14.169485029452346)" fill="#ffa6d5"></use><use xlink:href="#bbburst-shape-8" width="17.807524407238844" opacity="0.5502281939728251" transform="matrix(0.8309234989693716,-0.5563866810595818,0.5563866810595818,0.8309234989693716,-31.545534776739828,54.55329964740349)" fill="none" stroke="#ffa6d5"></use><use xlink:href="#bbburst-shape-4" width="25.40019802805442" opacity="0.2083357159350785" transform="matrix(0.8239732965033365,-0.5666286320416792,0.5666286320416792,0.8239732965033365,-154.09675681613393,-84.9416854366616)" fill="#00a19d"></use><use xlink:href="#bbburst-shape-11" width="6.469011944259821" opacity="0.8709927749250937" transform="matrix(0.9943366006648682,0.10627664173389435,-0.10627664173389435,0.9943366006648682,453.1037518959832,-54.55035902847544)" fill="none" stroke="#3db2ff"></use></svg>