<svg xmlns="http://www.w3.org/2000/svg" version="1.1" xmlns:xlink="http://www.w3.org/1999/xlink" xmlns:svgjs="http://svgjs.dev/svgjs" viewBox="0 0 800 800" opacity="0.77"><defs><linearGradient gradientTransform="rotate(270)" x1="50%" y1="0%" x2="50%" y2="100%" id="sssquiggly-grad"><stop stop-color="hsl(180, 69%, 40%)" stop-opacity="1" offset="0%"></stop><stop stop-color="hsl(180, 69%, 60%)" stop-opacity="1" offset="100%"></stop></linearGradient></defs><g stroke-width="4.5" stroke="url(#sssquiggly-grad)" fill="none" stroke-linecap="round" transform="matrix(1,0,0,1,-5,50.40799331665039)"><path d="M10,10C20.73717948717949,17.5,37.98076923076923,49.958333333333336,61.53846153846154,46C85.09615384615384,42.041666666666664,97.43589743589745,-3.166666666666666,123.07692307692308,-9C148.71794871794873,-14.833333333333334,158.97435897435898,18.208333333333332,184.6153846153846,18C210.25641025641025,17.791666666666668,220.51282051282053,-14.166666666666668,246.15384615384616,-10C271.7948717948718,-5.833333333333333,282.05128205128204,37.791666666666664,307.6923076923077,38C333.3333333333333,38.208333333333336,343.5897435897436,-8.375,369.2307692307692,-9C394.87179487179486,-9.625,405.12820512820514,38.75,430.7692307692308,35C456.4102564102564,31.25,466.6666666666667,-27.833333333333332,492.3076923076923,-27C517.948717948718,-26.166666666666668,528.2051282051282,31.708333333333336,553.8461538461538,39C579.4871794871794,46.291666666666664,589.7435897435897,3.416666666666667,615.3846153846154,8C641.025641025641,12.583333333333332,651.2820512820513,64.75,676.9230769230769,61C702.5641025641025,57.25,712.8205128205128,-8.75,738.4615384615385,-10C764.1025641025641,-11.25,787.1794871794872,41.45833333333333,800,55"></path><path d="M10,10C20.73717948717949,17.5,37.98076923076923,49.958333333333336,61.53846153846154,46C85.09615384615384,42.041666666666664,97.43589743589745,-3.166666666666666,123.07692307692308,-9C148.71794871794873,-14.833333333333334,158.97435897435898,18.208333333333332,184.6153846153846,18C210.25641025641025,17.791666666666668,220.51282051282053,-14.166666666666668,246.15384615384616,-10C271.7948717948718,-5.833333333333333,282.05128205128204,37.791666666666664,307.6923076923077,38C333.3333333333333,38.208333333333336,343.5897435897436,-8.375,369.2307692307692,-9C394.87179487179486,-9.625,405.12820512820514,38.75,430.7692307692308,35C456.4102564102564,31.25,466.6666666666667,-27.833333333333332,492.3076923076923,-27C517.948717948718,-26.166666666666668,528.2051282051282,31.708333333333336,553.8461538461538,39C579.4871794871794,46.291666666666664,589.7435897435897,3.416666666666667,615.3846153846154,8C641.025641025641,12.583333333333332,651.2820512820513,64.75,676.9230769230769,61C702.5641025641025,57.25,712.8205128205128,-8.75,738.4615384615385,-10C764.1025641025641,-11.25,787.1794871794872,41.45833333333333,800,55" transform="matrix(1,0,0,1,0,665)"></path><path d="M10,10C20.73717948717949,17.5,37.98076923076923,49.958333333333336,61.53846153846154,46C85.09615384615384,42.041666666666664,97.43589743589745,-3.166666666666666,123.07692307692308,-9C148.71794871794873,-14.833333333333334,158.97435897435898,18.208333333333332,184.6153846153846,18C210.25641025641025,17.791666666666668,220.51282051282053,-14.166666666666668,246.15384615384616,-10C271.7948717948718,-5.833333333333333,282.05128205128204,37.791666666666664,307.6923076923077,38C333.3333333333333,38.208333333333336,343.5897435897436,-8.375,369.2307692307692,-9C394.87179487179486,-9.625,405.12820512820514,38.75,430.7692307692308,35C456.4102564102564,31.25,466.6666666666667,-27.833333333333332,492.3076923076923,-27C517.948717948718,-26.166666666666668,528.2051282051282,31.708333333333336,553.8461538461538,39C579.4871794871794,46.291666666666664,589.7435897435897,3.416666666666667,615.3846153846154,8C641.025641025641,12.583333333333332,651.2820512820513,64.75,676.9230769230769,61C702.5641025641025,57.25,712.8205128205128,-8.75,738.4615384615385,-10C764.1025641025641,-11.25,787.1794871794872,41.45833333333333,800,55" transform="matrix(1,0,0,1,0,630)"></path><path d="M10,10C20.73717948717949,17.5,37.98076923076923,49.958333333333336,61.53846153846154,46C85.09615384615384,42.041666666666664,97.43589743589745,-3.166666666666666,123.07692307692308,-9C148.71794871794873,-14.833333333333334,158.97435897435898,18.208333333333332,184.6153846153846,18C210.25641025641025,17.791666666666668,220.51282051282053,-14.166666666666668,246.15384615384616,-10C271.7948717948718,-5.833333333333333,282.05128205128204,37.791666666666664,307.6923076923077,38C333.3333333333333,38.208333333333336,343.5897435897436,-8.375,369.2307692307692,-9C394.87179487179486,-9.625,405.12820512820514,38.75,430.7692307692308,35C456.4102564102564,31.25,466.6666666666667,-27.833333333333332,492.3076923076923,-27C517.948717948718,-26.166666666666668,528.2051282051282,31.708333333333336,553.8461538461538,39C579.4871794871794,46.291666666666664,589.7435897435897,3.416666666666667,615.3846153846154,8C641.025641025641,12.583333333333332,651.2820512820513,64.75,676.9230769230769,61C702.5641025641025,57.25,712.8205128205128,-8.75,738.4615384615385,-10C764.1025641025641,-11.25,787.1794871794872,41.45833333333333,800,55" transform="matrix(1,0,0,1,0,595)"></path><path d="M10,10C20.73717948717949,17.5,37.98076923076923,49.958333333333336,61.53846153846154,46C85.09615384615384,42.041666666666664,97.43589743589745,-3.166666666666666,123.07692307692308,-9C148.71794871794873,-14.833333333333334,158.97435897435898,18.208333333333332,184.6153846153846,18C210.25641025641025,17.791666666666668,220.51282051282053,-14.166666666666668,246.15384615384616,-10C271.7948717948718,-5.833333333333333,282.05128205128204,37.791666666666664,307.6923076923077,38C333.3333333333333,38.208333333333336,343.5897435897436,-8.375,369.2307692307692,-9C394.87179487179486,-9.625,405.12820512820514,38.75,430.7692307692308,35C456.4102564102564,31.25,466.6666666666667,-27.833333333333332,492.3076923076923,-27C517.948717948718,-26.166666666666668,528.2051282051282,31.708333333333336,553.8461538461538,39C579.4871794871794,46.291666666666664,589.7435897435897,3.416666666666667,615.3846153846154,8C641.025641025641,12.583333333333332,651.2820512820513,64.75,676.9230769230769,61C702.5641025641025,57.25,712.8205128205128,-8.75,738.4615384615385,-10C764.1025641025641,-11.25,787.1794871794872,41.45833333333333,800,55" transform="matrix(1,0,0,1,0,560)"></path><path d="M10,10C20.73717948717949,17.5,37.98076923076923,49.958333333333336,61.53846153846154,46C85.09615384615384,42.041666666666664,97.43589743589745,-3.166666666666666,123.07692307692308,-9C148.71794871794873,-14.833333333333334,158.97435897435898,18.208333333333332,184.6153846153846,18C210.25641025641025,17.791666666666668,220.51282051282053,-14.166666666666668,246.15384615384616,-10C271.7948717948718,-5.833333333333333,282.05128205128204,37.791666666666664,307.6923076923077,38C333.3333333333333,38.208333333333336,343.5897435897436,-8.375,369.2307692307692,-9C394.87179487179486,-9.625,405.12820512820514,38.75,430.7692307692308,35C456.4102564102564,31.25,466.6666666666667,-27.833333333333332,492.3076923076923,-27C517.948717948718,-26.166666666666668,528.2051282051282,31.708333333333336,553.8461538461538,39C579.4871794871794,46.291666666666664,589.7435897435897,3.416666666666667,615.3846153846154,8C641.025641025641,12.583333333333332,651.2820512820513,64.75,676.9230769230769,61C702.5641025641025,57.25,712.8205128205128,-8.75,738.4615384615385,-10C764.1025641025641,-11.25,787.1794871794872,41.45833333333333,800,55" transform="matrix(1,0,0,1,0,525)"></path><path d="M10,10C20.73717948717949,17.5,37.98076923076923,49.958333333333336,61.53846153846154,46C85.09615384615384,42.041666666666664,97.43589743589745,-3.166666666666666,123.07692307692308,-9C148.71794871794873,-14.833333333333334,158.97435897435898,18.208333333333332,184.6153846153846,18C210.25641025641025,17.791666666666668,220.51282051282053,-14.166666666666668,246.15384615384616,-10C271.7948717948718,-5.833333333333333,282.05128205128204,37.791666666666664,307.6923076923077,38C333.3333333333333,38.208333333333336,343.5897435897436,-8.375,369.2307692307692,-9C394.87179487179486,-9.625,405.12820512820514,38.75,430.7692307692308,35C456.4102564102564,31.25,466.6666666666667,-27.833333333333332,492.3076923076923,-27C517.948717948718,-26.166666666666668,528.2051282051282,31.708333333333336,553.8461538461538,39C579.4871794871794,46.291666666666664,589.7435897435897,3.416666666666667,615.3846153846154,8C641.025641025641,12.583333333333332,651.2820512820513,64.75,676.9230769230769,61C702.5641025641025,57.25,712.8205128205128,-8.75,738.4615384615385,-10C764.1025641025641,-11.25,787.1794871794872,41.45833333333333,800,55" transform="matrix(1,0,0,1,0,490)"></path><path d="M10,10C20.73717948717949,17.5,37.98076923076923,49.958333333333336,61.53846153846154,46C85.09615384615384,42.041666666666664,97.43589743589745,-3.166666666666666,123.07692307692308,-9C148.71794871794873,-14.833333333333334,158.97435897435898,18.208333333333332,184.6153846153846,18C210.25641025641025,17.791666666666668,220.51282051282053,-14.166666666666668,246.15384615384616,-10C271.7948717948718,-5.833333333333333,282.05128205128204,37.791666666666664,307.6923076923077,38C333.3333333333333,38.208333333333336,343.5897435897436,-8.375,369.2307692307692,-9C394.87179487179486,-9.625,405.12820512820514,38.75,430.7692307692308,35C456.4102564102564,31.25,466.6666666666667,-27.833333333333332,492.3076923076923,-27C517.948717948718,-26.166666666666668,528.2051282051282,31.708333333333336,553.8461538461538,39C579.4871794871794,46.291666666666664,589.7435897435897,3.416666666666667,615.3846153846154,8C641.025641025641,12.583333333333332,651.2820512820513,64.75,676.9230769230769,61C702.5641025641025,57.25,712.8205128205128,-8.75,738.4615384615385,-10C764.1025641025641,-11.25,787.1794871794872,41.45833333333333,800,55" transform="matrix(1,0,0,1,0,455)"></path><path d="M10,10C20.73717948717949,17.5,37.98076923076923,49.958333333333336,61.53846153846154,46C85.09615384615384,42.041666666666664,97.43589743589745,-3.166666666666666,123.07692307692308,-9C148.71794871794873,-14.833333333333334,158.97435897435898,18.208333333333332,184.6153846153846,18C210.25641025641025,17.791666666666668,220.51282051282053,-14.166666666666668,246.15384615384616,-10C271.7948717948718,-5.833333333333333,282.05128205128204,37.791666666666664,307.6923076923077,38C333.3333333333333,38.208333333333336,343.5897435897436,-8.375,369.2307692307692,-9C394.87179487179486,-9.625,405.12820512820514,38.75,430.7692307692308,35C456.4102564102564,31.25,466.6666666666667,-27.833333333333332,492.3076923076923,-27C517.948717948718,-26.166666666666668,528.2051282051282,31.708333333333336,553.8461538461538,39C579.4871794871794,46.291666666666664,589.7435897435897,3.416666666666667,615.3846153846154,8C641.025641025641,12.583333333333332,651.2820512820513,64.75,676.9230769230769,61C702.5641025641025,57.25,712.8205128205128,-8.75,738.4615384615385,-10C764.1025641025641,-11.25,787.1794871794872,41.45833333333333,800,55" transform="matrix(1,0,0,1,0,420)"></path><path d="M10,10C20.73717948717949,17.5,37.98076923076923,49.958333333333336,61.53846153846154,46C85.09615384615384,42.041666666666664,97.43589743589745,-3.166666666666666,123.07692307692308,-9C148.71794871794873,-14.833333333333334,158.97435897435898,18.208333333333332,184.6153846153846,18C210.25641025641025,17.791666666666668,220.51282051282053,-14.166666666666668,246.15384615384616,-10C271.7948717948718,-5.833333333333333,282.05128205128204,37.791666666666664,307.6923076923077,38C333.3333333333333,38.208333333333336,343.5897435897436,-8.375,369.2307692307692,-9C394.87179487179486,-9.625,405.12820512820514,38.75,430.7692307692308,35C456.4102564102564,31.25,466.6666666666667,-27.833333333333332,492.3076923076923,-27C517.948717948718,-26.166666666666668,528.2051282051282,31.708333333333336,553.8461538461538,39C579.4871794871794,46.291666666666664,589.7435897435897,3.416666666666667,615.3846153846154,8C641.025641025641,12.583333333333332,651.2820512820513,64.75,676.9230769230769,61C702.5641025641025,57.25,712.8205128205128,-8.75,738.4615384615385,-10C764.1025641025641,-11.25,787.1794871794872,41.45833333333333,800,55" transform="matrix(1,0,0,1,0,385)"></path><path d="M10,10C20.73717948717949,17.5,37.98076923076923,49.958333333333336,61.53846153846154,46C85.09615384615384,42.041666666666664,97.43589743589745,-3.166666666666666,123.07692307692308,-9C148.71794871794873,-14.833333333333334,158.97435897435898,18.208333333333332,184.6153846153846,18C210.25641025641025,17.791666666666668,220.51282051282053,-14.166666666666668,246.15384615384616,-10C271.7948717948718,-5.833333333333333,282.05128205128204,37.791666666666664,307.6923076923077,38C333.3333333333333,38.208333333333336,343.5897435897436,-8.375,369.2307692307692,-9C394.87179487179486,-9.625,405.12820512820514,38.75,430.7692307692308,35C456.4102564102564,31.25,466.6666666666667,-27.833333333333332,492.3076923076923,-27C517.948717948718,-26.166666666666668,528.2051282051282,31.708333333333336,553.8461538461538,39C579.4871794871794,46.291666666666664,589.7435897435897,3.416666666666667,615.3846153846154,8C641.025641025641,12.583333333333332,651.2820512820513,64.75,676.9230769230769,61C702.5641025641025,57.25,712.8205128205128,-8.75,738.4615384615385,-10C764.1025641025641,-11.25,787.1794871794872,41.45833333333333,800,55" transform="matrix(1,0,0,1,0,350)"></path><path d="M10,10C20.73717948717949,17.5,37.98076923076923,49.958333333333336,61.53846153846154,46C85.09615384615384,42.041666666666664,97.43589743589745,-3.166666666666666,123.07692307692308,-9C148.71794871794873,-14.833333333333334,158.97435897435898,18.208333333333332,184.6153846153846,18C210.25641025641025,17.791666666666668,220.51282051282053,-14.166666666666668,246.15384615384616,-10C271.7948717948718,-5.833333333333333,282.05128205128204,37.791666666666664,307.6923076923077,38C333.3333333333333,38.208333333333336,343.5897435897436,-8.375,369.2307692307692,-9C394.87179487179486,-9.625,405.12820512820514,38.75,430.7692307692308,35C456.4102564102564,31.25,466.6666666666667,-27.833333333333332,492.3076923076923,-27C517.948717948718,-26.166666666666668,528.2051282051282,31.708333333333336,553.8461538461538,39C579.4871794871794,46.291666666666664,589.7435897435897,3.416666666666667,615.3846153846154,8C641.025641025641,12.583333333333332,651.2820512820513,64.75,676.9230769230769,61C702.5641025641025,57.25,712.8205128205128,-8.75,738.4615384615385,-10C764.1025641025641,-11.25,787.1794871794872,41.45833333333333,800,55" transform="matrix(1,0,0,1,0,315)"></path><path d="M10,10C20.73717948717949,17.5,37.98076923076923,49.958333333333336,61.53846153846154,46C85.09615384615384,42.041666666666664,97.43589743589745,-3.166666666666666,123.07692307692308,-9C148.71794871794873,-14.833333333333334,158.97435897435898,18.208333333333332,184.6153846153846,18C210.25641025641025,17.791666666666668,220.51282051282053,-14.166666666666668,246.15384615384616,-10C271.7948717948718,-5.833333333333333,282.05128205128204,37.791666666666664,307.6923076923077,38C333.3333333333333,38.208333333333336,343.5897435897436,-8.375,369.2307692307692,-9C394.87179487179486,-9.625,405.12820512820514,38.75,430.7692307692308,35C456.4102564102564,31.25,466.6666666666667,-27.833333333333332,492.3076923076923,-27C517.948717948718,-26.166666666666668,528.2051282051282,31.708333333333336,553.8461538461538,39C579.4871794871794,46.291666666666664,589.7435897435897,3.416666666666667,615.3846153846154,8C641.025641025641,12.583333333333332,651.2820512820513,64.75,676.9230769230769,61C702.5641025641025,57.25,712.8205128205128,-8.75,738.4615384615385,-10C764.1025641025641,-11.25,787.1794871794872,41.45833333333333,800,55" transform="matrix(1,0,0,1,0,280)"></path><path d="M10,10C20.73717948717949,17.5,37.98076923076923,49.958333333333336,61.53846153846154,46C85.09615384615384,42.041666666666664,97.43589743589745,-3.166666666666666,123.07692307692308,-9C148.71794871794873,-14.833333333333334,158.97435897435898,18.208333333333332,184.6153846153846,18C210.25641025641025,17.791666666666668,220.51282051282053,-14.166666666666668,246.15384615384616,-10C271.7948717948718,-5.833333333333333,282.05128205128204,37.791666666666664,307.6923076923077,38C333.3333333333333,38.208333333333336,343.5897435897436,-8.375,369.2307692307692,-9C394.87179487179486,-9.625,405.12820512820514,38.75,430.7692307692308,35C456.4102564102564,31.25,466.6666666666667,-27.833333333333332,492.3076923076923,-27C517.948717948718,-26.166666666666668,528.2051282051282,31.708333333333336,553.8461538461538,39C579.4871794871794,46.291666666666664,589.7435897435897,3.416666666666667,615.3846153846154,8C641.025641025641,12.583333333333332,651.2820512820513,64.75,676.9230769230769,61C702.5641025641025,57.25,712.8205128205128,-8.75,738.4615384615385,-10C764.1025641025641,-11.25,787.1794871794872,41.45833333333333,800,55" transform="matrix(1,0,0,1,0,245)"></path><path d="M10,10C20.73717948717949,17.5,37.98076923076923,49.958333333333336,61.53846153846154,46C85.09615384615384,42.041666666666664,97.43589743589745,-3.166666666666666,123.07692307692308,-9C148.71794871794873,-14.833333333333334,158.97435897435898,18.208333333333332,184.6153846153846,18C210.25641025641025,17.791666666666668,220.51282051282053,-14.166666666666668,246.15384615384616,-10C271.7948717948718,-5.833333333333333,282.05128205128204,37.791666666666664,307.6923076923077,38C333.3333333333333,38.208333333333336,343.5897435897436,-8.375,369.2307692307692,-9C394.87179487179486,-9.625,405.12820512820514,38.75,430.7692307692308,35C456.4102564102564,31.25,466.6666666666667,-27.833333333333332,492.3076923076923,-27C517.948717948718,-26.166666666666668,528.2051282051282,31.708333333333336,553.8461538461538,39C579.4871794871794,46.291666666666664,589.7435897435897,3.416666666666667,615.3846153846154,8C641.025641025641,12.583333333333332,651.2820512820513,64.75,676.9230769230769,61C702.5641025641025,57.25,712.8205128205128,-8.75,738.4615384615385,-10C764.1025641025641,-11.25,787.1794871794872,41.45833333333333,800,55" transform="matrix(1,0,0,1,0,210)"></path><path d="M10,10C20.73717948717949,17.5,37.98076923076923,49.958333333333336,61.53846153846154,46C85.09615384615384,42.041666666666664,97.43589743589745,-3.166666666666666,123.07692307692308,-9C148.71794871794873,-14.833333333333334,158.97435897435898,18.208333333333332,184.6153846153846,18C210.25641025641025,17.791666666666668,220.51282051282053,-14.166666666666668,246.15384615384616,-10C271.7948717948718,-5.833333333333333,282.05128205128204,37.791666666666664,307.6923076923077,38C333.3333333333333,38.208333333333336,343.5897435897436,-8.375,369.2307692307692,-9C394.87179487179486,-9.625,405.12820512820514,38.75,430.7692307692308,35C456.4102564102564,31.25,466.6666666666667,-27.833333333333332,492.3076923076923,-27C517.948717948718,-26.166666666666668,528.2051282051282,31.708333333333336,553.8461538461538,39C579.4871794871794,46.291666666666664,589.7435897435897,3.416666666666667,615.3846153846154,8C641.025641025641,12.583333333333332,651.2820512820513,64.75,676.9230769230769,61C702.5641025641025,57.25,712.8205128205128,-8.75,738.4615384615385,-10C764.1025641025641,-11.25,787.1794871794872,41.45833333333333,800,55" transform="matrix(1,0,0,1,0,175)"></path><path d="M10,10C20.73717948717949,17.5,37.98076923076923,49.958333333333336,61.53846153846154,46C85.09615384615384,42.041666666666664,97.43589743589745,-3.166666666666666,123.07692307692308,-9C148.71794871794873,-14.833333333333334,158.97435897435898,18.208333333333332,184.6153846153846,18C210.25641025641025,17.791666666666668,220.51282051282053,-14.166666666666668,246.15384615384616,-10C271.7948717948718,-5.833333333333333,282.05128205128204,37.791666666666664,307.6923076923077,38C333.3333333333333,38.208333333333336,343.5897435897436,-8.375,369.2307692307692,-9C394.87179487179486,-9.625,405.12820512820514,38.75,430.7692307692308,35C456.4102564102564,31.25,466.6666666666667,-27.833333333333332,492.3076923076923,-27C517.948717948718,-26.166666666666668,528.2051282051282,31.708333333333336,553.8461538461538,39C579.4871794871794,46.291666666666664,589.7435897435897,3.416666666666667,615.3846153846154,8C641.025641025641,12.583333333333332,651.2820512820513,64.75,676.9230769230769,61C702.5641025641025,57.25,712.8205128205128,-8.75,738.4615384615385,-10C764.1025641025641,-11.25,787.1794871794872,41.45833333333333,800,55" transform="matrix(1,0,0,1,0,140)"></path><path d="M10,10C20.73717948717949,17.5,37.98076923076923,49.958333333333336,61.53846153846154,46C85.09615384615384,42.041666666666664,97.43589743589745,-3.166666666666666,123.07692307692308,-9C148.71794871794873,-14.833333333333334,158.97435897435898,18.208333333333332,184.6153846153846,18C210.25641025641025,17.791666666666668,220.51282051282053,-14.166666666666668,246.15384615384616,-10C271.7948717948718,-5.833333333333333,282.05128205128204,37.791666666666664,307.6923076923077,38C333.3333333333333,38.208333333333336,343.5897435897436,-8.375,369.2307692307692,-9C394.87179487179486,-9.625,405.12820512820514,38.75,430.7692307692308,35C456.4102564102564,31.25,466.6666666666667,-27.833333333333332,492.3076923076923,-27C517.948717948718,-26.166666666666668,528.2051282051282,31.708333333333336,553.8461538461538,39C579.4871794871794,46.291666666666664,589.7435897435897,3.416666666666667,615.3846153846154,8C641.025641025641,12.583333333333332,651.2820512820513,64.75,676.9230769230769,61C702.5641025641025,57.25,712.8205128205128,-8.75,738.4615384615385,-10C764.1025641025641,-11.25,787.1794871794872,41.45833333333333,800,55" transform="matrix(1,0,0,1,0,105)"></path><path d="M10,10C20.73717948717949,17.5,37.98076923076923,49.958333333333336,61.53846153846154,46C85.09615384615384,42.041666666666664,97.43589743589745,-3.166666666666666,123.07692307692308,-9C148.71794871794873,-14.833333333333334,158.97435897435898,18.208333333333332,184.6153846153846,18C210.25641025641025,17.791666666666668,220.51282051282053,-14.166666666666668,246.15384615384616,-10C271.7948717948718,-5.833333333333333,282.05128205128204,37.791666666666664,307.6923076923077,38C333.3333333333333,38.208333333333336,343.5897435897436,-8.375,369.2307692307692,-9C394.87179487179486,-9.625,405.12820512820514,38.75,430.7692307692308,35C456.4102564102564,31.25,466.6666666666667,-27.833333333333332,492.3076923076923,-27C517.948717948718,-26.166666666666668,528.2051282051282,31.708333333333336,553.8461538461538,39C579.4871794871794,46.291666666666664,589.7435897435897,3.416666666666667,615.3846153846154,8C641.025641025641,12.583333333333332,651.2820512820513,64.75,676.9230769230769,61C702.5641025641025,57.25,712.8205128205128,-8.75,738.4615384615385,-10C764.1025641025641,-11.25,787.1794871794872,41.45833333333333,800,55" transform="matrix(1,0,0,1,0,70)"></path><path d="M10,10C20.73717948717949,17.5,37.98076923076923,49.958333333333336,61.53846153846154,46C85.09615384615384,42.041666666666664,97.43589743589745,-3.166666666666666,123.07692307692308,-9C148.71794871794873,-14.833333333333334,158.97435897435898,18.208333333333332,184.6153846153846,18C210.25641025641025,17.791666666666668,220.51282051282053,-14.166666666666668,246.15384615384616,-10C271.7948717948718,-5.833333333333333,282.05128205128204,37.791666666666664,307.6923076923077,38C333.3333333333333,38.208333333333336,343.5897435897436,-8.375,369.2307692307692,-9C394.87179487179486,-9.625,405.12820512820514,38.75,430.7692307692308,35C456.4102564102564,31.25,466.6666666666667,-27.833333333333332,492.3076923076923,-27C517.948717948718,-26.166666666666668,528.2051282051282,31.708333333333336,553.8461538461538,39C579.4871794871794,46.291666666666664,589.7435897435897,3.416666666666667,615.3846153846154,8C641.025641025641,12.583333333333332,651.2820512820513,64.75,676.9230769230769,61C702.5641025641025,57.25,712.8205128205128,-8.75,738.4615384615385,-10C764.1025641025641,-11.25,787.1794871794872,41.45833333333333,800,55" transform="matrix(1,0,0,1,0,35)"></path></g></svg>