<svg xmlns="http://www.w3.org/2000/svg" version="1.1" xmlns:xlink="http://www.w3.org/1999/xlink" xmlns:svgjs="http://svgjs.dev/svgjs" viewBox="0 0 800 800"><g fill="hsl(231, 100%, 64%)"><path d="M718 188H768C796 188 818 210 818 238H768C740 238 718 216 718 188Z " transform="matrix(-0.008908636567632534,-0.5103754471420487,0.5103754471420487,-0.008908636567632534,666.1318626426854,606.8658829939991)"></path><path d="M326 10H376C404 10 426 32 426 60H376C348 60 326 38 326 10Z " transform="matrix(-0.3048073656298297,-0.3268658814864819,0.3268658814864819,-0.3048073656298297,479.16726362478903,168.5698292359612)"></path><path d="M368 744H418C446 744 468 766 468 794H418C390 794 368 772 368 744Z " transform="matrix(0.3777637997338311,-0.434567540605564,0.434567540605564,0.3777637997338311,-74.08770701442012,660.1488699778097)"></path><path d="M498 9H548C576 9 598 31 598 59H548C520 59 498 37 498 9Z " transform="matrix(-0.008388020092473563,0.24020146791025976,-0.24020146791025976,-0.008388020092473563,560.7634849196244,-97.34521173167823)"></path><path d="M435 746H485C513 746 535 768 535 796H485C457 796 435 774 435 746Z " transform="matrix(-0.38322254801250555,-0.1245165538898238,0.1245165538898238,-0.38322254801250555,574.8606727370111,1126.8551131542063)"></path><path d="M384 4H434C462 4 484 26 484 54H434C406 54 384 32 384 4Z " transform="matrix(-0.30887003054863854,0.13751779763237784,-0.13751779763237784,-0.30887003054863854,572.0376093894481,-21.725493286541464)"></path><path d="M660 214H710C738 214 760 236 760 264H710C682 264 660 242 660 214Z " transform="matrix(-0.3737101120987113,0.00652313427101445,-0.00652313427101445,-0.3737101120987113,976.8932086808574,323.6852914591717)"></path><path d="M-21 475H29C57 475 79 497 79 525H29C1 525 -21 503 -21 475Z " transform="matrix(-0.06744035066798137,0.2516908151731681,-0.2516908151731681,-0.06744035066798137,156.80117775595556,526.4211416939687)"></path><path d="M722 688H772C800 688 822 710 822 738H772C744 738 722 716 722 688Z " transform="matrix(-0.008908636567632534,-0.5103754471420487,0.5103754471420487,-0.008908636567632534,414.9797736179316,1113.3617030663836)"></path><path d="M440 9H490C518 9 540 31 540 59H490C462 59 440 37 440 9Z " transform="matrix(-0.12638092451960511,0.24803653015763055,-0.24803653015763055,-0.12638092451960511,560.359895039966,-83.2409483435724)"></path><path d="M-23 563H27C55 563 77 585 77 613H27C-1 613 -23 591 -23 563Z " transform="matrix(-0.06744035066798137,0.2516908151731681,-0.2516908151731681,-0.06744035066798137,176.81508878985832,620.8592741830975)"></path><path d="M521 81H571C599 81 621 103 621 131H571C543 131 521 109 521 81Z " transform="matrix(0.03131594455976469,0.22282452374841175,-0.22282452374841175,0.03131594455976469,576.737995173706,-24.55229318367816)"></path><path d="M401 445H451C479 445 501 467 501 495H451C423 495 401 473 401 445Z " transform="matrix(-0.06971077536310208,-0.49601794034254537,0.49601794034254537,-0.06971077536310208,249.3111277277627,726.4681555151459)"></path><path d="M162 217H212C240 217 262 239 262 267H212C184 267 162 245 162 217Z " transform="matrix(-0.3774605230327103,-0.013181211917059786,0.013181211917059786,-0.3774605230327103,288.83177759900616,336.1398635003326)"></path><path d="M208 412H258C286 412 308 434 308 462H258C230 462 208 440 208 412Z " transform="matrix(-0.22063093676333106,-0.4149464418449498,0.4149464418449498,-0.22063093676333106,133.59118659869637,640.4719013615727)"></path><path d="M113 164H163C191 164 213 186 213 214H163C135 214 113 192 113 164Z " transform="matrix(-0.2119319256266791,0.2194619334464348,-0.2194619334464348,-0.2119319256266791,239.0232092985249,193.28283879167347)"></path><path d="M120 107H170C198 107 220 129 220 157H170C142 157 120 135 120 107Z " transform="matrix(-0.2971795127647244,0.15142052482198157,-0.15142052482198157,-0.2971795127647244,240.5080264465047,145.48620646520675)"></path><path d="M-24 379H26C54 379 76 401 76 429H26C-2 429 -24 407 -24 379Z " transform="matrix(-0.06744035066798137,0.2516908151731681,-0.2516908151731681,-0.06744035066798137,129.43653844732745,424.7019404753621)"></path><path d="M583 516H633C661 516 683 538 683 566H633C605 566 583 544 583 516Z " transform="matrix(0.048906334280921275,0.21183660703748672,-0.21183660703748672,0.048906334280921275,716.6458948074571,380.4491008992925)"></path><path d="M92 619H142C170 619 192 641 192 669H142C114 669 92 647 92 619Z " transform="matrix(-0.15682239685614885,0.24148531446020977,-0.24148531446020977,-0.15682239685614885,319.7853228659483,710.7027089220101)"></path><path d="M375 378H425C453 378 475 400 475 428H425C397 428 375 406 375 378Z " transform="matrix(0.3777637997338311,-0.434567540605564,0.434567540605564,0.3777637997338311,89.31966624907949,435.45239346463075)"></path><path d="M462 454H512C540 454 562 476 562 504H512C484 504 462 482 462 454Z " transform="matrix(-0.34062658966872417,0.09127061962230215,-0.09127061962230215,-0.34062658966872417,730.1194407094695,595.4295792047002)"></path><path d="M538 159H588C616 159 638 181 638 209H588C560 209 538 187 538 159Z " transform="matrix(0.07628200277509709,0.18880458222090823,-0.18880458222090823,0.07628200277509709,577.88622549689,58.94701714348808)"></path><path d="M481 682H531C559 682 581 704 581 732H531C503 732 481 710 481 682Z " transform="matrix(-0.21623109830779882,0.21623109830779885,-0.21623109830779885,-0.21623109830779882,798.6940997050549,745.0566733021726)"></path><path d="M447 517H497C525 517 547 539 547 567H497C469 567 447 545 447 517Z " transform="matrix(-0.38322254801250555,-0.1245165538898238,0.1245165538898238,-0.38322254801250555,619.9736341539308,811.5913483060203)"></path><path d="M668 79H718C746 79 768 101 768 129H718C690 129 668 107 668 79Z " transform="matrix(-0.381847261154925,-0.13148055607467088,0.13148055607467088,-0.381847261154925,978.4923556774704,238.1151544217259)"></path><path d="M630 557H680C708 557 730 579 730 607H680C652 607 630 585 630 557Z " transform="matrix(-0.19177085779405417,0.2285436087309374,-0.2285436087309374,-0.19177085779405417,943.4165635813624,538.2009852991021)"></path><path d="M571 315H621C649 315 671 337 671 365H621C593 365 571 343 571 315Z " transform="matrix(0.048906334280921275,0.21183660703748672,-0.21183660703748672,0.048906334280921275,662.6536128042934,191.8213133742075)"></path><path d="M52 2H102C130 2 152 24 152 52H102C74 52 52 30 52 2Z " transform="matrix(-0.3304776769479291,0.10737870640567772,-0.10737870640567772,-0.3304776769479291,138.60794812164207,24.97026922421496)"></path><path d="M-23 81H27C55 81 77 103 77 131H27C-1 131 -23 109 -23 81Z " transform="matrix(0.07376307734301626,0.19215938616445472,-0.19215938616445472,0.07376307734301626,45.37729184517076,92.9928103752)"></path><path d="M451 75H501C529 75 551 97 551 125H501C473 125 451 103 451 75Z " transform="matrix(-0.13671346874316984,0.24663762640148554,-0.24663762640148554,-0.13671346874316984,594.1572104804766,-9.894103952827265)"></path><path d="M527 554H577C605 554 627 576 627 604H577C549 604 527 582 527 554Z " transform="matrix(0.0587350224199629,0.20483336554669823,-0.20483336554669823,0.0587350224199629,661.7084107152197,426.80357009839656)"></path><path d="M100 548H150C178 548 200 570 200 598H150C122 598 100 576 100 548Z " transform="matrix(-0.15682239685614885,0.24148531446020977,-0.24148531446020977,-0.15682239685614885,311.8944447141225,626.6364362295418)"></path><path d="M81 391H131C159 391 181 413 181 441H131C103 441 81 419 81 391Z " transform="matrix(-0.11179922840167786,0.25110517828428525,-0.25110517828428525,-0.11179922840167786,250.10545308688248,429.6137006598566)"></path><path d="M319 493H369C397 493 419 515 419 543H369C341 543 319 521 319 493Z " transform="matrix(0.5721435022842317,-0.23116097986400677,0.23116097986400677,0.5721435022842317,38.13766008756295,306.92806738658646)"></path><path d="M263 295H313C341 295 363 317 363 345H313C285 345 263 323 263 295Z " transform="matrix(0.2792281378885537,-0.4836373217258232,0.4836373217258232,0.2792281378885537,70.8376498886193,382.02547757584546)"></path><path d="M432 196H482C510 196 532 218 532 246H482C454 246 432 224 432 196Z " transform="matrix(-0.2853560854703436,-0.35238541854730066,0.35238541854730066,-0.2853560854703436,541.6644556977521,453.9134666287448)"></path><path d="M123 678H173C201 678 223 700 223 728H173C145 728 123 706 123 678Z " transform="matrix(-0.27653088621418215,0.17279567565156798,-0.17279567565156798,-0.27653088621418215,342.31520329810576,867.5075611208488)"></path><path d="M660 510H710C738 510 760 532 760 560H710C682 560 660 538 660 510Z " transform="matrix(-0.3737101120987113,0.00652313427101445,-0.00652313427101445,-0.3737101120987113,978.8240564250777,730.3034846403903)"></path><path d="M208 634H258C286 634 308 656 308 684H258C230 684 208 662 208 634Z " transform="matrix(-0.22063093676333106,-0.4149464418449498,0.4149464418449498,-0.22063093676333106,41.47307650911753,911.4519693230322)"></path><path d="M46 676H96C124 676 146 698 146 726H96C68 726 46 704 46 676Z " transform="matrix(-0.06737845096075573,0.2514598023208284,-0.2514598023208284,-0.06737845096075573,278.7416527191332,724.0921531006902)"></path><path d="M723 258H773C801 258 823 280 823 308H773C745 308 723 286 723 258Z " transform="matrix(-0.008908636567632534,-0.5103754471420487,0.5103754471420487,-0.008908636567632534,635.4501245255801,680.0413647894436)"></path><path d="M388 247H438C466 247 488 269 488 297H438C410 297 388 275 388 247Z " transform="matrix(0.18552453997552862,-0.5097244843374722,0.5097244843374722,0.18552453997552862,218.09519175092603,444.7966492664691)"></path><path d="M395 572H445C473 572 495 594 495 622H445C417 622 395 600 395 572Z " transform="matrix(0.18552453997552862,-0.5097244843374722,0.5097244843374722,0.18552453997552862,58.13606256141884,713.0692451647845)"></path><path d="M90 56H140C168 56 190 78 190 106H140C112 106 90 84 90 56Z " transform="matrix(-0.21605087896894773,0.21605087896894778,-0.21605087896894778,-0.21605087896894773,187.74724425213748,68.25299814083208)"></path><path d="M33 520H83C111 520 133 542 133 570H83C55 570 33 548 33 520Z " transform="matrix(-0.05799657557602188,0.25121076789863667,-0.25121076789863667,-0.05799657557602188,224.7235842775668,555.757639953345)"></path><path d="M667 666H717C745 666 767 688 767 716H717C689 716 667 694 667 666Z " transform="matrix(-0.3737101120987113,0.00652313427101445,-0.00652313427101445,-0.3737101120987113,989.4576361560469,944.5566001878922)"></path><path d="M-18 149H32C60 149 82 171 82 199H32C4 199 -18 177 -18 149Z " transform="matrix(0.004106449564595681,0.23525833799433715,-0.23525833799433715,0.004106449564595681,72.8035444249476,165.75721095994157)"></path><path d="M-20 296H30C58 296 80 318 80 346H30C2 346 -20 324 -20 296Z " transform="matrix(-0.06744035066798137,0.2516908151731681,-0.2516908151731681,-0.06744035066798137,112.8159621906264,335.097628109227)"></path><path d="M382 637H432C460 637 482 659 482 687H432C404 687 382 665 382 637Z " transform="matrix(0.3777637997338311,-0.434567540605564,0.434567540605564,0.3777637997338311,-18.87767336589843,599.6535421178074)"></path><path d="M196 3H246C274 3 296 25 296 53H246C218 53 196 31 196 3Z " transform="matrix(-0.2744886156435011,-0.36425869598346317,0.36425869598346317,-0.2744886156435011,303.32495596076427,125.29332044994996)"></path><path d="M32 340H82C110 340 132 362 132 390H82C54 390 32 368 32 340Z " transform="matrix(-0.05799657557602188,0.25121076789863667,-0.25121076789863667,-0.05799657557602188,178.44764948023618,365.5694671175598)"></path><path d="M477 140H527C555 140 577 162 577 190H527C499 190 477 168 477 140Z " transform="matrix(-0.1514091144159352,0.24230523381134825,-0.24230523381134825,-0.1514091144159352,646.7729668760703,62.28764566004877)"></path><path d="M674 285H724C752 285 774 307 774 335H724C696 335 674 313 674 285Z " transform="matrix(-0.37389435063567783,-0.17434979904230674,0.17434979904230674,-0.37389435063567783,940.6510721571158,552.1365032036902)"></path><path d="M714 557H764C792 557 814 579 814 607H764C736 607 714 585 714 557Z " transform="matrix(-0.16505996495523936,-0.45349852657049045,0.45349852657049045,-0.16505996495523936,626.1696707617774,1024.537773903804)"></path><path d="M-18 8H32C60 8 82 30 82 58H32C4 58 -18 36 -18 8Z " transform="matrix(-0.19684983960320288,0.22644983644604755,-0.22644983644604755,-0.19684983960320288,45.77203947002206,32.249649940632175)"></path><path d="M449 262H499C527 262 549 284 549 312H499C471 312 449 290 449 262Z " transform="matrix(-0.38322254801250555,-0.1245165538898238,0.1245165538898238,-0.38322254801250555,654.4918004918609,459.1186316706111)"></path><path d="M581 600H631C659 600 681 622 681 650H631C603 650 581 628 581 600Z " transform="matrix(0.048906334280921275,0.21183660703748672,-0.21183660703748672,0.048906334280921275,732.5379824671678,460.7646420337701)"></path><path d="M606 665H656C684 665 706 687 706 715H656C628 715 606 693 606 665Z " transform="matrix(-0.08203394710978974,0.25247452850930546,-0.25247452850930546,-0.08203394710978974,884.0216939754428,580.9801328036506)"></path><path d="M338 433H388C416 433 438 455 438 483H388C360 483 338 461 338 433Z " transform="matrix(0.5601774052422795,-0.24940704967556715,0.24940704967556715,0.5601774052422795,56.422738014585775,298.2086836731561)"></path><path d="M381 507H431C459 507 481 529 481 557H431C403 557 381 535 381 507Z " transform="matrix(0.3777637997338311,-0.434567540605564,0.434567540605564,0.3777637997338311,36.99387071255876,518.3282685426)"></path><path d="M513 414H563C591 414 613 436 613 464H563C535 464 513 442 513 414Z " transform="matrix(0.008164458266885966,0.23379949484833998,-0.23379949484833998,0.008164458266885966,661.0413882341645,303.78668722122165)"></path><path d="M450 328H500C528 328 550 350 550 378H500C472 378 450 356 450 328Z " transform="matrix(-0.34062658966872417,0.09127061962230215,-0.09127061962230215,-0.34062658966872417,702.5318235610348,427.6058763419086)"></path><path d="M-18 222H32C60 222 82 244 82 272H32C4 272 -18 250 -18 222Z " transform="matrix(-0.06744035066798137,0.2516908151731681,-0.2516908151731681,-0.06744035066798137,96.32572256914791,255.60366052945)"></path><path d="M598 186H648C676 186 698 208 698 236H648C620 236 598 214 598 186Z " transform="matrix(1.4573637878489435e-17,0.23800556844040535,-0.23800556844040535,1.4573637878489435e-17,698.2191749409255,56.77239165061732)"></path><path d="M51 123H101C129 123 151 145 151 173H101C73 173 51 151 51 123Z " transform="matrix(-0.030329361739322536,0.24701282894440107,-0.24701282894440107,-0.030329361739322536,140.62116421944293,127.54044981403523)"></path><path d="M519 624H569C597 624 619 646 619 674H569C541 674 519 652 519 624Z " transform="matrix(0.0587350224199629,0.20483336554669823,-0.20483336554669823,0.0587350224199629,668.5166264828484,494.33078545337276)"></path><path d="M266 453H316C344 453 366 475 366 503H316C288 503 266 481 266 453Z " transform="matrix(0.2792281378885537,-0.4836373217258232,0.4836373217258232,0.2792281378885537,-3.4147313577264526,497.35834375463145)"></path><path d="M409 134H459C487 134 509 156 509 184H459C431 184 409 162 409 134Z " transform="matrix(-0.2576249087418075,-0.38194463421726005,0.38194463421726005,-0.2576249087418075,516.5206362719452,375.2749475956697)"></path><path d="M137 495H187C215 495 237 517 237 545H187C159 545 137 523 137 495Z " transform="matrix(-0.33687572415540495,0.09659755947571956,-0.09659755947571956,-0.33687572415540495,300.22649134443486,677.111632938851)"></path><path d="M264 6H314C342 6 364 28 364 56H314C286 56 264 34 264 6Z " transform="matrix(-0.11070943400712609,-0.4795352424575199,0.4795352424575199,-0.11070943400712609,333.89716976205443,185.00605858588216)"></path><path d="M154 365H204C232 365 254 387 254 415H204C176 415 154 393 154 365Z " transform="matrix(-0.3774605230327103,-0.013181211917059786,0.013181211917059786,-0.3774605230327103,275.86127405101956,539.8985712138372)"></path><path d="M346 123H396C424 123 446 145 446 173H396C368 173 346 151 346 123Z " transform="matrix(0.2603772969620998,-0.48969847337196276,0.48969847337196276,0.2603772969620998,220.415216343958,303.3847555049065)"></path><path d="M190 693H240C268 693 290 715 290 743H240C212 743 190 721 190 693Z " transform="matrix(-0.3307526566704999,-0.2875188979411494,0.2875188979411494,-0.3307526566704999,112.94206887917474,1024.4849429952947)"></path><path d="M286 393H336C364 393 386 415 386 443H336C308 443 286 421 286 393Z " transform="matrix(0.5033673203147392,-0.3268905599798751,0.3268905599798751,0.5033673203147392,30.22832630265981,317.427688261677)"></path><path d="M316 339H366C394 339 416 361 416 389H366C338 389 316 367 316 339Z " transform="matrix(0.5549303807010565,-0.2587682862637719,0.2587682862637719,0.5549303807010565,68.7038244634004,256.71453419735593)"></path><path d="M93 222H143C171 222 193 244 193 272H143C115 272 93 250 93 222Z " transform="matrix(-0.15682239685614885,0.24148531446020977,-0.24148531446020977,-0.15682239685614885,225.0724754221011,251.20273205565877)"></path><path d="M184 308H234C262 308 284 330 284 358H234C206 358 184 336 184 308Z " transform="matrix(-0.3307526566704999,-0.2875188979411494,0.2875188979411494,-0.3307526566704999,215.65232864649423,510.42005678950545)"></path><path d="M144 745H194C222 745 244 767 244 795H194C166 795 144 773 144 745Z " transform="matrix(-0.33687572415540495,0.09659755947571956,-0.09659755947571956,-0.33687572415540495,333.7340112824527,1010.6543810613722)"></path><path d="M322 554H372C400 554 422 576 422 604H372C344 604 322 582 322 554Z " transform="matrix(0.5721435022842317,-0.23116097986400677,0.23116097986400677,0.5721435022842317,25.320409809005866,333.72079668684034)"></path><path d="M40 188H90C118 188 140 210 140 238H90C62 238 40 216 40 188Z " transform="matrix(-0.06737845096075573,0.2514598023208284,-0.2514598023208284,-0.06737845096075573,149.62499848080444,204.72022784576643)"></path><path d="M636 334H686C714 334 736 356 736 384H686C658 384 636 362 636 334Z " transform="matrix(-0.30114049335142384,0.1468760323442905,-0.1468760323442905,-0.30114049335142384,945.3108740506771,366.3524789249779)"></path><path d="M-13 736H37C65 736 87 758 87 786H37C9 786 -13 764 -13 736Z " transform="matrix(-0.06256406128658153,0.2509307441327892,-0.2509307441327892,-0.06256406128658153,230.2731665526561,799.3268131061753)"></path></g><g fill="none" stroke-width="3" stroke="hsl(231, 100%, 64%)"><path d="M584 386H634C662 386 684 408 684 436H634C606 436 584 414 584 386Z " transform="matrix(1.4573637878489435e-17,0.23800556844040535,-0.23800556844040535,1.4573637878489435e-17,731.8202886290067,260.104469608783)"></path><path d="M615 263H665C693 263 715 285 715 313H665C637 313 615 291 615 263Z " transform="matrix(-0.08203394710978974,0.25247452850930546,-0.25247452850930546,-0.08203394710978974,792.2652390386902,143.73021530893135)"></path><path d="M130 272H180C208 272 230 294 230 322H180C152 322 130 300 130 272Z " transform="matrix(-0.27653088621418215,0.17279567565156798,-0.17279567565156798,-0.27653088621418215,281.0958751870685,348.02645158832985)"></path><path d="M720 622H770C798 622 820 644 820 672H770C742 672 720 650 720 622Z " transform="matrix(-0.008908636567632534,-0.5103754471420487,0.5103754471420487,-0.008908636567632534,446.6467358561716,1045.7529821586359)"></path><path d="M510 285H560C588 285 610 307 610 335H560C532 335 510 313 510 285Z " transform="matrix(0.008164458266885966,0.23379949484833998,-0.23379949484833998,0.008164458266885966,627.9057467735292,176.54130082219496)"></path><path d="M232 60H282C310 60 332 82 332 110H282C254 110 232 88 232 60Z " transform="matrix(-0.1647491335123135,-0.4526445241997952,0.4526445241997952,-0.1647491335123135,289.98447109348984,226.64943217288888)"></path><path d="M358 192H408C436 192 458 214 458 242H408C380 242 358 220 358 192Z " transform="matrix(0.5028356097241825,-0.326545263084984,0.326545263084984,0.5028356097241825,131.98274914309206,241.1151400285259)"></path><path d="M581 113H631C659 113 681 135 681 163H631C603 163 581 141 581 113Z " transform="matrix(0.02009266427766496,0.22966020359553505,-0.22966020359553505,0.02009266427766496,650.0146369369772,-9.68837613910037)"></path><path d="M-19 651H31C59 651 81 673 81 701H31C3 701 -19 679 -19 651Z " transform="matrix(-0.06744035066798137,0.2516908151731681,-0.2516908151731681,-0.06744035066798137,203.23364192776904,713.7872617811872)"></path><path d="M250 582H300C328 582 350 604 350 632H300C272 632 250 610 250 582Z " transform="matrix(0.11044104017317562,-0.5195842429208436,0.5195842429208436,0.11044104017317562,-48.519947504904735,695.8375614911355)"></path><path d="M276 639H326C354 639 376 661 376 689H326C298 689 276 667 276 639Z " transform="matrix(0.4114505622714472,-0.4114505622714474,0.4114505622714474,0.4114505622714472,-81.33605664873289,524.929709952251)"></path><path d="M718 748H768C796 748 818 770 818 798H768C740 798 718 776 718 748Z " transform="matrix(-0.008908636567632534,-0.5103754471420487,0.5103754471420487,-0.008908636567632534,380.32161224313813,1171.8547194718733)"></path><path d="M20 423H70C98 423 120 445 120 473H70C42 473 20 451 20 423Z " transform="matrix(-0.05799657557602188,0.25121076789863667,-0.25121076789863667,-0.05799657557602188,186.6021843089107,456.39771210515323)"></path><path d="M302 74H352C380 74 402 96 402 124H352C324 124 302 102 302 74Z " transform="matrix(-0.03531048206761162,-0.5049634194125231,0.5049634194125231,-0.03531048206761162,314.4379111659595,280.2428613579017)"></path><path d="M34 597H84C112 597 134 619 134 647H84C56 647 34 625 34 597Z " transform="matrix(-0.06737845096075573,0.2514598023208284,-0.2514598023208284,-0.06737845096075573,246.0677869242587,642.7867731026405)"></path><path d="M561 451H611C639 451 661 473 661 501H611C583 501 561 479 561 451Z " transform="matrix(0.07361292062601035,0.19176821454299228,-0.19176821454299228,0.07361292062601035,657.304175619972,323.7898706962508)"></path><path d="M328 612H378C406 612 428 634 428 662H378C350 662 328 640 328 612Z " transform="matrix(0.5721435022842317,-0.23116097986400677,0.23116097986400677,0.5721435022842317,14.480211963188083,359.92343943353893)"></path><path d="M256 520H306C334 520 356 542 356 570H306C278 570 256 548 256 520Z " transform="matrix(0.2792281378885537,-0.4836373217258232,0.4836373217258232,0.2792281378885537,-43.02615053447107,540.8136852988401)"></path><path d="M124 2H174C202 2 224 24 224 52H174C146 52 124 30 124 2Z " transform="matrix(-0.38238779492473945,-0.04695131749446416,0.04695131749446416,-0.38238779492473945,239.26779074455413,45.493999707004726)"></path><path d="M298 160H348C376 160 398 182 398 210H348C320 210 298 188 298 160Z " transform="matrix(0.5033673203147392,-0.3268905599798751,0.3268905599798751,0.5033673203147392,112.35341893419383,205.63496061476977)"></path><path d="M445 630H495C523 630 545 652 545 680H495C467 680 445 658 445 630Z " transform="matrix(-0.38322254801250555,-0.1245165538898238,0.1245165538898238,-0.38322254801250555,603.1368184683556,967.646463123654)"></path><path d="M185 548H235C263 548 285 570 285 598H235C207 598 185 576 185 548Z " transform="matrix(-0.3307526566704999,-0.2875188979411494,0.2875188979411494,-0.3307526566704999,147.9785457972889,830.0882132883667)"></path><path d="M411 691H461C489 691 511 713 511 741H461C433 741 411 719 411 691Z " transform="matrix(-0.06971077536310208,-0.49601794034254537,0.49601794034254537,-0.06971077536310208,137.9878221571276,994.5771856578945)"></path><path d="M515 353H565C593 353 615 375 615 403H565C537 403 515 381 515 353Z " transform="matrix(0.008164458266885966,0.23379949484833998,-0.23379949484833998,0.008164458266885966,648.763290131882,242.817120185805)"></path><path d="M680 450H730C758 450 780 472 780 500H730C702 500 680 478 680 450Z " transform="matrix(-0.37389435063567783,-0.17434979904230674,0.17434979904230674,-0.37389435063567783,920.126721418949,779.8751698528308)"></path><path d="M606 2H656C684 2 706 24 706 52H656C628 52 606 30 606 2Z " transform="matrix(-0.21140441044700312,0.21891567548689564,-0.21891567548689564,-0.21140441044700312,800.5920164913803,-110.90076403733445)"></path><path d="M331 274H381C409 274 431 296 431 324H381C353 324 331 302 331 274Z " transform="matrix(0.5721435022842317,-0.23116097986400677,0.23116097986400677,0.5721435022842317,93.8961926503697,216.0014261452013)"></path><path d="M233 353H283C311 353 333 375 333 403H283C255 403 233 381 233 353Z " transform="matrix(-0.06109357985721592,-0.49756727888229835,0.49756727888229835,-0.06109357985721592,112.20905168208333,541.9049131097181)"></path><path d="M721 4H771C799 4 821 26 821 54H771C743 54 721 32 721 4Z " transform="matrix(-0.3613076477973155,0.044363000885654716,-0.044363000885654716,-0.3613076477973155,1050.8547234774142,5.274048103282368)"></path><path d="M387 314H437C465 314 487 336 487 364H437C409 364 387 342 387 314Z " transform="matrix(0.18552453997552862,-0.5097244843374722,0.5097244843374722,0.18552453997552862,183.1291758402909,498.8567806037712)"></path><path d="M30 62H80C108 62 130 84 130 112H80C52 112 30 90 30 62Z " transform="matrix(-0.004166872656720914,0.23871997462380226,-0.23871997462380226,-0.004166872656720914,101.10198760480846,68.26491995123054)"></path><path d="M67 742H117C145 742 167 764 167 792H117C89 792 67 770 67 742Z " transform="matrix(-0.11179922840167786,0.25110517828428525,-0.25110517828428525,-0.11179922840167786,322.67818146704315,823.3707023248255)"></path><path d="M717 127H767C795 127 817 149 817 177H767C739 177 717 155 717 127Z " transform="matrix(-0.04398091838145484,-0.5027041974235061,0.5027041974235061,-0.04398091838145484,724.322326390203,544.2592190178103)"></path><path d="M216 252H266C294 252 316 274 316 302H266C238 302 216 280 216 252Z " transform="matrix(-0.22063093676333106,-0.4149464418449498,0.4149464418449498,-0.22063093676333106,209.74766478799495,448.4905230141993)"></path><path d="M334 685H384C412 685 434 707 434 735H384C356 735 334 713 334 685Z " transform="matrix(0.5601774052422795,-0.24940704967556715,0.24940704967556715,0.5601774052422795,-8.187128882688,408.0463493533993)"></path><path d="M723 63H773C801 63 823 85 823 113H773C745 113 723 91 723 63Z " transform="matrix(-0.24593868827196957,-0.39358417486869607,0.39358417486869607,-0.24593868827196957,928.4751986457871,413.8831717414354)"></path><path d="M723 408H773C801 408 823 430 823 458H773C745 458 723 436 723 408Z " transform="matrix(-0.008908636567632534,-0.5103754471420487,0.5103754471420487,-0.008908636567632534,558.8938074542729,831.3776602745884)"></path><path d="M74 466H124C152 466 174 488 174 516H124C96 516 74 494 74 466Z " transform="matrix(-0.11179922840167786,0.25110517828428525,-0.25110517828428525,-0.11179922840167786,261.155746859392,514.7563790379725)"></path><path d="M153 604H203C231 604 253 626 253 654H203C175 654 153 632 153 604Z " transform="matrix(-0.3774605230327103,-0.013181211917059786,0.013181211917059786,-0.3774605230327103,271.3335038798096,869.0984550067379)"></path><path d="M184 161H234C262 161 284 183 284 211H234C206 211 184 189 184 161Z " transform="matrix(-0.3307526566704999,-0.2875188979411494,0.2875188979411494,-0.3307526566704999,257.9176066438432,314.79941625894196)"></path><path d="M724 489H774C802 489 824 511 824 539H774C746 539 724 517 724 489Z " transform="matrix(-0.008908636567632534,-0.5103754471420487,0.5103754471420487,-0.008908636567632534,518.5623048723345,913.6096352837089)"></path><path d="M655 606H705C733 606 755 628 755 656H705C677 656 655 634 655 606Z " transform="matrix(-0.3737101120987113,0.00652313427101445,-0.00652313427101445,-0.3737101120987113,972.5817267546017,862.2122710732217)"></path><path d="M467 575H517C545 575 567 597 567 625H517C489 625 467 603 467 575Z " transform="matrix(-0.21623109830779882,0.21623109830779885,-0.21623109830779885,-0.21623109830779882,758.5301368098112,617.9471811595473)"></path><path d="M291 228H341C369 228 391 250 391 278H341C313 278 291 256 291 228Z " transform="matrix(0.5033673203147392,-0.3268905599798751,0.3268905599798751,0.5033673203147392,86.6484320977655,237.1177489135084)"></path><path d="M662 734H712C740 734 762 756 762 784H712C684 784 662 762 662 734Z " transform="matrix(-0.3737101120987113,0.00652313427101445,-0.00652313427101445,-0.3737101120987113,983.0326587259825,1038.0015034819596)"></path><path d="M299 746H349C377 746 399 768 399 796H349C321 796 299 774 299 746Z " transform="matrix(0.5033673203147392,-0.3268905599798751,0.3268905599798751,0.5033673203147392,-78.70781653432772,496.98860147031246)"></path><path d="M554 745H604C632 745 654 767 654 795H604C576 795 554 773 554 745Z " transform="matrix(0.07361292062601035,0.19176821454299228,-0.19176821454299228,0.07361292062601035,707.1993211399939,597.4900495340047)"></path><path d="M45 266H95C123 266 145 288 145 316H95C67 316 45 294 45 266Z " transform="matrix(-0.06737845096075573,0.2514598023208284,-0.2514598023208284,-0.06737845096075573,174.57575531663284,286.7184480091012)"></path><path d="M663 10H713C741 10 763 32 763 60H713C685 60 663 38 663 10Z " transform="matrix(-0.3407909066377785,0.09131464822146299,-0.09131464822146299,-0.3407909066377785,959.1799291204873,-18.179662449580853)"></path><path d="M717 337H767C795 337 817 359 817 387H767C739 387 717 365 717 337Z " transform="matrix(-0.008908636567632534,-0.5103754471420487,0.5103754471420487,-0.008908636567632534,589.0770123819525,756.6828943954342)"></path><path d="M620 452H670C698 452 720 474 720 502H670C642 502 620 480 620 452Z " transform="matrix(-0.19177085779405417,0.2285436087309374,-0.2285436087309374,-0.19177085779405417,907.5017760866734,415.3504813180358)"></path><path d="M97 323H147C175 323 197 345 197 373H147C119 373 97 351 97 323Z " transform="matrix(-0.15682239685614885,0.24148531446020977,-0.24148531446020977,-0.15682239685614885,254.08978177000688,367.07585288028895)"></path><path d="M223 748H273C301 748 323 770 323 798H273C245 798 223 776 223 748Z " transform="matrix(-0.06109357985721592,-0.49756727888229835,0.49756727888229835,-0.06109357985721592,-94.94095927499671,956.0612043644953)"></path><path d="M380 67H430C458 67 480 89 480 117H430C402 117 380 95 380 67Z " transform="matrix(-0.3484490812351595,-0.25316307636173807,0.25316307636173807,-0.3484490812351595,556.5421019058386,232.91743830918205)"></path><path d="M159 52H209C237 52 259 74 259 102H209C181 102 159 80 159 52Z " transform="matrix(-0.38428438509483653,-0.0608646672587042,0.0608646672587042,-0.38428438509483653,284.6288571059006,119.31061310937159)"></path><path d="M496 743H546C574 743 596 765 596 793H546C518 793 496 771 496 743Z " transform="matrix(-0.08201614324350899,0.2524197338431551,-0.2524197338431551,-0.08201614324350899,784.639169802499,693.1672233326523)"></path><path d="M649 142H699C727 142 749 164 749 192H699C671 192 649 170 649 142Z " transform="matrix(-0.305181857333941,0.14230863720478293,-0.14230863720478293,-0.305181857333941,936.0876606896235,118.49163276862488)"></path><path d="M558 239H608C636 239 658 261 658 289H608C580 289 558 267 558 239Z " transform="matrix(0.07361292062601035,0.19176821454299228,-0.19176821454299228,0.07361292062601035,613.8701528987357,127.97111451259394)"></path><path d="M549 683H599C627 683 649 705 649 733H599C571 733 549 711 549 683Z " transform="matrix(0.07628200277509709,0.18880458222090823,-0.18880458222090823,0.07628200277509709,686.9807245501199,540.8983972849072)"></path><path d="M609 740H659C687 740 709 762 709 790H659C631 790 609 768 609 740Z " transform="matrix(-0.08203394710978974,0.25247452850930546,-0.25247452850930546,-0.08203394710978974,906.2033854549701,661.3752552513569)"></path><path d="M201 478H251C279 478 301 500 301 528H251C223 528 201 506 201 478Z " transform="matrix(-0.22063093676333106,-0.4149464418449498,0.4149464418449498,-0.22063093676333106,97.66030487958639,718.128918095038)"></path><path d="M658 390H708C736 390 758 412 758 440H708C680 440 658 418 658 390Z " transform="matrix(-0.3737101120987113,0.00652313427101445,-0.00652313427101445,-0.3737101120987113,975.2938600883585,565.471317457087)"></path><path d="M249 123H299C327 123 349 145 349 173H299C271 173 249 151 249 123Z " transform="matrix(0.0824390569219832,-0.5204997205095542,0.5204997205095542,0.0824390569219832,197.316763344913,291.4284360079032)"></path><path d="M139 430H189C217 430 239 452 239 480H189C161 480 139 458 139 430Z " transform="matrix(-0.33687572415540495,0.09659755947571956,-0.09659755947571956,-0.33687572415540495,296.6214014268239,590.0215157497983)"></path><path d="M554 17H604C632 17 654 39 654 67H604C576 67 554 45 554 17Z " transform="matrix(-0.06259609341882594,0.2510592179980556,-0.2510592179980556,-0.06259609341882594,652.3525275808892,-107.0107317472349)"></path><path d="M238 192H288C316 192 338 214 338 242H288C260 242 238 220 238 192Z " transform="matrix(0.11044104017317562,-0.5195842429208436,0.5195842429208436,0.11044104017317562,143.44319971630236,342.6745562436239)"></path><path d="M498 212H548C576 212 598 234 598 262H548C520 262 498 240 498 212Z " transform="matrix(-0.08201614324350899,0.2524197338431551,-0.2524197338431551,-0.08201614324350899,652.7683234182707,118.11181180266264)"></path><path d="M185 105H235C263 105 285 127 285 155H235C207 155 185 133 185 105Z " transform="matrix(-0.3094040105219046,-0.32039723210380827,0.32039723210380827,-0.3094040105219046,266.0583022991525,245.51587091224252)"></path><path d="M261 695H311C339 695 361 717 361 745H311C283 745 261 723 261 695Z " transform="matrix(0.2792281378885537,-0.4836373217258232,0.4836373217258232,0.2792281378885537,-124.0588225259329,669.3669477769723)"></path><path d="M513 492H563C591 492 613 514 613 542H563C535 542 513 520 513 492Z " transform="matrix(0.008164458266885966,0.23379949484833998,-0.23379949484833998,0.008164458266885966,679.2777488323349,381.1498594764046)"></path><path d="M609 63H659C687 63 709 85 709 113H659C631 113 609 91 609 63Z " transform="matrix(-0.18170017195136534,0.23256561465719364,-0.23256561465719364,-0.18170017195136534,799.2061874057829,-49.27112492737044)"></path><path d="M445 389H495C523 389 545 411 545 439H495C467 439 445 417 445 389Z " transform="matrix(-0.38322254801250555,-0.1245165538898238,0.1245165538898238,-0.38322254801250555,633.1453079558032,634.28982905264)"></path></g></svg>